<?xml version="1.0" encoding="UTF-8"?>
<!DOCTYPE svg PUBLIC "-//W3C//DTD SVG 1.1//EN" "http://www.w3.org/Graphics/SVG/1.1/DTD/svg11.dtd">
<!-- Creator: CorelDRAW 2018 -->
<svg xmlns="http://www.w3.org/2000/svg" xml:space="preserve" width="207.673mm" height="42.5633mm" version="1.1" style="shape-rendering:geometricPrecision; text-rendering:geometricPrecision; image-rendering:optimizeQuality; fill-rule:evenodd; clip-rule:evenodd"
viewBox="0 0 21029.96 4310.16"
 xmlns:xlink="http://www.w3.org/1999/xlink">
 <defs>
  <style type="text/css">
   <![CDATA[
    .fil0 {fill:#EBECEC}
    .fil1 {fill:#212129}
   ]]>
  </style>
 </defs>
 <g id="Слой_x0020_1">
  <metadata id="CorelCorpID_0Corel-Layer"/>
  <g id="_227061144">
   <g>
    <path class="fil0" d="M2064.67 300.16c0,0 -1100.29,298.59 -1414.27,447.84 -76.33,209.76 -105.22,1076.99 -105.22,1076.99 0,0 1523.96,-134.5 1645.03,-134.23 121.06,0.27 -165.88,273.14 -201.93,269.47 -36.06,-3.69 -188.7,-67.58 -409.51,-29.72 -220.83,37.86 -1046.81,231.53 -1046.81,231.53 0,0 -119.67,1752.3 -132.3,1920.21 -12.63,167.93 -349.13,133.58 -349.13,133.58 0,0 242.35,-3383.47 223.72,-3457.89 -18.62,-74.42 -81.43,-44.6 -97.35,-154.98 -15.92,-110.38 32.77,-274.62 130.72,-288.8 97.95,-14.18 1909.14,-264.36 2017.28,-253.32 127.38,-83.7 118.07,362.54 18.31,400.69 -99.76,38.17 -47.46,-174.02 -278.53,-161.39z"/>
    <path id="1" class="fil1" d="M2073.04 350.34c-76.45,20.83 -1060.82,290.13 -1381.52,434.35 -57.95,195.35 -86.2,796.59 -93.77,984.87 277.36,-24.34 1481.35,-129.47 1592.45,-129.22 36.84,0.07 60.26,14.47 72.79,39.56l-0.16 0.08c12,24.08 8.87,51.84 -5.06,81.2 -9.2,19.37 -23.51,40.82 -40.68,62.61 -68.54,86.94 -201.65,189.93 -233.76,186.67l-0.2 0c-11.13,-1.13 -24.38,-4.64 -42.36,-9.37 -60.88,-16.06 -186.98,-49.3 -353.51,-20.75 -191.88,32.89 -845.72,184.7 -1007.44,222.43 -17.39,254.37 -118.53,1734.02 -129.75,1883.23 -16.54,220.02 -403.22,180.16 -404.31,180.06l-49.21 -4.66 3.53 -49.14c0.69,-9.68 241.85,-3375.11 225.1,-3442.06 -3.88,-15.5 -13.52,-22.77 -23.6,-30.37 -30.52,-22.96 -62.84,-47.3 -74.72,-129.75 -9.84,-68.3 1.83,-154.46 32.25,-221.7 29.42,-64.97 76.83,-114.92 141.39,-124.25 64.47,-9.33 863.35,-119.88 1435.18,-191.67 276.85,-34.76 503.59,-60.64 576.13,-62.21 34.84,-17.52 66.11,-13.58 93.49,6.25 23.61,17.11 40.13,46.65 50.27,83.3 8.24,29.8 12.8,65.89 13.89,103.79 3.63,125.44 -35.76,277.5 -108.25,305.22 -82.45,31.53 -106.8,-12.5 -139.21,-71.1 -21.41,-38.72 -50.21,-90.75 -148.94,-87.38zm-8.37 -50.18c0,0 -1100.29,298.59 -1414.27,447.84 -76.33,209.76 -105.22,1076.96 -105.22,1076.99 0.04,0 1523.96,-134.5 1645.03,-134.23 121.06,0.27 -165.88,273.14 -201.93,269.47 -36.06,-3.69 -188.7,-67.58 -409.51,-29.72 -220.83,37.86 -1046.81,231.53 -1046.81,231.53 -0.01,0.11 -119.67,1752.31 -132.3,1920.21 -12.63,167.93 -349.13,133.58 -349.13,133.58 0,0 242.35,-3383.47 223.72,-3457.89 -18.62,-74.42 -81.43,-44.6 -97.35,-154.98 -15.92,-110.38 32.77,-274.62 130.72,-288.8 97.95,-14.18 1909.14,-264.36 2017.28,-253.32 127.38,-83.7 118.07,362.54 18.31,400.69 -99.76,38.17 -47.46,-174.02 -278.53,-161.39z"/>
   </g>
   <g>
    <path class="fil0" d="M3842.97 3989.65c0,0 -0.58,-1562.14 99.14,-1600.31 99.74,-38.17 953.52,-198.8 1030.41,-94.26 76.92,104.55 -83.78,1677.44 -83.78,1677.44 0,0 143.32,26.72 176.4,-90.75 33.05,-117.51 82.55,-1580.87 82.55,-1580.87 0,0 121.25,-162.85 50.95,-194.21 -70.32,-31.35 -62.49,-54.73 -62.49,-54.73l27.05 -601.54 94.06 -123.3c0,0 -115.71,-72.26 -214.54,-46.1 -98.81,26.19 -1071.11,71.93 -1071.11,71.93 0,0 -183.72,-133.55 -224.31,-77.26 -40.55,56.29 -92.13,903.08 -92.13,903.08 0,0 -70.45,131.8 -39.79,207.46 30.63,75.64 -122.24,1141.7 -134.57,1466.75 19.53,62.44 329.37,169.56 362.15,136.68zm116.28 -1828.21c0,0 980.38,-153.7 1048.87,-98.37 68.52,55.33 12.96,-494.18 12.96,-494.18 0,0 -78.29,-86.58 -285.73,-65.45 -207.45,21.13 -689.82,74.58 -731.29,142.87 -41.46,68.3 -59.82,392.75 -44.81,515.12z"/>
    <path id="1" class="fil1" d="M4888.74 3972.52c0.02,0 143.32,26.71 176.4,-90.75 33.05,-117.51 82.55,-1580.87 82.55,-1580.87 0,0 121.25,-162.85 50.95,-194.21 -70.32,-31.35 -62.49,-54.73 -62.49,-54.73l27.05 -601.54 94.06 -123.3c0,0 -115.71,-72.26 -214.54,-46.1 -98.81,26.19 -1071.11,71.93 -1071.11,71.93 0,0 -183.72,-133.55 -224.31,-77.26 -40.55,56.29 -92.13,903.08 -92.13,903.08 0,0 -70.45,131.8 -39.79,207.46 30.63,75.64 -122.24,1141.7 -134.57,1466.75 19.53,62.44 329.37,169.56 362.15,136.68 0,0 -0.58,-1562.14 99.14,-1600.31 99.74,-38.17 953.52,-198.8 1030.41,-94.26 76.92,104.55 -83.78,1677.42 -83.78,1677.44zm-928.64 -1535.91c-66.88,25.59 -66.5,1548.65 -66.5,1553.04l0 20.96 -14.84 14.84c-7.46,7.46 -16.91,12.93 -28.08,16.44l0.02 0.05c-35.95,11.24 -119.16,-5.21 -199.63,-33.38 -77.67,-27.19 -157.86,-65.99 -192.97,-100.99 -12.35,-12.32 -21.16,-25.55 -25.55,-39.56l-2.5 -7.98 0.33 -8.83c5.58,-147.27 38.62,-436.64 71.08,-721 40.08,-351.23 79.29,-694.74 67.05,-724.97 -33.53,-82.72 19.67,-204.3 36.88,-239.86 6.11,-97.93 54.67,-854.87 100.97,-919.14 59.13,-82 228.11,21.01 279.87,55.49 129.32,-6.19 957.05,-46.59 1043.63,-69.54 119.89,-31.74 253.13,51.6 253.51,51.83l48.09 29.15 -34.05 44.62 -84.51 110.76 -26.33 585.6 -0.28 6.49 -1.47 5.1c0.36,-1.23 5.88,-17.82 34.38,-5.12 109,48.61 10.58,209.55 -21.6,257.03 -5.34,154.95 -51.22,1461.95 -83.81,1577.79 -45.65,162.13 -233.03,127.04 -233.57,126.95l-46.45 -7.93 4.72 -46.86c0.45,-4.45 158.48,-1554.01 93.27,-1642.64 -16.53,-22.48 -140.64,-19.31 -293.62,-5.32 -272.7,24.94 -618.04,94.01 -678.06,116.98zm45.53 -333.29c207.62,-31.27 946.37,-137.62 1031.86,-81.15 -4.92,35.3 -14.03,53.29 -29.37,40.9 -68.49,-55.33 -1048.87,98.37 -1048.87,98.37 -15.01,-122.38 3.35,-446.82 44.81,-515.12 41.48,-68.29 523.84,-121.74 731.29,-142.87 207.44,-21.13 285.73,65.45 285.73,65.45 0,0 26.84,265.48 20.18,408.79 -10.88,-96.15 -52.77,-313.2 -66.23,-382.15 -23.44,-17.75 -92.28,-56.35 -234.74,-41.84 -103.15,10.5 -274.6,29.05 -424.92,53.36 -139.05,22.48 -256.82,46.63 -268.2,65.39 -14.6,24.06 -26.54,101.88 -34.26,190.78 -7.26,83.54 -9.94,174.12 -7.29,240.12z"/>
   </g>
   <g>
    <path class="fil0" d="M2553 3854.1c29.67,-6.67 502.88,-111.74 712.72,-145.38 118.59,-19.06 39.82,-147.85 52.76,-178.16 21.23,-49.58 -595.53,107.64 -587.26,-32.93 22.39,-378.38 162.21,-2237.47 201.87,-2281.77 39.67,-44.29 84.56,2.57 94.19,-44.76 9.63,-47.36 82.97,-136.55 -44.28,-216.03 -127.24,-79.61 -312.17,-116.47 -327.8,-69.72 -15.63,46.75 -3.31,205.11 -3.31,205.11 0,0 -230.45,2580.98 -234.95,2640.95 -4.51,59.98 68.64,133.93 136.08,122.67z"/>
    <path id="1" class="fil1" d="M2651.87 1090.47c-0.01,0.09 -230.45,2580.98 -234.95,2640.95 -4.51,59.98 68.64,133.93 136.08,122.67 29.67,-6.67 502.88,-111.74 712.72,-145.38 118.59,-19.06 39.82,-147.85 52.76,-178.16 21.23,-49.58 -595.53,107.64 -587.26,-32.93 22.39,-378.38 162.21,-2237.47 201.87,-2281.77 39.67,-44.29 84.56,2.57 94.19,-44.76 9.63,-47.36 82.97,-136.55 -44.28,-216.03 -127.24,-79.61 -312.17,-116.47 -327.8,-69.72 -15.63,46.75 -3.31,205.11 -3.31,205.11zm341.9 2721.01c-200.54,40.9 -410.25,87.48 -429.7,91.86l-2.77 0.6c-11.06,1.83 -22.05,2.28 -32.79,1.48 -39.07,-2.93 -76.56,-22.24 -105.23,-49.23 -28.49,-26.81 -49.35,-62.39 -55.28,-97.97 -1.71,-10.26 -2.26,-20.51 -1.51,-30.54 9.4,-125.08 224.41,-2521.87 234.72,-2636.86 -1.67,-22.84 -11.55,-168.61 6.11,-221.47l0.06 0.02c1.88,-5.63 4.2,-10.6 6.85,-14.85l0.19 0c19.25,-30.75 60.66,-43.09 113.16,-39.69 38.16,2.48 85.95,12.68 135.07,29.1 49.93,16.69 101.89,39.98 147.05,68.23 138.5,86.51 101.54,179.89 75.46,245.75 -4,10.12 -7.63,19.27 -8.44,23.28 -13.2,64.97 -45.55,64.48 -86.6,63.85 -6.9,-0.1 -15.27,-0.22 -19.45,4.45 -6.91,7.72 -33.85,287.89 -65.87,649.79 -51.92,586.88 -109.51,1370.99 -123.14,1601.18 0.42,1.55 26.14,3.61 62.98,5.76 80.68,4.74 198.99,-9.88 295.64,-21.84 90.76,-11.22 164.35,-20.32 194.24,-7.53 34.11,14.62 45.43,38.55 30.45,73.51 -2.66,6.25 4.78,3.29 7.39,14.4l0.04 -0.01c2.41,10.57 5.03,22.08 7.23,35.73 10.93,68 4.23,140.38 -105.99,158.1 -71.49,11.45 -174.47,31.43 -279.86,52.92z"/>
   </g>
   <g>
    <path class="fil0" d="M6378.8 1034.19c27.79,-47.45 77.01,-218.44 0.28,-245.12 -76.73,-26.67 -215.33,-75.38 -244.97,-43.85 -29.64,31.52 -37.26,213.04 -4.95,266.62 32.3,53.59 -24.18,362.14 -24.18,362.14 0,0 -188.93,96.97 -247.62,72.13 -58.68,-24.83 -232.29,-11.14 -232.29,-11.14 0,0 -154.86,207.36 -56.94,273.92 97.93,66.56 156.17,56.8 202,11.19 45.83,-45.62 262.74,-111.45 311.27,-112.8 48.52,-1.35 -136.23,2374.74 -136.23,2374.74 0,0 216.34,22.06 270.05,-47.87 53.7,-69.92 132.07,-2400.28 132.07,-2400.28 0,0 393.05,-73.03 515.09,-85.72 122.03,-12.68 144.37,-148.68 144.37,-148.68 0,0 -162.6,-92.03 -322.61,-58.08 -160,33.95 -321.84,92.84 -321.84,92.84 0,0 -7.25,-145.3 16.5,-300.06z"/>
    <path id="1" class="fil1" d="M5945.16 3982.02c0.04,0 216.34,22.05 270.05,-47.87 53.7,-69.92 132.07,-2400.19 132.07,-2400.28 0.03,0 393.05,-73.03 515.09,-85.72 122.03,-12.68 144.37,-148.68 144.37,-148.68 0,0 -162.6,-92.03 -322.61,-58.08 -160,33.95 -321.84,92.84 -321.84,92.84 0,0 -7.25,-145.3 16.5,-300.06 27.79,-47.45 77.01,-218.44 0.28,-245.12 -76.73,-26.67 -215.33,-75.38 -244.97,-43.85 -29.64,31.52 -37.26,213.04 -4.95,266.62 32.3,53.59 -24.18,362.14 -24.18,362.14 0,0 -188.93,96.97 -247.62,72.13 -58.68,-24.83 -232.29,-11.14 -232.29,-11.14 0,0 -154.86,207.36 -56.94,273.92 97.93,66.56 156.17,56.8 202,11.19 45.83,-45.62 262.74,-111.45 311.27,-112.8 48.52,-1.35 -136.23,2374.69 -136.23,2374.74zm500.08 -2974.39c-5.61,16.14 -11.76,30.71 -17.64,42.33 -12.09,82.47 -15.3,160.88 -15.79,213.98 63.16,-20.65 162.7,-50.95 261.85,-71.99 178.75,-37.92 356.9,62.94 357.41,63.22l31.73 17.55 -6.41 35.66c-0.08,0.5 -28.4,173.34 -188.87,190.01 -96.73,10.06 -368.76,59.08 -471.21,77.81 -10.83,311.67 -82.5,2312.5 -140.95,2388.6 -71.04,92.49 -314.46,67.51 -315.15,67.45l-49.28 -4.84 3.79 -49.15c0.51,-6.65 197.01,-2320.8 188.05,-2320.55 -23.08,0.63 -97.53,20.82 -167.17,46.06 -50.58,18.33 -95.79,38.08 -109.88,52.11 -32.12,31.96 -69.44,51.36 -117.27,51.1 -42.37,-0.22 -90.76,-17.04 -148.62,-56.35 -141.74,-96.34 44.15,-345.2 44.68,-345.91l13.65 -18.3 22.94 -1.87c0.52,-0.04 185.72,-14.57 255.84,15.09 28.11,11.9 135.45,-36.83 182.8,-59.59 12.22,-71.15 44.55,-271.5 26.11,-302.09 -20.68,-34.3 -29.15,-100.42 -28.01,-162.77 1.29,-68.91 15.66,-139.22 39.48,-164.57 51.67,-54.98 207.06,-0.96 295.55,29.81l2.83 0.98 -0.02 0.06c6.59,2.3 12.67,5.11 18.21,8.35 43.74,25.62 58.1,75.39 56.59,130.12 -1.19,43.35 -12.51,91.1 -25.24,127.7z"/>
   </g>
   <g>
    <path class="fil0" d="M7406.35 4198.13c0,0 192.53,-2429.9 228.42,-3209.92 6.15,-133.46 -27.32,-222.3 -29.61,-238.41 -15.91,-110.35 189.27,-101.49 292.02,-18.5 102.75,82.99 497.29,-9.68 699.78,35.16 202.48,44.85 658.29,103.46 769.41,719.09 111.15,615.66 -98.96,2443.33 -183.71,2603.87 -84.73,160.57 -1597.7,229.72 -1776.3,108.71zm571.04 -3084c0,0 -286.18,2678 -206.57,2746.55 79.62,68.56 39.1,124.88 232.28,132.49 193.15,7.64 743.05,63.79 942.81,23.74 349.13,-70.04 333.83,-2429.42 232.68,-2610.95 -154.42,-277.06 -804.28,-577.62 -1201.19,-291.83z"/>
    <path id="1" class="fil1" d="M7355.92 4194.17c0.55,-6.99 192.73,-2432.22 228.42,-3208.14 4.66,-101.19 -15.49,-175.53 -24.13,-207.39 -2.41,-8.89 -4.12,-15.23 -5.05,-21.72l-0.03 0c-3.56,-24.77 -0.1,-46.9 8.98,-66.31 15.15,-32.32 44.03,-53.36 80.75,-64.27 29.55,-8.79 64.88,-10.87 101.34,-6.93 63.16,6.86 132.77,32.25 182.63,72.53 42.17,34.06 180.45,26.33 325.19,18.24 126.28,-7.06 257.08,-14.38 353.82,7.04 4.68,1.03 20.84,4.44 37.75,7.99 228.2,47.92 659.81,138.58 770.42,751.45 47.35,262.33 37.79,736.08 4.35,1210.1 -46.61,660.71 -141.28,1328.22 -193.01,1426.2 -1.28,2.43 -3.06,5.32 -5.32,8.65 -62.28,91.92 -466.46,154.8 -880.89,177.72 -408.8,22.6 -834.66,9.36 -949.3,-51.12 -4.43,-2.34 -9.03,-5.12 -13.78,-8.34l-24.46 -16.58 2.31 -29.11zm50.43 3.96c0,0 192.53,-2429.9 228.42,-3209.92 6.15,-133.46 -27.32,-222.3 -29.61,-238.41 -15.91,-110.35 189.27,-101.49 292.02,-18.5 102.75,82.99 497.29,-9.68 699.78,35.16 202.48,44.85 658.29,103.46 769.41,719.09 111.15,615.66 -98.96,2443.33 -183.71,2603.87 -84.73,160.57 -1597.7,229.72 -1776.3,108.71zm571.04 -3084c0,0 -286.18,2678 -206.57,2746.55 79.62,68.56 39.1,124.88 232.28,132.49 193.15,7.64 743.05,63.79 942.81,23.74 349.13,-70.04 333.83,-2429.42 232.68,-2610.95 -154.42,-277.06 -804.28,-577.62 -1201.19,-291.83zm47.79 28.33c-27.34,257.64 -277.68,2631.52 -221.32,2680.04 28.26,24.34 43.4,46.59 56.92,66.5 19.49,28.68 33.58,49.38 144.3,53.74 51.03,2.02 119.9,6.83 199.73,12.39 242.78,16.94 587.26,40.99 731.2,12.13l0.04 0.18c3.63,-0.73 7.44,-2.24 11.41,-4.44 132.14,-73.64 201.8,-591.21 229.79,-1140.17 28.57,-560.12 10.09,-1147.6 -29.73,-1346.07l-0.19 0c-4.75,-23.73 -9.09,-39.54 -12.85,-46.29 -6.46,-11.6 -13.94,-23.28 -22.32,-34.92 -84.89,-117.88 -260.11,-235.32 -459.83,-298.97 -197.99,-63.1 -418.2,-72.18 -594.26,25.94 -11.16,6.22 -22.14,12.85 -32.89,19.92z"/>
   </g>
   <g>
    <path class="fil0" d="M10400.64 1466.96c-125.12,-54.31 -313.89,-13.34 -337.48,59.03 -23.59,72.35 -6.04,1581.46 21.86,1802.77 60.49,479.37 774.26,645.34 1163.81,386.71 96.34,-63.97 219.69,-223.69 244.14,-146.43 24.46,77.26 12.81,272.35 46.08,313.13 33.27,40.78 142.85,33.29 166.91,-45.27 24.06,-78.56 -11.91,-212.27 -22.09,-270.16 -10.59,-60.27 80.34,-1873.38 86.38,-1953.74 6.05,-80.36 73.07,-86.01 35.2,-145.94 -37.86,-59.93 -220.47,-47.45 -255.62,17.51 -35.15,64.96 -13.12,227.54 -14.44,272.68 -3.79,130.44 -67.27,1538.28 -203.68,1661.4 -136.41,123.12 -577.08,184.04 -697.12,90.83 -538.43,-418.18 -108.81,-1988.2 -233.94,-2042.51z"/>
    <path id="1" class="fil1" d="M10400.64 1466.96c-125.12,-54.31 -313.89,-13.34 -337.48,59.03 -23.59,72.35 -6.04,1581.46 21.86,1802.77 60.49,479.37 774.26,645.34 1163.81,386.71 96.34,-63.97 219.69,-223.69 244.14,-146.43 24.46,77.26 12.81,272.35 46.08,313.13 33.27,40.78 142.85,33.29 166.91,-45.27 24.06,-78.56 -11.91,-212.27 -22.09,-270.16 -10.59,-60.27 80.34,-1873.38 86.38,-1953.74 6.05,-80.36 73.07,-86.01 35.2,-145.94 -37.86,-59.93 -220.47,-47.45 -255.62,17.51 -35.15,64.96 -13.12,227.54 -14.44,272.68 -3.79,130.44 -67.27,1538.28 -203.68,1661.4 -136.41,123.12 -577.08,184.04 -697.12,90.83 -538.43,-418.18 -108.81,-1988.2 -233.94,-2042.51zm-7.7 -56.87c8.63,2.81 17.87,6.34 27.68,10.59 74.11,32.16 55.43,221.88 29.47,485.6 -49.28,500.31 -127.69,1296.66 215.54,1563.23l-0.07 0.09c48.52,37.52 172.28,42.81 301.42,25.98 134.44,-17.51 269.75,-59.36 330.89,-114.54 37.22,-33.59 71.56,-223.37 100.72,-461.16 56.38,-459.98 83.92,-1079.92 86.36,-1164.05 0.22,-8.01 -0.78,-25.16 -2.01,-46.01 -4.31,-73.38 -11.04,-187.47 22.37,-249.2 10.03,-18.52 25.64,-33.88 44.95,-46.08 33.43,-21.12 80.63,-33.55 126.64,-36.2 46.64,-2.69 94.41,4.59 128.22,22.88l0.2 0c17.7,9.59 32.46,22.48 42.83,38.93 39.05,61.79 19.33,90.1 -6.95,127.81l-0.2 0c-8.5,12.19 -18.69,26.83 -20.34,48.79 -3.87,51.5 -41.89,799.09 -66.37,1352.92 -14.03,317.16 -23.83,569.96 -20.6,588.37 2.38,13.54 4.45,23.57 6.74,34.73 14.67,71.21 37.41,181.53 13.76,258.76 -8.99,29.37 -25.66,52.29 -46.48,69.28 -22.12,18.04 -48.59,29.04 -75.01,33.67 -26.09,4.56 -53.13,2.93 -76.53,-4.23l-0.2 0c-22.42,-6.88 -42.13,-19.08 -56.12,-36.23 -28.74,-35.23 -33.86,-113.77 -39.05,-193.28 -2.57,-39.58 -5.18,-79.47 -10.04,-109.2 -18.9,13.78 -43.78,36.3 -69.69,59.77 -34.41,31.15 -70.42,63.74 -104.39,86.3 -99.84,66.28 -219.18,106.48 -343.72,122.19 -153.79,19.39 -316.02,1.46 -459.25,-50.72 -145.66,-53.06 -272.56,-141.66 -352.92,-262.68 -44.72,-67.36 -74.91,-144.63 -85.84,-231.29 -14.08,-111.73 -25.53,-541.05 -30.52,-953.69 -5.11,-421.83 -2.89,-829.58 10.63,-871.03l0 -0.2c0.55,-1.67 1.72,-4.6 3.58,-8.91 20.97,-48.3 82.73,-84.44 157.37,-100.22 67.1,-14.19 147.71,-13.49 216.9,9.06z"/>
   </g>
   <g>
    <path class="fil0" d="M12668.23 1603.19c-57.06,-12.83 34.48,-217.07 -106.81,-270.43 -141.29,-53.36 -303.35,7.93 -324.09,122.6 -20.73,114.67 -57.51,1992.35 -82.12,2158.53 35.06,57.13 213.85,257.53 334.92,196.35 131.4,-66.39 17.32,-1612.76 128.98,-1862.18 249.75,-98.33 544.62,-147.63 503.52,175.1 -29.36,230.41 -130.23,1530.74 -81.28,1684.97 109.6,72.83 290.15,-74.14 294.99,-138.52 4.84,-64.38 77.21,-1510.24 130.93,-1660.48 387.89,-262.36 598.41,-370.66 612.78,-47.88 20.88,469.4 -55.39,1251.69 -77.53,1546.06 -11.63,154.53 -76.48,212.82 30.16,243.13 107.8,30.6 215.89,-133.65 222.67,-223.78 6.77,-90.15 86.66,-1894.31 -49.86,-1993.64 -291.21,-211.84 -757.18,186.18 -905.94,252.67 -91.5,-422.22 -69.95,-280.7 -631.32,-182.5z"/>
    <path id="1" class="fil1" d="M12155.21 3613.9c35.06,57.13 213.85,257.53 334.92,196.35 131.4,-66.39 17.32,-1612.76 128.98,-1862.18 249.75,-98.33 544.62,-147.63 503.52,175.1 -29.36,230.41 -130.23,1530.74 -81.28,1684.97 109.6,72.83 290.15,-74.14 294.99,-138.52 4.84,-64.38 77.21,-1510.24 130.93,-1660.48 387.89,-262.36 598.41,-370.66 612.78,-47.88 20.88,469.4 -55.39,1251.69 -77.53,1546.06 -11.63,154.53 -76.48,212.82 30.16,243.13 107.8,30.6 215.89,-133.65 222.67,-223.78 6.77,-90.15 86.66,-1894.31 -49.86,-1993.64 -291.21,-211.84 -757.18,186.18 -905.94,252.67 -91.5,-422.22 -69.95,-280.7 -631.32,-182.5 -57.06,-12.83 34.48,-217.07 -106.81,-270.43 -141.29,-53.36 -303.35,7.93 -324.09,122.6 -20.73,114.67 -57.51,1992.35 -82.12,2158.53zm541.86 -2092.03c-0.11,15.7 -21.6,24.06 -22.6,28.84 131.11,-23.53 228,-48.87 301.86,-68.17 38,-9.92 70.43,-18.41 94.89,-23.71 180.5,-39.11 206.86,-2.48 263.34,250.26 20.1,-12.14 42.98,-26.57 67.88,-42.29 216.4,-136.51 574.61,-362.5 832.74,-174.71 62.16,45.22 88.82,296.55 96.66,610.25 14.3,571.67 -21.6,1368.91 -26.04,1428.09 -1.05,14.08 -3.93,29.25 -8.36,44.88 -14.08,49.58 -45.4,107.18 -85.8,151.18 -44.66,48.64 -101.66,82.49 -163.22,77.87 -9.74,-0.74 -19.55,-2.47 -29.37,-5.25 -119.46,-33.94 -108.26,-83.37 -85.39,-184.08 6.73,-29.7 15.06,-66.32 18.45,-111.46 3.89,-51.78 8.76,-110.56 14.36,-178.21 29.84,-360.68 80.48,-972.6 63.17,-1361.92 -5.32,-119.58 -41.31,-160.41 -106.59,-148.03 -91.36,17.33 -230.82,103.11 -412.36,225.46 -43.16,175.68 -99.37,1191.38 -117.88,1526.13 -3.35,60.6 -5.53,99.93 -6.02,106.38 -1.44,19.26 -9.79,40.09 -23.43,60.63 -22.43,33.75 -62.63,71.62 -109.25,99.61 -48.16,28.92 -104.66,48.38 -158.61,44.33 -28.75,-2.16 -56.57,-10.77 -82.01,-27.69l-15.01 -9.96 -5.37 -16.93c-21.05,-66.36 -17.8,-307.64 -4.15,-590.8 20.95,-434.39 65.64,-974.36 83.65,-1115.73 6.83,-53.65 3.3,-94.07 -8.29,-123.54 -7.97,-20.23 -20.1,-35.06 -35.38,-45.32 -16.94,-11.37 -38.53,-18.21 -63.35,-21.37 -83.72,-10.66 -198.22,19.22 -307.32,60.52 -42.37,131.99 -44,522.58 -45.57,906.51 -1.89,461.15 -3.77,913.19 -99.81,961.7 -64.49,32.58 -135.6,14.96 -201.07,-23.42 -91.77,-53.8 -175.86,-152.83 -199.71,-191.71l-9.59 -15.62 2.67 -18.01c12.42,-83.88 28.29,-623.16 43.53,-1140.89 14.41,-489.52 28.26,-959.96 38.98,-1019.22 2.11,-11.68 5.14,-22.64 9,-32.85 21.32,-56.48 68.61,-99.93 128.49,-125.36l0.19 0c56.19,-23.84 124.38,-31.98 192.07,-19.75 21.01,3.79 41.76,9.43 61.77,16.98 119.3,45.04 118.48,154.11 117.85,236.37z"/>
   </g>
   <g>
    <path class="fil0" d="M14727.04 686.16c0,0 -60.58,3181.67 -26.9,3278.07 33.71,96.38 1118.59,-84.07 1219.42,-153.43 16.14,-11.13 589.8,-2214.76 -978.18,-1614.84 0,0 -73.8,-1017.17 98.16,-1305.16 171.96,-287.99 -360.8,-289.26 -312.5,-204.65zm224.51 1783.18c142.3,-75.16 597.86,-274.42 780.92,16.64 183.07,291.03 135.09,1020.09 47.28,1097.5 -87.81,77.42 -800.76,110.88 -853.02,78.98 -52.25,-31.91 -15.5,-838.51 24.82,-1193.11z"/>
    <path id="1" class="fil1" d="M14727.04 686.16c0,0 -60.58,3181.67 -26.9,3278.07 33.71,96.38 1118.59,-84.07 1219.42,-153.43 16.14,-11.13 589.8,-2214.76 -978.18,-1614.84 0,0 -73.8,-1017.17 98.16,-1305.16 171.96,-287.99 -360.8,-289.26 -312.5,-204.65zm224.51 1783.18c142.3,-75.16 597.86,-274.42 780.92,16.64 183.07,291.03 135.09,1020.09 47.28,1097.5 -87.81,77.42 -800.76,110.88 -853.02,78.98 -52.25,-31.91 -15.5,-838.51 24.82,-1193.11zm-299.08 1511.51c-35.42,-101.42 19.99,-3075.92 23.91,-3283.79 -14.03,-36.18 1.72,-65.2 38.42,-86.15 31.06,-17.72 87.56,-26.72 147.19,-23.1 57.44,3.49 120.94,18.28 170.26,47.73 87.59,52.3 133.61,142.16 50.6,281.18 -138.14,231.34 -108.05,979.39 -95.22,1208.53 344.16,-119.47 587.04,-101.77 756.31,-1.44 129.77,76.9 214.33,200.83 266.88,348.3 50.68,142.19 71.34,306.88 74.29,471.55 7.97,444.41 -128.54,902.93 -136.87,908.68 -11.6,7.98 -29.35,16.05 -52.13,24.02 -112.24,39.25 -396.93,95.34 -659.83,131.09 -276.34,37.58 -535.21,48.13 -575.78,-10.85l-0.19 -0.19c-3.21,-4.7 -5.86,-9.92 -7.83,-15.56zm783.29 -1597.58c-162.74,-3.46 -342.97,71.71 -436.95,118.6 -21.24,199.16 -40.87,516.24 -46.11,768.22 -4.07,195.78 -5.06,345.95 0.32,349.24 22.54,13.76 253.47,7.21 466.64,-12.52 156.69,-14.5 297.93,-36 326.65,-61.32 40.78,-35.95 69.74,-274.33 58.84,-527.3 -8.29,-192.48 -42.14,-388.81 -115.42,-505.33 -59.02,-93.83 -153.19,-127.46 -253.98,-129.61z"/>
   </g>
   <g>
    <path class="fil0" d="M16526.41 4100.02c0,0 -0.58,-1562.15 99.14,-1600.32 99.74,-38.17 953.52,-198.79 1030.41,-94.25 76.92,104.54 -83.78,1677.44 -83.78,1677.44 0,0 143.32,26.75 176.4,-90.75 33.05,-117.48 82.55,-1580.87 82.55,-1580.87 0,0 121.25,-162.85 50.95,-194.21 -70.32,-31.35 -62.49,-54.73 -62.49,-54.73l27.05 -601.54 94.06 -123.3c0,0 -115.71,-72.26 -214.54,-46.08 -98.81,26.17 -1071.11,71.91 -1071.11,71.91 0,0 -183.72,-133.55 -224.3,-77.26 -40.56,56.29 -92.14,903.07 -92.14,903.07 0,0 -70.44,131.81 -39.79,207.47 30.63,75.63 -122.24,1141.7 -134.57,1466.74 19.53,62.44 329.37,169.56 362.15,136.69zm116.28 -1828.21c0,0 980.38,-153.7 1048.87,-98.37 68.52,55.36 12.96,-494.19 12.96,-494.19 0,0 -78.28,-86.57 -285.73,-65.45 -207.45,21.16 -689.82,74.62 -731.29,142.88 -41.46,68.29 -59.82,392.78 -44.81,515.12z"/>
    <path id="1" class="fil1" d="M17831.14 2411.27c0.02,-0.02 121.25,-162.85 50.95,-194.21 -70.32,-31.35 -62.49,-54.73 -62.49,-54.73l27.05 -601.54 94.06 -123.3c0,0 -115.71,-72.26 -214.54,-46.08 -98.81,26.17 -1071.11,71.91 -1071.11,71.91 0,0 -183.72,-133.55 -224.3,-77.26 -40.56,56.29 -92.14,903.07 -92.14,903.07 0,0 -70.44,131.81 -39.79,207.47 30.63,75.63 -122.24,1141.7 -134.57,1466.74 19.53,62.44 329.37,169.56 362.15,136.69 0,0 -0.58,-1562.15 99.14,-1600.32 99.74,-38.17 953.52,-198.79 1030.41,-94.25 76.92,104.54 -83.78,1677.44 -83.78,1677.44 0,0 143.32,26.75 176.4,-90.75 33.05,-117.48 82.55,-1580.83 82.55,-1580.87zm-1187.59 135.7c-66.88,25.59 -66.5,1548.66 -66.5,1553.05l0 20.69 -14.84 14.92c-7.6,7.65 -17.06,13.17 -28.08,16.63l0.02 0.05c-35.94,11.24 -119.15,-5.21 -199.64,-33.39 -77.67,-27.19 -157.86,-65.99 -192.97,-101 -12.33,-12.3 -21.15,-25.54 -25.54,-39.55l-2.51 -7.98 0.34 -8.83c5.58,-147.26 38.62,-436.63 71.08,-720.99 40.08,-351.23 79.29,-694.74 67.05,-724.97 -33.51,-82.72 19.67,-204.3 36.88,-239.87 6.11,-97.91 54.67,-854.85 100.98,-919.13 59.12,-82.01 228.1,21.01 279.86,55.49 129.32,-6.19 957.06,-46.59 1043.63,-69.52 119.89,-31.76 253.13,51.58 253.51,51.81l48.08 29.15 -34.04 44.62 -84.51 110.76 -26.33 585.6 -0.29 6.49 -1.46 5.1c0.34,-1.17 5.82,-17.85 34.38,-5.12 109.01,48.61 10.59,209.56 -21.6,257.04 -5.34,154.95 -51.22,1461.96 -83.81,1577.78 -45.65,162.18 -233.03,127.04 -233.57,126.95l-46.46 -7.93 4.73 -46.86c0.45,-4.45 158.48,-1554.02 93.27,-1642.64 -16.54,-22.48 -140.64,-19.31 -293.62,-5.33 -272.7,24.94 -618.04,94.01 -678.06,116.98zm45.53 -333.28c207.63,-31.27 946.38,-137.62 1031.86,-81.15 -4.91,35.3 -14.03,53.3 -29.37,40.9 -68.49,-55.33 -1048.87,98.37 -1048.87,98.37 -15.01,-122.35 3.35,-446.83 44.81,-515.12 41.48,-68.26 523.84,-121.72 731.29,-142.88 207.45,-21.12 285.73,65.45 285.73,65.45 0,0 26.84,265.49 20.18,408.81 -10.88,-96.15 -52.77,-313.22 -66.23,-382.17 -23.44,-17.74 -92.28,-56.34 -234.74,-41.84 -103.15,10.52 -274.61,29.07 -424.92,53.39 -139.05,22.48 -256.82,46.63 -268.2,65.37 -14.6,24.05 -26.53,101.89 -34.26,190.77 -7.26,83.55 -9.94,174.14 -7.29,240.13z"/>
   </g>
   <g>
    <path class="fil0" d="M19105.27 1907.15c-39.84,-114.15 -372.95,-355.38 -530.13,-358.47 -157.18,-3.1 -479.11,171.24 -469.57,366.49 9.53,195.25 50.56,374.27 297.83,548.44 247.28,174.18 1120.41,561.18 941.42,1009.13 -225,563.03 -754.73,189.09 -717.11,114.61 49.78,-98.48 -28.55,-184.21 -170.13,-153.35 -141.59,30.86 -287.55,119.54 -181.86,324.6 105.69,205.07 476.57,346.55 590.74,358.2 114.17,11.65 845.81,-200.71 674.09,-831.29 -126.69,-465.19 -471.39,-656.79 -506.48,-673.33 -35.09,-16.54 -737.97,-412.14 -711.99,-597.24 49.99,-356.14 438.39,-239.08 455.11,-173.7 18.69,73.13 247.3,174.21 328.09,65.89z"/>
    <path id="1" class="fil1" d="M19105.27 1907.15c-39.84,-114.15 -372.95,-355.38 -530.13,-358.47 -157.18,-3.1 -479.11,171.24 -469.57,366.49 9.53,195.25 50.56,374.27 297.83,548.44 247.28,174.18 1120.41,561.18 941.42,1009.13 -225,563.03 -754.73,189.09 -717.11,114.61 49.78,-98.48 -28.55,-184.21 -170.13,-153.35 -141.59,30.86 -287.55,119.54 -181.86,324.6 105.69,205.07 476.57,346.55 590.74,358.2 114.17,11.65 845.81,-200.71 674.09,-831.29 -126.69,-465.19 -471.39,-656.79 -506.48,-673.33 -35.09,-16.54 -737.97,-412.14 -711.99,-597.24 49.99,-356.14 438.39,-239.08 455.11,-173.7 18.69,73.13 247.3,174.21 328.09,65.89zm-206.37 -272.13c121.33,82.03 229.75,185.92 254.03,255.51l8.87 25.44 -15.99 21.44c-24.12,32.34 -56.72,51.71 -93.48,61.09 -44.24,11.31 -94.4,7.3 -141.34,-5.72 -45.3,-12.57 -88.44,-33.75 -120.33,-57.54 -32.1,-23.95 -55.13,-52.55 -62.54,-81.53l0.18 -0.05c-0.79,-2.07 -20.55,-9.67 -50.6,-19.31 -30.54,-9.79 -67.9,-15.99 -106.18,-14.29 -36.42,1.62 -73.53,10.61 -105.55,30.92 -45.01,28.56 -81.32,81.39 -93.88,170.9 -6.02,42.9 62.99,116.8 157.38,195.97 199.91,167.68 503.67,338.07 526.14,348.65 24.34,11.46 187.97,101.5 334.33,296.08 78.74,104.7 153.2,239.89 199.44,409.69 25.84,94.9 32.46,181.58 24.43,260.42 -19.29,189.06 -122.09,329.36 -246.55,429.43 -121.63,97.78 -264.03,156.82 -367.2,184.9 -61.08,16.63 -111.59,22.77 -138.56,20.03l-0.2 0c-72.69,-7.42 -240.64,-62.82 -386.7,-151.39 -102.48,-62.14 -196.13,-141.42 -243.79,-233.91 -17.63,-34.21 -29.2,-65.9 -35.57,-95.16 -14.06,-64.53 -3.75,-118.18 22.27,-162.38 25.16,-42.74 64.26,-74.65 109.49,-97.96 37.46,-19.31 79.06,-32.8 119.9,-41.69 65.63,-14.31 121.89,-7.24 163.65,13.86 20.64,10.43 37.92,24.34 51.32,40.93 13.88,17.16 23.42,36.98 28.12,58.55 7.52,34.56 2.53,73.19 -17.18,112.19 -1.57,3.12 23.77,10.35 54.58,33.22 28.09,20.85 63.78,41.22 103.88,56.66 40.02,15.4 84.4,26 129.95,27.39 119.99,3.68 251.18,-59.14 336.73,-273.22 129.69,-324.57 -398.97,-635.36 -728.14,-828.85 -79.9,-46.98 -148.77,-87.46 -195.47,-120.35 -131.76,-92.81 -209.03,-187.87 -254.87,-286.3 -45.69,-98.09 -59.26,-197.65 -64.31,-301.11 -0.22,-4.65 -0.28,-9.77 -0.17,-15.33 2.18,-110.6 85.57,-210.99 190.71,-283.81 100.55,-69.64 223.62,-115.6 311.41,-119.9 6.03,-0.29 12.4,-0.37 19.05,-0.24 85.79,1.68 211.51,61.54 322.77,136.77z"/>
   </g>
   <g>
    <path class="fil0" d="M20518.35 1887.91c-39.83,-114.14 -372.94,-355.37 -530.13,-358.47 -157.18,-3.1 -479.11,171.24 -469.57,366.49 9.54,195.25 50.56,374.27 297.84,548.45 247.28,174.18 1120.41,561.17 941.42,1009.13 -225,563.02 -754.74,189.09 -717.12,114.6 49.78,-98.47 -28.55,-184.21 -170.13,-153.35 -141.58,30.87 -287.54,119.54 -181.85,324.61 105.69,205.06 476.56,346.54 590.73,358.19 114.17,11.66 845.82,-200.71 674.09,-831.28 -126.68,-465.19 -471.38,-656.8 -506.48,-673.33 -35.09,-16.54 -737.97,-412.15 -711.98,-597.25 49.98,-356.14 438.39,-239.07 455.1,-173.69 18.69,73.12 247.3,174.21 328.09,65.88z"/>
    <path id="1" class="fil1" d="M20518.35 1887.91c-39.83,-114.14 -372.94,-355.37 -530.13,-358.47 -157.18,-3.1 -479.11,171.24 -469.57,366.49 9.54,195.25 50.56,374.27 297.84,548.45 247.28,174.18 1120.41,561.17 941.42,1009.13 -225,563.02 -754.74,189.09 -717.12,114.6 49.78,-98.47 -28.55,-184.21 -170.13,-153.35 -141.58,30.87 -287.54,119.54 -181.85,324.61 105.69,205.06 476.56,346.54 590.73,358.19 114.17,11.66 845.82,-200.71 674.09,-831.28 -126.68,-465.19 -471.38,-656.8 -506.48,-673.33 -35.09,-16.54 -737.97,-412.15 -711.98,-597.25 49.98,-356.14 438.39,-239.07 455.1,-173.69 18.69,73.12 247.3,174.21 328.09,65.88zm-206.37 -272.12c121.35,82.03 229.75,185.9 254.03,255.5l8.87 25.44 -15.99 21.44c-24.12,32.34 -56.72,51.71 -93.48,61.09 -44.23,11.31 -94.39,7.31 -141.33,-5.71 -45.31,-12.57 -88.45,-33.76 -120.33,-57.54 -32.1,-23.95 -55.14,-52.55 -62.55,-81.53 -0.53,-2.06 -20.28,-9.71 -50.43,-19.37 -30.53,-9.79 -67.88,-15.98 -106.16,-14.28 -36.42,1.61 -73.53,10.6 -105.53,30.9 -45.03,28.56 -81.34,81.39 -93.9,170.91 -6.02,42.91 62.99,116.8 157.37,195.97 199.91,167.69 503.67,338.08 526.14,348.66 24.35,11.46 187.96,101.49 334.32,296.07 78.76,104.71 153.21,239.89 199.45,409.7 25.84,94.92 32.46,181.63 24.41,260.47 -19.29,189.03 -122.07,329.32 -246.54,429.38 -121.63,97.77 -264,156.79 -367.17,184.89l-0.05 -0.18c-61.42,16.73 -111.87,22.93 -138.54,20.21l-0.2 0c-72.69,-7.42 -240.63,-62.81 -386.69,-151.38 -102.49,-62.15 -196.13,-141.43 -243.79,-233.91 -17.64,-34.22 -29.19,-65.9 -35.57,-95.15 -14.07,-64.54 -3.77,-118.18 22.27,-162.39 25.16,-42.77 64.26,-74.67 109.5,-97.98 37.46,-19.3 79.06,-32.79 119.88,-41.68 65.63,-14.31 121.89,-7.24 163.65,13.86 20.64,10.45 37.92,24.35 51.32,40.94 13.88,17.16 23.41,36.95 28.12,58.54 7.53,34.58 2.53,73.2 -17.18,112.19 -1.57,3.12 23.78,10.36 54.6,33.24 28.09,20.85 63.78,41.22 103.88,56.66 40.01,15.4 84.41,25.99 129.94,27.39 119.95,3.68 251.12,-59.18 336.73,-273.41l0.06 0.02c129.44,-324.51 -399.08,-635.21 -728.19,-828.68 -79.9,-46.97 -148.78,-87.46 -195.48,-120.35 -131.76,-92.81 -209.03,-187.87 -254.88,-286.31 -45.69,-98.09 -59.26,-197.65 -64.31,-301.11 -0.22,-4.65 -0.28,-9.77 -0.17,-15.33 2.18,-110.6 85.57,-210.99 190.71,-283.81 100.55,-69.64 223.62,-115.6 311.41,-119.9 6.03,-0.29 12.4,-0.37 19.05,-0.24 85.78,1.69 211.52,61.55 322.77,136.78z"/>
   </g>
  </g>
 </g>
</svg>
