<?xml version="1.0" encoding="UTF-8"?>
<!DOCTYPE svg PUBLIC "-//W3C//DTD SVG 1.1//EN" "http://www.w3.org/Graphics/SVG/1.1/DTD/svg11.dtd">
<!-- Creator: CorelDRAW 2019 (64-Bit) -->
<svg xmlns="http://www.w3.org/2000/svg" xml:space="preserve" width="210mm" height="99mm" version="1.1" style="shape-rendering:geometricPrecision; text-rendering:geometricPrecision; image-rendering:optimizeQuality; fill-rule:evenodd; clip-rule:evenodd"
viewBox="0 0 21000 9900"
 xmlns:xlink="http://www.w3.org/1999/xlink">
 <defs>
  <style type="text/css">
   <![CDATA[
    .str0 {stroke:#E63C24;stroke-width:150;stroke-miterlimit:22.9256}
    .fil1 {fill:none}
    .fil0 {fill:#FEFEFE;fill-rule:nonzero}
   ]]>
  </style>
 </defs>
 <g id="Слой_x0020_2">
  <metadata id="CorelCorpID_0Corel-Layer"/>
  <g id="_312989876368">
   <path class="fil0" d="M787.83 1915.06c0.16,4.12 24.48,670.7 212.22,1499.27 19.6,-255.64 246.19,-678.38 573.73,-988.36 193.79,-183.4 423.13,-332.89 665.38,-392.26 254.04,-62.26 518.64,-27.3 768.29,165.24 467.1,360.23 876.43,1301.16 1028.73,3273.63l-241.38 18c-146.11,-1892.21 -516.28,-2777.52 -935,-3100.43 -183.51,-141.52 -377.67,-167.32 -563.85,-121.69 -198,48.53 -390.62,175.6 -556.52,332.62 -330.55,312.82 -554.95,721.65 -499.51,857.59 16.22,39.77 34.83,100.19 59.79,181.28 115.84,376.46 378.94,1231.23 1235.36,2545.19l356.12 546.37 -528.41 -382.63c-1700.35,-1231.29 -1815.95,-4415.18 -1816.32,-4424.35l241.37 -9.47zm315.06 1905.79c138.96,495.3 338.44,1017.28 624.32,1473.18 -360.88,-682.47 -530.63,-1175.65 -624.32,-1473.18z"/>
   <path class="fil0" d="M2415.43 4828.5c1.99,-0.84 136.89,-57.12 350.72,-152.14 -68.02,-90.5 -115.24,-194.21 -137.73,-312.31 -91.24,-479.07 242.2,-969.54 729.3,-1360.41 284.44,-228.24 622.23,-424.05 955.57,-562.81 336.96,-140.27 672.79,-223.25 949.13,-224.16 294.45,-0.93 619.74,197.51 732.79,408.54 357.06,666.49 -1686.96,1594.26 -2782.09,2110.79 211.78,110.91 501.35,172.15 824.59,196.24 486.05,36.22 1041.95,-13.51 1531.29,-106.7 546.64,-104.11 1124.12,-501.25 1295.92,-647.26l35.07 426.79c-201.88,171.59 -701.25,346.6 -1286.5,458.07 -508.04,96.76 -1086.39,148.29 -1593.77,110.47 -428.56,-31.93 -810.49,-128.71 -1067.76,-316.55 -267.26,121.69 -440.51,193.83 -442.84,194.82l-93.69 -223.38zm579.26 -255.06c1011.15,-461.43 2966.79,-1434.01 2694.93,-1941.47 -65.23,-121.77 -221.68,-174.58 -427.2,-173.92 -243.02,0.79 -546.39,77.12 -856.38,206.16 -313.58,130.54 -630.65,314.18 -896.86,527.79 -422.8,339.27 -715.13,749.68 -643.16,1127.56 17.35,91.11 56.89,170.1 114.6,237.98l14.07 15.9z"/>
  </g>
  <g id="_312989874288">
   <path class="fil0" d="M10379.41 204.11c-34.28,-6.61 -31.05,72.19 -61.85,85.82 -165.91,73.42 -337.44,278.82 -442.99,680.08 -110.65,420.71 -181.36,965.55 -215.2,1545.87 -91.27,1564.13 76.58,3375.4 445.48,3691.99 48.65,41.75 96.64,67.35 143.43,79.15 89.24,22.52 186.79,-5.49 284.7,-66.73 114.93,-71.9 227.48,-187.48 329.45,-324.7 236.28,-318 406.54,-741.3 421.1,-1014.67 10.17,-190.88 62.87,-266.43 148.62,-261.87 43.63,2.33 76.86,32.65 104.02,82.67 6.85,-478.93 43.41,-998.7 111.41,-1479.72 100.32,-709.8 374.99,-1302.51 306.15,-1900.33l401.31 359.48c-226.89,275.62 -386.92,878.34 -483.89,1564.51 -119.1,842.67 -140.58,1805.36 -73.68,2449.22l77.39 744.44 -296.29 -714.64c-49.06,-118.33 -94,-315.3 -133.74,-504.42 -76.65,252.03 -215.7,536.49 -387.17,767.27 -113.95,153.36 -243.98,285.17 -382.21,371.64 -155.25,97.11 -321.57,138.54 -490.77,95.86 -84.34,-21.26 -166.21,-63.47 -243.87,-130.12 -406.68,-349.02 -599.03,-2220.62 -505.6,-3821.65 34.37,-589.3 106.4,-1143.46 219.28,-1572.62 118.01,-448.63 286.86,-769.39 512.89,-869.41 81.14,-35.92 167.79,-46.52 259.96,-28.72l-47.93 171.6zm1043.34 4591.36c-29,-1.55 -6.62,6.39 22.55,22.95 -0.76,-14.05 -6.9,-22.12 -22.55,-22.95z"/>
   <path class="fil0" d="M10347.09 1932.35l-64.39 -169.73c82.03,216.41 159.32,420.27 235.3,613.44 32.97,-231.34 158.63,-443.29 400.11,-638.42 181.93,-147 384.23,-201.13 593.32,-180.53 182.57,17.99 367.66,93.77 546.07,214.46 172.8,116.93 340.1,276.08 492.92,465.21 91.88,113.71 178.94,238.79 259.18,372.5 122.63,-781.09 448.79,-1418.67 1149.6,-1310.68 299.49,46.13 518.43,167.32 673.41,339.75 158.92,176.81 247.4,405.1 284.68,659.77 35.82,244.62 24,513.4 -17.51,782.77 -128.53,834.21 -553.34,1698.12 -717.46,1845.64l-161.97 -180.21c143.4,-128.89 520.09,-919.54 640.62,-1701.84 38.22,-248.14 49.52,-493.07 17.51,-711.68 -30.53,-208.56 -100.92,-393.24 -226.07,-532.47 -119.06,-132.48 -290.94,-226.16 -529.61,-262.93 -523.04,-80.58 -774.89,462.08 -876.29,1120.26 -16.67,108.2 -29.27,219.37 -38.31,331.57 226.06,500.91 352.12,1073.58 299.23,1610.38 -29.91,303.39 -114.72,426.74 -225.05,415.85 -124.89,-12.32 -250.57,-371.58 -300.4,-866.68 -33.04,-328.65 -46.06,-725.69 -19.2,-1115.85 -112.74,-237.96 -249.66,-457.34 -400.55,-644.08 -138.59,-171.53 -287.87,-314.22 -439.58,-416.88 -146.12,-98.84 -293.62,-160.5 -434.45,-174.38 -146.59,-14.44 -289.07,24.03 -418.02,128.23 -620.74,501.58 -223.26,1212.13 550,2169.14 203.81,252.22 428.26,515.14 666.53,794.27l748.49 876.92 -823.81 -598.11c-1237.23,-898.27 -1584.99,-1815.79 -2155.03,-3319.84l-1.29 -3.4 292.02 87.55zm2722.1 2619.22c25,-286.83 -5.11,-584.63 -76.16,-874.12 4.94,157.53 15.19,308.62 29.11,447.15 16.98,168.72 33.26,315.65 47.05,426.97zm36.42 223.41c17.83,1.75 3.85,-14.94 -12.28,-49.69 5.41,31.99 9.61,49.43 12.28,49.69z"/>
   <path class="fil0" d="M13585.19 3660.85c1.03,-0.01 47.19,-0.43 127.01,-4.45 -7.51,-56.62 -12.86,-113.31 -16.02,-169.87 -36.1,-642.78 680.04,-1523.26 1397.86,-1978.74 200.73,-127.35 403.14,-223.06 591.22,-272.99 200.49,-53.24 387.16,-54.85 543.21,10.86 231.75,97.58 383.97,331.57 398.94,747.29 52.33,1453.63 -1782.32,1800.91 -2625.42,1883.78 26.46,98.8 60.83,195.88 103.27,289.56 127.17,280.63 327.48,530.42 606.2,703.49 280.44,174.14 642.19,271.56 1091.43,246.32 394.25,-22.13 855.21,-138.59 1387.12,-379.65l99.17 220.43c-560.36,253.97 -1050.52,376.9 -1473.56,400.65 -502.59,28.23 -911.38,-83.29 -1231.72,-282.2 -322.04,-199.99 -552.98,-487.46 -699.08,-809.87 -54.01,-119.19 -96.38,-243.25 -127.44,-369.42 -105.7,6.15 -167.72,6.68 -168.97,6.7l-3.22 -241.89zm368.6 -21.77c770.6,-70.56 2478.09,-369.95 2432.44,-1638.1 -11.03,-306.45 -106.65,-471.97 -251.14,-532.81 -103.51,-43.58 -237.66,-39.77 -388.34,0.23 -163.11,43.31 -342.49,128.74 -523.29,243.45 -658.75,417.98 -1317.13,1204.97 -1285.86,1761.95 3.09,55.03 8.48,110.23 16.19,165.28z"/>
   <path class="fil0" d="M16758.37 802.29c-4.04,11.68 -1656.11,3926.6 481.65,4525.6 285.71,80.04 524.39,82.51 723.07,26.37 177.12,-50.07 324.8,-148.44 447.43,-280.98 -133.17,-1106.18 -1.9,-2135.57 157.14,-2732.98 46.86,-176.13 97.04,-317.52 144.38,-414.87 69.09,-142.11 153.64,-212.73 243.15,-199.1 49.04,7.48 88.53,35.36 116.95,84.59 74.37,128.96 179.79,862.9 121.26,1639.91 -33.79,448.39 -120.1,917.2 -294.57,1303.14 -65.57,145.05 -143.48,278.6 -235.53,395.56 37.88,278.66 492.25,1110.7 569.62,1391.85l-631.54 -485.69c-63.2,-229.67 -112.34,-460.48 -149.51,-689.36 -122.18,99.53 -262.56,175.32 -423.47,220.8 -239.36,67.65 -521.4,66.21 -852.89,-26.65 -2388.74,-669.33 -547.62,-5147.06 -543.34,-5159.42l126.2 401.23zm1863.66 3967.68c19.84,-37.19 38.66,-75.54 56.47,-114.93 161.75,-357.81 242.2,-798.26 274.11,-1221.76 42.73,-567.12 2.32,-1093.12 -46.72,-1350.77 -33.88,80.51 -69.65,188.33 -104.56,319.51 -140.47,527.71 -258.53,1404.44 -179.3,2367.95z"/>
  </g>
  <g id="_312983610208">
   <path class="fil0" d="M16288.99 6663.21c2.53,3.6 881.93,1239.75 871.73,2037.97 314.92,-166.75 747.32,-233.96 1206.67,38.65 36.47,21.63 297.38,-219.34 334.15,-193.29l-440.83 635.22 -8.15 -86.78c-18.58,-13.17 54.38,-254.8 35.9,-266.69 -461.09,-296.72 -834.9,-171.78 -1130.03,7.56l-2.87 1.76c-4.56,74.36 -13.03,158.62 -29.84,237.44 -30.04,140.76 -88,266.03 -199.61,304.47 -97.97,33.75 -168.99,30.77 -214.75,2.13 -82.39,-51.57 -72.02,-169.98 14.58,-302.37 64.2,-98.14 171.53,-209.26 310.66,-303.52 0.96,-23.17 1.59,-44.69 2.09,-63.85 19.7,-761.14 -849.13,-1982.49 -851.62,-1986.02l101.92 -62.68zm716.89 2389.64c8.57,-40.19 14.84,-82.11 19.46,-123.35 -85.08,68.95 -151.62,142.65 -195.2,209.28 -50.1,76.6 -71.73,135.34 -51.09,148.26 13.78,8.63 47.47,5.29 105.14,-14.57 62.03,-21.36 99.05,-113.51 121.69,-219.62z"/>
   <path class="fil0" d="M18308.94 6955.19c1.55,3.74 426.56,1407.15 300.48,2341.24l-121.39 -14.29c122.24,-905.63 -408.05,-2170.72 -409.57,-2174.38l230.48 -152.57z"/>
   <path class="fil0" d="M17972.03 9457.74c3.6,-12.82 1251.81,-4492.91 1666.92,-2223.65l-120.12 19.15c-319.14,-1744.72 -1425.63,2221.89 -1428.81,2233.24l-117.99 -28.74z"/>
   <path class="fil0" d="M18473.51 7475.99c1.8,0.18 630.98,59.98 826.69,362.94l-104.27 58.8c-164.11,-254.03 -734.14,-308.41 -735.77,-308.58l13.35 -113.16z"/>
   <path class="fil0" d="M19101.01 8423.17c0.98,-0.35 82.5,-28.87 205.95,-79.06 -11.95,-33.9 -22.34,-68.77 -31.27,-104.39 -56.57,-225.61 -55.16,-481.82 -28.95,-709.23 32.21,-279.53 203.65,-458.57 415.75,-547.18 102.68,-42.88 214.73,-64.24 324.73,-65.25 110.24,-1 219.11,18.45 315.13,57.13 179.33,72.26 313.8,210.6 333,407.8 41.75,428.89 -722.71,825.15 -1173.07,1020.15 42.61,86.66 99.43,161.94 173.79,219.49 123.44,95.54 298.63,143.89 542.33,116.48 215.04,-24.19 481.28,-106.75 809.25,-266.27l56.2 101.08c-342.05,166.38 -622.25,252.76 -850.89,278.48 -280.47,31.55 -486.14,-27.21 -634.71,-142.21 -89.61,-69.36 -157.21,-158.57 -207.08,-260.23 -124.56,51.01 -206.24,79.57 -207.25,79.93l-42.91 -106.72zm317.86 -125.82c427.29,-183.39 1130,-541.93 1094.71,-904.4 -14.63,-150.37 -119.49,-256.79 -259.54,-313.22 -80.26,-32.34 -172.1,-48.58 -265.83,-47.73 -93.96,0.86 -189.28,18.94 -276.17,55.23 -175.38,73.26 -317.24,222.25 -344.15,455.73 -24.95,216.48 -26.57,459.27 26.45,670.7 7.15,28.53 15.31,56.48 24.53,83.69z"/>
   <path class="fil0" d="M18358.46 6420.26l0.1 -0.16c33.27,18.33 4.88,151.81 -37.83,219.42 -134.12,244.89 -237.63,246.25 -425.93,438.77 6.86,-110.22 -17.06,-230.13 -2.42,-246.39 63.5,-68.87 400.85,-447.22 466.08,-411.64zm-56.69 84.2c9,3.22 13.36,4.79 3.96,-0.39l0.02 -0.19c-0.89,-0.5 -2.25,-0.27 -3.98,0.58z"/>
  </g>
  <g id="_312983660032">
   <path class="fil0" d="M10576.69 7706.86c-286.29,-3.98 -461.96,131.22 -544.14,313.98 -36.67,81.53 -55.36,172.73 -57.48,265.65 -2.14,93.47 12.57,188.6 42.67,277.36 73.84,217.68 240.67,395.41 478.05,410.47 228.23,14.48 425.26,-178.21 527.43,-417.79 39.09,-91.68 64.09,-189.81 71.59,-285.8 7.4,-94.47 -2.11,-186.67 -31.8,-268.08 -61.2,-167.86 -212.76,-291.99 -486.32,-295.79zm-651.86 265.45c100.34,-223.13 311.75,-388.23 653.59,-383.49 332.04,4.62 518.24,161.41 595.59,373.58 35.64,97.76 47.18,206.83 38.53,317.46 -8.52,109.09 -36.67,219.95 -80.58,322.93 -120.03,281.47 -359.33,507.35 -643.43,489.33 -291.65,-18.5 -494.55,-230.74 -582.62,-490.37 -34.45,-101.59 -51.28,-210.77 -48.82,-318.38 2.48,-108.16 24.5,-214.92 67.74,-311.06z"/>
   <path class="fil0" d="M11327.96 9554.82c-5.03,-7.5 -1779.92,-2621.31 171.91,-2261.37l85.52 153.14 -106.62 -36.85c-1672.98,-308.51 -57.22,2072.44 -52.63,2079.27l-98.18 65.81z"/>
   <path class="fil0" d="M10524.58 8489.32c2.6,-1.27 877.1,-486.13 947.66,-483.16l-65.46 147.17c-40.76,-1.71 -921.62,426.76 -924.15,427.98l41.95 -91.99z"/>
   <path class="fil0" d="M12482.13 7301.92c-1.74,1.67 -612.12,581.77 -313.83,825.74 47.71,39.02 100.84,49.61 155.45,39.69 79.29,-14.41 163.88,-69.75 243.27,-145.77 83.11,-79.58 159.06,-180.68 217.56,-282.16 28.35,-49.15 52.63,-97.8 71.57,-143.33 -32.9,-255.52 -47.02,-380.62 5.7,-404.26 49.95,-22.42 89.8,25.93 138.36,134.22 29.07,64.83 17.14,166.99 -23.44,280.53l0.5 3.75c7.63,59.16 16.31,126.33 28.16,220.6 8.79,69.96 16.1,123.75 23.28,176.67l0.22 0.01c11.08,81.54 21.93,161.58 30.91,239.42 98.52,-28.47 263.86,-32.23 327.58,-29.55l-84.65 106.28c-56.64,-2.38 -136.79,13.66 -230.74,42.12 33.08,378.47 -3.3,691.65 -322.22,847.65 -229.78,112.38 -494.04,68.69 -692.23,-12.56 -82.76,-33.92 -154.59,-74.74 -207.64,-113.47 -60.1,-43.87 -99.63,-89.64 -109.53,-125.99 -6.9,-25.38 -3.71,-48.67 10.49,-69.06l0.23 0.01c35.21,-50.51 475.3,-305.58 889.32,-487.5 104.63,-45.97 208.25,-87.75 304.24,-121.08 -9.21,-84.02 -21.04,-171.22 -33.14,-260.38l0.22 -0.03c-8.68,-63.91 -17.45,-128.57 -23.67,-178.03l-5.12 -40.52c-63.36,108.6 -144.99,216.53 -234.33,302.08 -94.86,90.83 -199.81,157.65 -303.85,176.56 -87.99,15.99 -173.81,-1.26 -251.2,-64.55 -402.58,-329.27 333.77,-970.34 335.79,-972.28l52.74 55.19zm423.36 18.53c11.34,-17.65 21.93,-28.75 4.63,-20.98 -6.06,2.71 -7.03,9.42 -4.63,20.98zm-207.71 1786.67c246.38,-120.51 282.42,-381.21 258.23,-702.49 -84.48,30.49 -175.66,67.71 -268.24,108.38 -363.35,159.67 -739.46,366.32 -823.89,432.11 10.75,11.95 29.88,28.18 55.83,47.13 45.92,33.53 109.02,69.23 182.77,99.46 173.04,70.94 401.61,110.15 595.3,15.41z"/>
   <path class="fil0" d="M13210.46 7486.98c312.13,1.35 485.08,114.57 558.91,279.32 38.92,86.86 48.81,186.73 36,291.02 -12.37,100.67 -45.96,205.84 -94.77,307.15 -153.91,319.38 -465.08,606.17 -745.46,599.27 -242.6,-5.97 -413.53,-187.2 -488.58,-421.91 -30.07,-94 -44.64,-197.09 -42.01,-300.81 2.64,-103.83 22.52,-208.14 61.33,-304.46 101.72,-252.42 330.3,-451.24 714.58,-449.58zm450.82 327.57c-55.34,-123.48 -194.18,-208.38 -451.61,-209.5 -326.14,-1.41 -519.06,164.66 -604.02,375.49 -33.63,83.45 -50.84,173.76 -53.12,263.59 -2.28,89.93 10.45,179.62 36.69,261.68 60.54,189.33 193.6,335.38 379.04,339.95 232.7,5.73 499.04,-249.07 635.65,-532.56 43.45,-90.17 73.22,-182.72 83.95,-270.09 10.29,-83.77 3.07,-162.39 -26.58,-228.56z"/>
   <path class="fil0" d="M14092.16 7540.57c-2.42,1.75 -822.09,571.73 -376.86,934.31 135.04,109.96 295.01,150.34 450.71,141.63 132.99,-7.44 263.03,-50.46 372.31,-116.54 107.8,-65.17 194.52,-152.2 242.64,-248.76 23.39,-46.94 37.52,-96.27 40.23,-146.43 -4.2,-32.45 -8.87,-62.63 -13.59,-89.77 -4.16,-23.99 -8.26,-45.3 -12.06,-63.66 -10.75,-37.79 -16.99,-62.28 -19.79,-74.91l-13.1 -59.71c-113.54,-449.01 -149.63,-692.54 -137.28,-753.97 -4.87,-81.87 14.83,-66.64 59.21,59.34 47.67,110.23 118.29,340.02 194.61,675.42l17.48 67.11c3.64,14.04 8.16,32.87 13.02,55.38l12.06 41.34c13.86,46.68 19.59,93.34 18.15,139.34 31.53,255.79 32.45,638.32 -175.71,866.3l-87.43 -79.64c116.33,-127.41 155.26,-318.76 160.13,-501.18 -59.54,83.3 -141.7,157.09 -237.52,215.02 -124.88,75.5 -273.9,124.68 -426.75,133.24 -183.41,10.26 -372.19,-37.58 -532.04,-167.75 -565.8,-460.75 454.04,-1189.7 456.82,-1191.71l-5.24 165.6z"/>
   <path class="fil0" d="M15038.48 7733.46c0.54,1.07 69,135.49 155.35,317.95 13.44,-209.14 78.69,-393.41 235.76,-482.9 118.72,-67.63 220.62,-86.76 305.53,-72.11 80.9,13.95 144.74,57.33 192.28,118.58 44.7,57.58 74.5,131 90.03,209.72 29.08,147.38 8,317.09 -59.07,435.5l-110.34 -124.59c53.6,-94.63 77.58,-166.31 53.58,-287.99 -12.11,-61.39 -34.52,-117.59 -67.56,-160.15 -30.21,-38.91 -69.71,-66.29 -118.65,-74.73 -59.47,-10.26 -134.84,5.42 -227.59,58.26 -177.44,101.09 -201.58,379.14 -168.59,653.82 120.55,272.62 232.47,560.53 224.18,673.47 -2.19,29.84 -12.01,51.24 -28.08,64.69 -50.28,42.02 -107.11,-0.88 -154.38,-107.32 -28.77,-64.77 -61.76,-158.99 -90.91,-267.97 -27.04,-101.1 -50.74,-215.34 -64.94,-331.89 -130.82,-291.27 -271.37,-567.39 -272.13,-568.89l105.53 -53.45z"/>
  </g>
  <g id="_312983623296">
   <path class="fil0" d="M1239.77 7911.25c-0.65,0.69 -102.85,34.44 -131.37,5.71 -7.63,-7.68 43.27,-189.3 33.61,-197.37 -92.72,-77.44 -307.33,-204.75 -599.93,-112.46 -161.31,50.87 -292.05,143.44 -356.98,244.44 -28.1,43.74 -42.97,88.47 -41.08,130.72 1.79,40.09 19.39,79.42 56.07,115.09 74.11,72.1 219.55,129.22 458.33,152.93 433.14,42.97 766.07,80.11 972.88,179.77 228.93,110.31 308.93,285.97 205.27,600.14 -21.45,65 -55.01,118.72 -98,162.65 -138.24,141.2 -370.96,176.49 -611.06,162.04 -231.23,-13.92 -470.26,-73.52 -632.47,-127.06 -55.44,-18.29 -70.31,-22.73 -107.16,-39.11 -22.47,-9.98 -27.84,336.08 -23.47,380.94 3.84,39.48 -190.54,-76.89 -184.23,-124.64 41.3,-312.21 27.62,-520.34 110.23,-820.36 11.74,-42.68 129.24,10.39 136.56,54.03 22.79,135.76 -38.28,235.77 -48.24,373.08 -0.99,13.58 55.81,31.62 152.98,63.68 155.59,51.33 383.91,108.46 602.6,121.62 209.85,12.64 409.7,-14.58 519.75,-126.97 30.7,-31.37 54.7,-69.88 70.1,-116.57 80.11,-242.77 23.24,-376.14 -144.13,-456.77 -189.45,-91.31 -512.28,-127.1 -933.03,-168.85 -268,-26.6 -437.11,-96.44 -529.19,-186.01 -34.71,-33.77 -59.02,-70.26 -73.96,-108.43l0 -201.19c10.13,-28.66 24.28,-56.99 42.05,-84.64 79.05,-122.96 233.21,-234.07 420.61,-293.18 386.14,-121.79 617.82,46.3 715.74,147.49 5.42,5.59 70.98,-114.02 91.94,-123.11 36.31,-15.79 95.76,80.23 95.63,80.48 -56.68,103.98 -94.43,230 -170.05,311.91z"/>
   <path class="fil0" d="M2074.97 8239.81c-274.07,8.76 -426.87,111.35 -486.99,240.02 -27.39,58.61 -36,123.03 -28.43,186.42 7.7,64.49 32.09,128.04 70.48,183.65 86.45,125.25 244.44,209.13 443.66,172.44 136.81,-25.2 245.23,-160.55 293.87,-313.18 19.71,-61.89 29.24,-126.64 26.52,-188.12 -2.59,-58.73 -16.51,-113.56 -43.58,-158.5 -46.14,-76.59 -134.28,-127.24 -275.53,-122.73zm-594.19 190.12c77.55,-165.96 264.18,-297.92 590.83,-308.37 190.39,-6.09 312.72,68.08 380.11,179.93 37.92,62.94 57.26,136.91 60.69,214.33 3.3,74.66 -8.34,153.51 -32.43,229.11 -60.57,190.1 -202.08,359.89 -385.24,393.62 -251.12,46.25 -451.5,-61.29 -562.03,-221.41 -49.17,-71.25 -80.48,-153.18 -90.47,-236.84 -10.12,-84.76 1.57,-171.25 38.54,-250.37z"/>
   <path class="fil0" d="M2711.49 7793.14c-0.59,1.14 -118.18,86.25 -191.39,263.64 -152.84,370.28 -332.16,951.18 12.32,1018.8 57.91,11.36 111.3,8.97 160.35,-4.39 145.06,-39.52 261.5,-175.05 349.57,-337.91 19.46,-35.97 37.47,-73.23 54.09,-111.07 -18.01,-191.45 9.48,-382.46 46.52,-516.13 16.54,-59.7 35.27,-109.07 53,-142.96 30.86,-59.01 70.62,-85.42 113.06,-70.75 24.18,8.36 41.5,27.91 50.16,59.7 12.48,45.82 6.91,151.71 -18.49,281.1 -23.81,121.33 -64.82,267.77 -124.06,409.04 15.61,126.31 54.59,249.74 129.98,349.06l-94.24 71.52c-56.05,-73.85 -94.83,-158.33 -120.32,-247.19 -100.35,176.51 -235.16,322.23 -408.4,369.43 -66.65,18.16 -137.9,21.65 -213.71,6.78 -665.89,-130.71 43.93,-1492.7 45.95,-1496.61l155.61 97.94z"/>
   <path class="fil0" d="M4923.93 8122.12c-267.69,-39 -811.07,-50.31 -933.58,467.33 -41.92,177.13 13.36,302.53 114.08,373.74 70.59,49.91 163.48,75.26 261.92,75.02 100.32,-0.24 205.77,-27.13 299.28,-81.7 184.66,-107.74 322.04,-325.56 280.33,-662.85 -7.25,-58.57 -14.61,-115.75 -22.03,-171.54zm-1048.7 440.25c139.41,-589.06 721.57,-600.05 1032.19,-561.32 -49.18,-352.32 -99.76,-643.81 -138.85,-869.05 -54.34,-313.13 -87.16,-502.23 -61.09,-570.66 15.1,-39.78 41.73,-51.94 79.41,-37.68l-0.01 0.23c46.46,17.68 81.36,232.7 130.69,536.82 45.31,279.37 103.88,640.43 169.51,972.53 11.24,2.75 17.43,4.46 17.66,4.52l-9.64 35.76c89.26,444.52 190.9,828.16 289.67,879.26l-53.99 105.18c-94.51,-48.9 -182.48,-278.89 -261.08,-580.45 -18.84,282.93 -162.71,475.05 -344.45,581.09 -111.85,65.27 -238.29,97.44 -358.78,97.72 -122.36,0.31 -239.32,-32.28 -330.03,-96.41 -138.73,-98.09 -216.08,-265.71 -161.21,-497.54z"/>
   <path class="fil0" d="M5557.82 6815.26c-0.2,1.63 -16.59,137.71 -40.58,345.49 20.15,-12.24 38.63,-23.13 55.67,-32.82 109.38,-62.19 165.18,-78.26 229.84,-83.6 199.03,-16.41 100.47,309.9 100.21,310.83l-34.17 -95.46c0.13,-0.46 -31.84,-99.38 -56.65,-97.34 -47.26,3.89 -90.37,16.97 -181.04,68.52 -35.98,20.46 -78.77,46.59 -131.08,79.92 -23.97,210.47 -52.45,466.53 -79.43,724.53 59.7,319.25 48.57,692.62 16.54,962.84 -12.87,108.66 -29.27,201.66 -45.79,268.02 -23.13,92.93 -59.74,146.13 -103.74,144.5 -25.71,-0.9 -45.68,-13.83 -59.15,-39.53 -39.78,-75.9 12.79,-715.09 75.5,-1336.92 -41.28,-210.89 -116.89,-388.86 -244.16,-476.28l-71.64 -49.21 72.04 -48.49c136.85,-92.12 243.68,-163.42 328.97,-218.71 29.52,-260.75 50.9,-438.17 51.13,-440.04l117.53 13.75zm-223.17 922.83c12.82,-120.78 25.51,-236.99 37.42,-344.08 -52.84,34.86 -67.39,73.29 -135.69,119.14 58.8,58.76 60.7,136.7 98.27,224.94z"/>
   <path class="fil0" d="M5755.47 7552.13c0.23,1.29 23.78,130.44 57.3,319.79 0.49,-34.16 2.23,-57.86 5.47,-68.26 14.76,-47.27 145.33,-162.69 308.2,-224.47 81.71,-31 173.3,-50.9 264.84,-45.56 94.79,5.51 188.43,37.8 269.98,111.77 120.45,109.29 212.16,309.77 235.19,651.64l-117.96 7.54c-20.67,-306.98 -96.97,-481.53 -196.4,-571.73 -59.34,-53.83 -127.94,-77.34 -197.62,-81.4 -72.93,-4.25 -148.11,12.45 -216.37,38.34 -130.3,49.43 -228.87,122.86 -236.93,148.73 -17.81,57.04 30.53,719.37 68.87,1158.6 25.23,171.19 42.16,307.17 42.99,368.48 0.21,15.91 -0.22,26.84 -1.2,33.13l-0.01 0.24c-33.43,213.13 -64.79,252.29 -93.25,146.4 -23.35,-3.83 -39.16,-46.89 -26.4,-145.13 -2.96,-21.85 -5.89,-45.41 -8.78,-70.62 -5.93,-51.88 -13.49,-128.13 -21.77,-218.95 -2.99,-32.81 -6.07,-67.64 -9.22,-103.96 -79.41,-535.93 -242.53,-1430.15 -243.15,-1433.53l116.22 -21.05z"/>
   <path class="fil0" d="M7574.28 8398.92c-61.42,-130 -518.76,-1024.8 -1055.27,-50.48 -191.3,347.39 -187.92,580.23 -89.93,726.65 42.01,62.79 102.02,110.78 171.66,145.77 71.87,36.1 154.08,58.41 237.88,68.93 230.58,28.95 465.98,-27.46 523.57,-129.31 88.73,-156.93 162.41,-486.42 212.09,-761.56zm-1158.95 -107.19c537.2,-975.56 1007.04,-394.14 1191.22,-83.31 23.76,-149.46 36.88,-254.1 36.98,-254.99l117.53 13.75 -0.57 5.11c-10.68,95.89 -167.87,1522.61 -60.55,1555.49l-34.39 112.95c-88.59,-27.14 -105.03,-342.97 -95.02,-694.07 -32.02,108.55 -67.4,204.2 -105.65,271.86 -79.5,140.6 -367.49,223.1 -640.93,188.76 -96.19,-12.07 -191.56,-38.18 -276.28,-80.75 -86.95,-43.68 -162.6,-104.69 -216.77,-185.64 -121.03,-180.86 -132.25,-455.65 84.43,-849.16z"/>
   <path class="fil0" d="M8390.6 8208.9c-2.6,-0.35 -912.89,-129.42 -938.85,487.25 -6.71,159.45 39.42,274.53 115.28,348.37 54.54,53.09 125.27,85.98 203.25,99.5 80.25,13.92 168.1,7.37 254.34,-18.71 166.36,-50.31 325.22,-172.99 411.82,-361.38l107.22 49.45c-101.78,221.42 -288.85,365.7 -484.89,424.99 -103.65,31.35 -210.25,39.05 -308.67,21.98 -100.71,-17.46 -192.97,-60.84 -265.35,-131.3 -99.14,-96.49 -159.61,-241.7 -151.35,-437.88 31.45,-747.3 1069.8,-599.65 1072.78,-599.25l-15.58 116.98z"/>
   <path class="fil0" d="M8126.13 7144.62c0.93,2.34 165.17,411.14 255.98,926.5 50.95,-121.73 122.98,-257.13 196.25,-377.57 120.18,-197.64 252.32,-359.62 312.34,-369.1 9.42,-1.5 18.47,-1.35 27.13,0.48 47.19,10.02 63.05,41.09 52.68,90.5 -11.1,52.79 -78.94,158.41 -166.1,294.12 -124.83,194.37 -291.62,454.08 -370.85,670.09 23.51,72.22 109.89,112.21 209.22,158.16 127.19,58.82 271.88,125.79 369.64,279.63 191.44,301.23 -56.21,1069.95 -65.54,1098.59l-2.98 0 -109.72 -35.36c0.71,-2.12 243.13,-740.48 78.33,-999.82 -79.37,-124.87 -206.99,-183.93 -319.17,-235.82 -56.84,-26.29 -110.37,-51.07 -155.36,-81.28 16.55,380.31 -35.89,767.85 -234.58,1064.83l-120.58 180.23 12.57 -216.5c16.39,-282.42 58.27,-476.32 103.77,-687.05 26.09,-120.85 53.44,-247.37 77.53,-398.43 6.36,-39.91 17.14,-82.05 31.4,-125.69 -63.87,-625.63 -290.65,-1190.24 -291.71,-1192.95l109.75 -43.56zm127.02 2095.83c27.91,-94 46.78,-192.53 58.03,-293.49 -21.04,97.49 -41.15,191.91 -58.03,293.49z"/>
   <path class="fil0" d="M3051.21 8011.98c0.82,1.5 170.48,308.36 315.34,603.55 -3.08,-29.62 -5.94,-59.72 -8.52,-90.07 -33.49,-393.46 -12.48,-820.21 219.93,-839.98 57.33,-4.88 115.72,6.58 173.26,31.6 132.79,57.75 263.32,190.08 363.9,358.63 98.71,165.38 170.11,367.72 187.28,569.52 12.86,151.21 -4.7,302.42 -63.82,438.36l-108.25 -47.16c50.81,-116.85 65.77,-248.54 54.48,-381.32 -15.56,-182.85 -80.91,-367.28 -171.36,-518.83 -88.55,-148.39 -199.69,-263.24 -309.4,-310.95 -39.9,-17.35 -79.15,-25.41 -116.21,-22.25 -137.85,11.72 -140.88,375.72 -112.22,712.5 13.31,156.51 34.97,308.95 54.06,422.28 2.55,15.12 2.45,29.55 0.77,42.99 20.51,54.58 34.09,99.57 37.64,129.98 6.01,51.41 -13.26,78.25 -50.92,82.78l-0.23 -0.01c-13.87,1.64 -34.23,-21.61 -54.12,-64.42 -6.55,2.33 -11.29,1.45 -12.02,-4.76 -21.65,-184.87 -501.58,-1053.17 -502.95,-1055.66l103.36 -56.78z"/>
  </g>
  <path class="fil0" d="M6770.39 5493.74c5.78,-0.56 2777.41,-260.73 3187.94,-90.8l170.49 357.02c-364.3,-150.79 -3433.24,-57.29 -3438.88,-56.74l80.45 -209.48z"/>
  <path class="fil1 str0" d="M625.53 6459.16c0,653.32 1184.98,573.66 1184.98,0 0,-573.66 1298.44,-493.98 1298.44,0 0,493.97 1197.58,533.82 1197.58,0 0,-533.83 1285.84,-454.14 1285.84,0 0,454.13 1323.64,581.63 1323.64,0 0,-581.63 1311.04,-557.72 1311.04,0 0,557.71 1487.53,486.01 1487.53,0 0,-486.02 1323.64,-589.59 1323.64,0 0,589.59 1336.26,478.04 1336.26,0 0,-478.05 1420.41,-517.88 1420.41,0 0,517.88 1315.13,592.41 1315.13,0 0,-592.42 1487.51,-525.85 1487.51,0 0,525.84 1437.11,605.52 1437.11,0 0,-605.53 1298.44,-725.04 1298.44,0"/>
 </g>
</svg>
