<?xml version="1.0" encoding="UTF-8"?>
<!DOCTYPE svg PUBLIC "-//W3C//DTD SVG 1.1//EN" "http://www.w3.org/Graphics/SVG/1.1/DTD/svg11.dtd">
<!-- Creator: CorelDRAW 2019 (64-Bit) -->
<svg xmlns="http://www.w3.org/2000/svg" xml:space="preserve" width="100%" height="100%" version="1.1" style="shape-rendering:geometricPrecision; text-rendering:geometricPrecision; image-rendering:optimizeQuality; fill-rule:evenodd; clip-rule:evenodd"
viewBox="0 0 6600 6200"
 xmlns:xlink="http://www.w3.org/1999/xlink">
 <defs>
  <style type="text/css">
   <![CDATA[
    .fil0 {fill:#FEFEFE;fill-rule:nonzero}
    .fil1 {fill:#E63C24;fill-rule:nonzero}
   ]]>
  </style>
 </defs>
 <g id="Слой_x0020_1">
  <metadata id="CorelCorpID_0Corel-Layer"/>
  <g id="_290380027296">
   <g>
    <path class="fil0" d="M4165.43 5171.85c1,1.19 347.34,410.97 343.32,675.58 124.03,-55.28 294.32,-77.56 475.23,12.81 14.36,7.18 117.12,-72.71 131.6,-64.07l-173.62 210.57 -3.21 -28.76c-7.32,-4.37 21.42,-84.47 14.14,-88.41 -181.59,-98.36 -328.81,-56.95 -445.05,2.51l-1.12 0.58c-1.8,24.65 -5.13,52.58 -11.76,78.71 -11.83,46.66 -34.65,88.19 -78.61,100.93 -38.58,11.19 -66.56,10.2 -84.58,0.71 -32.44,-17.1 -28.36,-56.35 5.75,-100.24 25.28,-32.53 67.55,-69.37 122.34,-100.61 0.38,-7.69 0.63,-14.82 0.83,-21.17 7.76,-252.32 -334.42,-657.19 -335.4,-658.36l40.14 -20.78zm282.34 792.16c3.37,-13.32 5.84,-27.22 7.66,-40.89 -33.51,22.86 -59.71,47.29 -76.88,69.38 -19.73,25.39 -28.24,44.86 -20.12,49.14 5.43,2.86 18.7,1.76 41.41,-4.83 24.43,-7.08 39.01,-37.63 47.93,-72.8z"/>
    <path class="fil0" d="M4960.96 5268.64c0.61,1.24 167.99,466.47 118.34,776.12l-47.81 -4.74c48.14,-300.21 -160.7,-719.59 -161.3,-720.8l90.77 -50.58z"/>
    <path class="fil0" d="M4828.27 6098.23c1.42,-4.25 493.01,-1489.39 656.49,-737.14l-47.3 6.35c-125.69,-578.37 -561.47,736.55 -562.72,740.32l-46.47 -9.53z"/>
    <path class="fil0" d="M5025.77 5441.29c0.71,0.06 248.5,19.88 325.58,120.31l-41.06 19.49c-64.64,-84.21 -289.13,-102.24 -289.78,-102.29l5.26 -37.51z"/>
    <path class="fil0" d="M5272.9 5755.27c0.39,-0.11 32.5,-9.57 81.11,-26.2 -4.7,-11.25 -8.79,-22.8 -12.31,-34.61 -22.28,-74.79 -21.72,-159.72 -11.4,-235.11 12.68,-92.66 80.2,-152.02 163.73,-181.39 40.44,-14.21 84.57,-21.29 127.89,-21.63 43.42,-0.33 86.3,6.12 124.11,18.94 70.63,23.95 123.59,69.81 131.15,135.18 16.45,142.18 -284.63,273.54 -461.99,338.18 16.78,28.73 39.16,53.68 68.44,72.76 48.62,31.67 117.61,47.7 213.59,38.61 84.69,-8.01 189.54,-35.38 318.71,-88.26l22.13 33.51c-134.71,55.15 -245.06,83.79 -335.11,92.31 -110.46,10.46 -191.46,-9.02 -249.97,-47.14 -35.29,-23 -61.91,-52.57 -81.55,-86.27 -49.06,16.91 -81.23,26.38 -81.63,26.5l-16.9 -35.38zm125.19 -41.71c168.28,-60.79 445.04,-179.65 431.14,-299.8 -5.77,-49.85 -47.07,-85.13 -102.22,-103.84 -31.61,-10.72 -67.78,-16.1 -104.69,-15.82 -37.01,0.29 -74.55,6.28 -108.77,18.31 -69.07,24.29 -124.94,73.68 -135.54,151.08 -9.83,71.76 -10.46,152.24 10.42,222.33 2.82,9.46 6.03,18.72 9.66,27.74z"/>
    <path class="fil0" d="M4980.46 5091.31l0.04 -0.05c13.1,6.08 1.92,50.32 -14.9,72.74 -52.82,81.18 -93.58,81.63 -167.74,145.45 2.7,-36.54 -6.73,-76.29 -0.96,-81.68 25.01,-22.83 157.87,-148.25 183.56,-136.46zm-22.33 27.92c3.55,1.06 5.27,1.58 1.56,-0.14l0.01 -0.06c-0.35,-0.16 -0.88,-0.09 -1.57,0.2z"/>
   </g>
   <g>
    <path class="fil0" d="M970.96 5414.49c-151.22,-1.77 -244.01,58.34 -287.42,139.59 -19.37,36.25 -29.24,76.8 -30.36,118.11 -1.13,41.56 6.64,83.85 22.54,123.32 39,96.78 127.12,175.8 252.51,182.49 120.55,6.44 224.62,-79.23 278.59,-185.75 20.64,-40.76 33.85,-84.39 37.81,-127.06 3.91,-42.01 -1.11,-83 -16.79,-119.19 -32.33,-74.63 -112.38,-129.82 -256.88,-131.51zm-344.32 118.02c53,-99.2 164.67,-172.61 345.23,-170.5 175.39,2.05 273.74,71.76 314.6,166.09 18.82,43.47 24.92,91.96 20.35,141.14 -4.5,48.51 -19.37,97.8 -42.56,143.58 -63.4,125.14 -189.81,225.57 -339.87,217.56 -154.05,-8.23 -261.22,-102.59 -307.74,-218.02 -18.2,-45.17 -27.09,-93.71 -25.79,-141.55 1.31,-48.09 12.94,-95.55 35.78,-138.3z"/>
    <path class="fil0" d="M1367.78 6236.09c-2.65,-3.33 -940.16,-1165.43 90.81,-1005.4l45.17 68.08 -56.32 -16.38c-883.67,-137.16 -30.22,921.41 -27.8,924.44l-51.86 29.26z"/>
    <path class="fil0" d="M943.43 5762.37c1.38,-0.56 463.29,-216.13 500.56,-214.81l-34.57 65.43c-21.53,-0.76 -486.81,189.74 -488.14,190.28l22.15 -40.9z"/>
    <path class="fil0" d="M1977.42 5234.46c-0.92,0.74 -323.33,258.65 -165.76,367.12 25.19,17.35 53.26,22.05 82.1,17.64 41.88,-6.4 86.57,-31 128.5,-64.81 43.9,-35.38 84.02,-80.33 114.92,-125.44 14.97,-21.86 27.8,-43.48 37.8,-63.73 -17.38,-113.6 -24.84,-169.22 3.01,-179.73 26.39,-9.97 47.43,11.53 73.08,59.67 15.36,28.83 9.06,74.25 -12.38,124.73l0.27 1.66c4.03,26.31 8.61,56.17 14.87,98.08 4.64,31.11 8.5,55.02 12.3,78.55l0.12 0c5.85,36.26 11.58,71.84 16.32,106.45 52.04,-12.66 139.38,-14.33 173.03,-13.14l-44.71 47.26c-29.92,-1.06 -72.26,6.07 -121.88,18.72 17.47,168.27 -1.74,307.51 -170.2,376.86 -121.37,49.97 -260.95,30.55 -365.64,-5.58 -43.71,-15.08 -81.65,-33.23 -109.67,-50.45 -31.75,-19.5 -52.63,-39.85 -57.86,-56.02 -3.64,-11.28 -1.96,-21.63 5.54,-30.7l0.12 0.01c18.6,-22.46 251.06,-135.86 469.75,-216.74 55.27,-20.44 110,-39.02 160.7,-53.84 -4.87,-37.35 -11.11,-76.12 -17.51,-115.76l0.12 -0.01c-4.58,-28.42 -9.22,-57.17 -12.5,-79.16l-2.71 -18.01c-33.47,48.28 -76.58,96.27 -123.77,134.3 -50.11,40.39 -105.54,70.09 -160.5,78.5 -46.48,7.11 -91.8,-0.56 -132.68,-28.7 -212.65,-146.39 176.3,-431.41 177.36,-432.27l27.86 24.54zm223.62 8.23c5.99,-7.84 11.59,-12.78 2.45,-9.33 -3.2,1.21 -3.72,4.2 -2.45,9.33zm-109.71 794.36c130.14,-53.58 149.18,-169.49 136.4,-312.33 -44.63,13.55 -92.79,30.1 -141.69,48.19 -191.92,70.98 -390.58,162.86 -435.18,192.11 5.68,5.31 15.78,12.53 29.49,20.95 24.26,14.91 57.59,30.78 96.54,44.22 91.4,31.54 212.13,48.98 314.44,6.86z"/>
    <path class="fil0" d="M2362.13 5316.73c164.87,0.6 256.22,50.94 295.22,124.19 20.56,38.61 25.78,83.02 19.01,129.38 -6.53,44.76 -24.27,91.52 -50.06,136.56 -81.29,142 -245.65,269.51 -393.75,266.44 -128.14,-2.66 -218.43,-83.23 -258.07,-187.58 -15.88,-41.79 -23.58,-87.63 -22.19,-133.74 1.39,-46.16 11.89,-92.54 32.39,-135.37 53.73,-112.22 174.47,-200.62 377.45,-199.88zm238.12 145.64c-29.23,-54.9 -102.56,-92.65 -238.54,-93.14 -172.26,-0.63 -274.17,73.2 -319.04,166.94 -17.77,37.1 -26.86,77.25 -28.06,117.19 -1.21,39.98 5.52,79.86 19.38,116.34 31.98,84.18 102.26,149.11 200.21,151.15 122.91,2.54 263.59,-110.74 335.75,-236.78 22.95,-40.09 38.68,-81.24 44.34,-120.08 5.44,-37.25 1.63,-72.2 -14.04,-101.62z"/>
    <path class="fil0" d="M2827.85 5340.56c-1.28,0.78 -434.23,254.19 -199.06,415.39 71.32,48.89 155.83,66.84 238.07,62.97 70.24,-3.31 138.93,-22.43 196.65,-51.81 56.95,-28.98 102.75,-67.67 128.16,-110.6 12.36,-20.87 19.83,-42.8 21.25,-65.1 -2.21,-14.43 -4.68,-27.85 -7.17,-39.92 -2.2,-10.66 -4.36,-20.13 -6.37,-28.3 -5.68,-16.8 -8.98,-27.69 -10.46,-33.3l-6.92 -26.55c-59.97,-199.63 -79.03,-307.9 -72.51,-335.21 -2.57,-36.41 7.84,-29.63 31.28,26.38 25.18,49.01 62.48,151.17 102.79,300.29l9.24 29.84c1.92,6.24 4.31,14.61 6.87,24.62l6.37 18.38c7.32,20.75 10.35,41.49 9.59,61.95 16.65,113.72 17.14,283.79 -92.81,385.15l-46.18 -35.4c61.44,-56.65 82.01,-141.72 84.58,-222.83 -31.45,37.04 -74.85,69.84 -125.46,95.6 -65.96,33.57 -144.68,55.43 -225.41,59.24 -96.88,4.56 -196.59,-16.71 -281.03,-74.58 -298.86,-204.85 239.83,-528.94 241.29,-529.83l-2.76 73.62z"/>
    <path class="fil0" d="M3327.7 5426.32c0.28,0.47 36.44,60.23 82.06,141.36 7.1,-92.98 41.56,-174.91 124.53,-214.7 62.7,-30.07 116.53,-38.57 161.38,-32.06 42.73,6.21 76.45,25.49 101.56,52.72 23.61,25.6 39.35,58.25 47.56,93.24 15.36,65.53 4.22,140.98 -31.21,193.63l-58.28 -55.4c28.32,-42.07 40.98,-73.94 28.3,-128.04 -6.39,-27.29 -18.23,-52.28 -35.68,-71.2 -15.96,-17.3 -36.82,-29.47 -62.67,-33.22 -31.41,-4.56 -71.23,2.4 -120.22,25.9 -93.72,44.94 -106.48,168.56 -89.05,290.68 63.68,121.21 122.8,249.21 118.41,299.43 -1.15,13.27 -6.34,22.78 -14.82,28.76 -26.56,18.68 -56.58,-0.39 -81.55,-47.71 -15.2,-28.8 -32.62,-70.69 -48.02,-119.14 -14.28,-44.95 -26.8,-95.74 -34.3,-147.56 -69.1,-129.5 -143.34,-252.26 -143.74,-252.93l55.74 -23.76z"/>
   </g>
   <g>
    <path class="fil0" d="M1256.92 4002.59c-0.37,0.35 -59.81,17.7 -76.4,2.93 -4.44,-3.95 25.16,-97.27 19.55,-101.41 -53.93,-39.79 -178.75,-105.21 -348.92,-57.79 -93.82,26.14 -169.85,73.71 -207.61,125.6 -16.35,22.47 -25,45.46 -23.9,67.17 1.05,20.6 11.28,40.81 32.61,59.14 43.11,37.05 127.69,66.39 266.56,78.58 251.92,22.08 445.55,41.16 565.82,92.37 133.15,56.68 179.67,146.94 119.39,308.37 -12.48,33.4 -31.99,61 -57,83.58 -80.39,72.55 -215.75,90.68 -355.38,83.25 -134.49,-7.15 -273.51,-37.77 -367.85,-65.28 -32.24,-9.4 -40.89,-11.68 -62.32,-20.1 -13.07,-5.13 -16.19,172.69 -13.65,195.74 2.23,20.29 -110.82,-39.51 -107.15,-64.04 24.02,-160.43 16.07,-267.37 64.11,-421.53 6.83,-21.93 75.17,5.34 79.43,27.76 13.25,69.76 -22.27,121.15 -28.06,191.7 -0.58,6.98 32.46,16.25 88.97,32.72 90.49,26.38 223.28,55.73 350.47,62.5 122.05,6.49 238.28,-7.49 302.28,-65.25 17.85,-16.11 31.81,-35.9 40.77,-59.89 46.59,-124.75 13.52,-193.27 -83.82,-234.71 -110.19,-46.91 -297.94,-65.3 -542.65,-86.76 -155.87,-13.67 -254.22,-49.55 -307.77,-95.57 -20.19,-17.36 -34.33,-36.11 -43.02,-55.72l0 -103.37c5.9,-14.73 14.13,-29.29 24.46,-43.5 45.97,-63.18 135.64,-120.27 244.63,-150.64 224.57,-62.58 359.31,23.79 416.26,75.78 3.16,2.88 41.28,-58.59 53.47,-63.26 21.13,-8.11 55.7,41.23 55.62,41.36 -32.96,53.43 -54.92,118.18 -98.9,160.27z"/>
    <path class="fil0" d="M1742.67 4171.41c-159.4,4.5 -248.26,57.22 -283.23,123.33 -15.93,30.12 -20.94,63.22 -16.53,95.79 4.48,33.14 18.66,65.79 40.99,94.37 50.27,64.35 142.16,107.45 258.03,88.6 79.56,-12.95 142.62,-82.5 170.91,-160.92 11.46,-31.8 17,-65.07 15.42,-96.66 -1.51,-30.18 -9.6,-58.36 -25.34,-81.45 -26.84,-39.35 -78.1,-65.38 -160.25,-63.06zm-345.58 97.69c45.1,-85.27 153.65,-153.08 343.63,-158.45 110.72,-3.13 181.87,34.98 221.07,92.46 22.05,32.34 33.3,70.35 35.29,110.13 1.92,38.36 -4.85,78.87 -18.86,117.72 -35.23,97.68 -117.53,184.92 -224.05,202.25 -146.05,23.77 -262.59,-31.49 -326.87,-113.76 -28.6,-36.62 -46.81,-78.71 -52.62,-121.7 -5.89,-43.55 0.91,-87.99 22.41,-128.65z"/>
    <path class="fil0" d="M2112.86 3941.9c-0.34,0.58 -68.73,44.32 -111.31,135.46 -88.89,190.27 -193.18,488.75 7.17,523.5 33.68,5.84 64.73,4.61 93.26,-2.26 84.36,-20.31 152.09,-89.95 203.31,-173.63 11.31,-18.48 21.79,-37.62 31.45,-57.07 -10.47,-98.37 5.52,-196.52 27.06,-265.2 9.62,-30.68 20.51,-56.05 30.82,-73.46 17.95,-30.32 41.08,-43.89 65.76,-36.35 14.06,4.29 24.13,14.34 29.17,30.67 7.26,23.55 4.02,77.95 -10.75,144.44 -13.85,62.34 -37.7,137.59 -72.16,210.18 9.08,64.9 31.76,128.32 75.6,179.36l-54.81 36.75c-32.6,-37.95 -55.15,-81.36 -69.98,-127.02 -58.36,90.7 -136.76,165.58 -237.52,189.83 -38.76,9.33 -80.2,11.12 -124.29,3.48 -387.28,-67.16 25.55,-766.99 26.72,-769.01l90.5 50.33z"/>
    <path class="fil0" d="M3399.6 4110.94c-155.68,-20.04 -471.71,-25.85 -542.96,240.13 -24.38,91.02 7.77,155.45 66.35,192.04 41.06,25.64 95.08,38.67 152.33,38.55 58.35,-0.13 119.67,-13.94 174.06,-41.98 107.39,-55.36 187.3,-167.29 163.03,-340.6 -4.21,-30.09 -8.49,-59.47 -12.81,-88.14zm-609.91 226.22c81.08,-302.68 419.66,-308.33 600.31,-288.43 -28.6,-181.03 -58.01,-330.81 -80.75,-446.55 -31.6,-160.89 -50.69,-258.06 -35.53,-293.22 8.78,-20.44 24.27,-26.69 46.18,-19.36l0 0.12c27.02,9.08 47.32,119.57 76.01,275.83 26.35,143.55 60.41,329.08 98.58,499.72 6.54,1.41 10.14,2.29 10.27,2.32l-5.6 18.38c51.91,228.41 111.02,425.53 168.47,451.79l-31.4 54.04c-54.97,-25.12 -106.14,-143.3 -151.85,-298.25 -10.95,145.38 -94.63,244.1 -200.33,298.59 -65.05,33.53 -138.58,50.06 -208.66,50.21 -71.17,0.15 -139.19,-16.59 -191.94,-49.55 -80.69,-50.4 -125.67,-136.52 -93.76,-255.64z"/>
    <path class="fil0" d="M3768.27 3439.43c-0.12,0.84 -9.65,70.76 -23.6,177.53 11.72,-6.29 22.46,-11.89 32.38,-16.87 63.61,-31.95 96.06,-40.21 133.67,-42.95 115.76,-8.43 58.43,159.23 58.28,159.71l-19.87 -49.05c0.08,-0.24 -18.52,-51.07 -32.95,-50.01 -27.49,2 -52.56,8.71 -105.29,35.2 -20.92,10.51 -45.81,23.94 -76.24,41.07 -13.94,108.15 -30.5,239.72 -46.19,372.28 34.72,164.04 28.25,355.89 9.62,494.74 -7.49,55.84 -17.02,103.62 -26.63,137.72 -13.46,47.75 -34.75,75.09 -60.34,74.25 -14.95,-0.46 -26.56,-7.11 -34.4,-20.31 -23.13,-39.01 7.44,-367.44 43.91,-686.96 -24.01,-108.36 -67.98,-199.8 -142,-244.72l-41.67 -25.29 41.9 -24.92c79.59,-47.33 141.73,-83.97 191.33,-112.37 17.17,-133.99 29.6,-225.15 29.73,-226.11l68.36 7.06zm-129.8 474.18c7.46,-62.06 14.84,-121.77 21.77,-176.8 -30.73,17.92 -39.19,37.66 -78.92,61.22 34.2,30.19 35.31,70.24 57.15,115.58z"/>
    <path class="fil0" d="M3883.22 3818.06c0.13,0.66 13.83,67.02 33.33,164.32 0.28,-17.55 1.29,-29.73 3.18,-35.07 8.58,-24.29 84.52,-83.6 179.24,-115.34 47.53,-15.93 100.79,-26.16 154.04,-23.42 55.12,2.84 109.58,19.43 157.01,57.44 70.06,56.15 123.4,159.16 136.79,334.83l-68.6 3.87c-12.03,-157.74 -56.41,-247.42 -114.23,-293.77 -34.51,-27.66 -74.41,-39.74 -114.93,-41.83 -42.42,-2.18 -86.15,6.4 -125.84,19.71 -75.78,25.39 -133.11,63.13 -137.8,76.42 -10.36,29.3 17.76,369.63 40.05,595.32 14.68,87.97 24.52,157.84 25,189.34 0.13,8.17 -0.12,13.79 -0.69,17.02l-0.01 0.13c-19.44,109.51 -37.68,129.63 -54.23,75.22 -13.58,-1.96 -22.78,-24.09 -15.36,-74.57 -1.72,-11.23 -3.42,-23.34 -5.1,-36.29 -3.45,-26.65 -7.85,-65.84 -12.66,-112.5 -1.74,-16.86 -3.54,-34.76 -5.36,-53.42 -46.19,-275.38 -141.06,-734.86 -141.42,-736.59l67.59 -10.82z"/>
    <path class="fil0" d="M4941.03 4253.17c-35.72,-66.8 -301.71,-526.58 -613.74,-25.94 -111.25,178.5 -109.29,298.14 -52.3,373.37 24.43,32.27 59.33,56.93 99.84,74.9 41.79,18.56 89.61,30.02 138.34,35.42 134.11,14.88 271.02,-14.1 304.51,-66.44 51.6,-80.63 94.45,-249.94 123.35,-391.31zm-674.04 -55.08c312.43,-501.28 585.69,-202.52 692.81,-42.81 13.82,-76.79 21.44,-130.56 21.51,-131.02l68.35 7.06 -0.33 2.63c-6.21,49.27 -97.64,782.37 -35.22,799.26l-20 58.04c-51.52,-13.94 -61.08,-176.23 -55.26,-356.64 -18.62,55.78 -39.2,104.93 -61.45,139.7 -46.23,72.24 -213.73,114.63 -372.76,96.99 -55.94,-6.21 -111.41,-19.62 -160.68,-41.49 -50.57,-22.45 -94.57,-53.8 -126.07,-95.39 -70.39,-92.94 -76.92,-234.13 49.1,-436.33z"/>
    <path class="fil0" d="M5415.8 4155.53c-1.52,-0.18 -530.93,-66.5 -546.03,250.36 -3.9,81.93 22.92,141.06 67.04,179.01 31.73,27.28 72.86,44.18 118.21,51.13 46.68,7.15 97.77,3.78 147.92,-9.62 96.76,-25.85 189.15,-88.89 239.51,-185.69l62.36 25.41c-59.19,113.77 -167.99,187.91 -282.01,218.38 -60.28,16.1 -122.28,20.06 -179.52,11.29 -58.57,-8.97 -112.22,-31.27 -154.32,-67.47 -57.66,-49.58 -92.83,-124.19 -88.03,-225 18.3,-383.98 622.19,-308.12 623.93,-307.91l-9.06 60.11z"/>
    <path class="fil0" d="M5261.98 3608.67c0.54,1.2 96.06,211.25 148.88,476.06 29.63,-62.54 71.52,-132.12 114.14,-194 69.89,-101.56 146.74,-184.79 181.65,-189.66 5.48,-0.77 10.74,-0.69 15.78,0.25 27.44,5.15 36.66,21.11 30.64,46.5 -6.46,27.13 -45.91,81.4 -96.6,151.13 -72.6,99.87 -169.61,233.32 -215.69,344.31 13.67,37.11 63.91,57.66 121.68,81.27 73.97,30.22 158.12,64.63 214.98,143.68 111.34,154.78 -32.69,549.78 -38.12,564.49l-1.73 0 -63.81 -18.16c0.41,-1.09 141.4,-380.49 45.55,-513.74 -46.15,-64.17 -120.38,-94.52 -185.62,-121.18 -33.06,-13.51 -64.19,-26.24 -90.36,-41.76 9.63,195.41 -20.87,394.54 -136.43,547.14l-70.13 92.61 7.31 -111.24c9.54,-145.12 33.89,-244.76 60.35,-353.03 15.18,-62.1 31.08,-127.11 45.09,-204.73 3.71,-20.5 9.97,-42.16 18.26,-64.58 -37.14,-321.47 -169.03,-611.59 -169.65,-612.98l63.83 -22.38zm73.88 1076.9c16.23,-48.3 27.2,-98.93 33.74,-150.8 -12.23,50.09 -23.93,98.61 -33.74,150.8z"/>
    <path class="fil0" d="M2310.44 4054.34c0.48,0.78 99.16,158.45 183.4,310.13 -1.79,-15.22 -3.45,-30.69 -4.95,-46.28 -19.48,-202.18 -7.26,-421.45 127.91,-431.61 33.34,-2.51 67.3,3.38 100.76,16.24 77.24,29.67 153.15,97.66 211.65,184.27 57.4,84.98 98.93,188.95 108.92,292.64 7.48,77.7 -2.74,155.39 -37.12,225.25l-62.96 -24.24c29.55,-60.04 38.25,-127.71 31.69,-195.94 -9.05,-93.95 -47.06,-188.71 -99.66,-266.59 -51.5,-76.24 -116.14,-135.26 -179.95,-159.77 -23.21,-8.92 -46.03,-13.05 -67.59,-11.44 -80.17,6.03 -81.93,193.06 -65.26,366.11 7.74,80.42 20.33,158.75 31.44,216.98 1.48,7.77 1.43,15.19 0.44,22.09 11.94,28.05 19.83,51.16 21.9,66.79 3.49,26.42 -7.71,40.21 -29.61,42.54l-0.14 -0.01c-8.07,0.84 -19.91,-11.11 -31.48,-33.1 -3.81,1.2 -6.56,0.74 -6.99,-2.45 -12.59,-94.99 -291.71,-541.15 -292.51,-542.43l60.11 -29.18z"/>
   </g>
  </g>
  <g id="_290380027232">
   <path class="fil0" d="M132.75 995.55c0.05,1.89 8.47,308.73 73.43,690.14 6.78,-117.68 85.2,-312.27 198.54,-454.96 67.06,-84.42 146.42,-153.24 230.25,-180.57 87.91,-28.65 179.47,-12.56 265.86,76.07 161.64,165.81 303.28,598.94 355.99,1506.9l-83.53 8.29c-50.56,-871.02 -178.66,-1278.54 -323.55,-1427.18 -63.51,-65.15 -130.69,-77.02 -195.12,-56.01 -68.51,22.33 -135.17,80.82 -192.58,153.1 -114.38,144 -192.04,332.19 -172.85,394.77 5.61,18.3 12.05,46.12 20.69,83.44 40.08,173.29 131.13,566.76 427.49,1171.6l123.23 251.5 -182.85 -176.13c-588.4,-566.78 -628.4,-2032.38 -628.53,-2036.61l83.53 -4.35zm109.02 877.26c48.09,228 117.12,468.27 216.04,678.13 -124.88,-314.15 -183.62,-541.17 -216.04,-678.13z"/>
   <path class="fil0" d="M695.97 2336.65c0.68,-0.39 47.37,-26.29 121.36,-70.03 -23.54,-41.66 -39.88,-89.4 -47.66,-143.76 -31.57,-220.53 83.81,-446.3 252.37,-626.22 98.43,-105.06 215.32,-195.2 330.67,-259.07 116.6,-64.57 232.81,-102.77 328.44,-103.18 101.89,-0.44 214.46,90.91 253.58,188.05 123.55,306.8 -583.77,733.87 -962.73,971.63 73.29,51.06 173.49,79.25 285.35,90.34 168.19,16.67 360.56,-6.22 529.89,-49.12 189.16,-47.93 388.99,-230.73 448.44,-297.95l12.14 196.46c-69.86,78.99 -242.66,159.55 -445.19,210.86 -175.8,44.54 -375.93,68.26 -551.51,50.85 -148.3,-14.7 -280.46,-59.25 -369.49,-145.71 -92.48,56.01 -152.44,89.22 -153.24,89.68l-32.42 -102.83zm200.44 -117.41c349.91,-212.4 1026.64,-660.09 932.57,-893.69 -22.57,-56.05 -76.71,-80.36 -147.83,-80.06 -84.1,0.37 -189.08,35.5 -296.34,94.9 -108.52,60.09 -218.24,144.63 -310.36,242.95 -146.31,156.17 -247.46,345.09 -222.56,519.04 6,41.94 19.69,78.3 39.66,109.55l4.86 7.31z"/>
  </g>
  <g id="_290380024448">
   <path class="fil0" d="M3451.85 207.97c-11.86,-3.05 -10.74,33.23 -21.4,39.5 -57.41,33.8 -116.77,128.35 -153.29,313.05 -38.3,193.66 -62.76,444.46 -74.47,711.59 -31.59,720 26.5,1553.76 154.15,1699.49 16.84,19.22 33.44,31 49.63,36.43 30.89,10.37 64.64,-2.52 98.52,-30.71 39.78,-33.1 78.72,-86.3 114.01,-149.47 81.76,-146.38 140.68,-341.23 145.72,-467.07 3.51,-87.86 21.75,-122.64 51.42,-120.54 15.1,1.07 26.6,15.03 36,38.05 2.37,-220.46 15.02,-459.71 38.55,-681.13 34.72,-326.74 129.77,-599.57 105.95,-874.76l138.87 165.47c-78.52,126.88 -133.89,404.32 -167.45,720.17 -41.21,387.9 -48.65,831.04 -25.5,1127.42l26.78 342.68 -102.53 -328.96c-16.97,-54.47 -32.52,-145.14 -46.28,-232.19 -26.52,116.01 -74.64,246.95 -133.98,353.18 -39.43,70.6 -84.42,131.27 -132.26,171.08 -53.72,44.7 -111.27,63.77 -169.82,44.12 -29.19,-9.79 -57.52,-29.22 -84.39,-59.9 -140.73,-160.66 -207.29,-1022.19 -174.96,-1759.17 11.89,-271.26 36.81,-526.35 75.88,-723.9 40.84,-206.51 99.26,-354.16 177.48,-400.2 28.08,-16.54 58.06,-21.42 89.96,-13.22l-16.59 78.99zm361.04 2113.48c-10.03,-0.71 -2.29,2.94 7.81,10.56 -0.27,-6.47 -2.39,-10.18 -7.81,-10.56z"/>
   <path class="fil0" d="M3440.67 1003.5l-22.28 -78.13c28.38,99.63 55.13,193.46 81.42,282.38 11.41,-106.49 54.89,-204.05 138.46,-293.87 62.95,-67.67 132.95,-92.58 205.31,-83.1 63.18,8.28 127.23,43.16 188.96,98.72 59.8,53.82 117.7,127.08 170.58,214.14 31.79,52.34 61.92,109.92 89.68,171.47 42.44,-359.55 155.3,-653.04 397.81,-603.33 103.64,21.24 179.4,77.02 233.03,156.39 55,81.39 85.61,186.48 98.51,303.71 12.4,112.6 8.31,236.32 -6.05,360.32 -44.48,384 -191.48,781.67 -248.27,849.58l-56.05 -82.95c49.62,-59.34 179.97,-423.29 221.68,-783.39 13.23,-114.22 17.14,-226.97 6.06,-327.6 -10.57,-96 -34.93,-181.01 -78.23,-245.11 -41.2,-60.98 -100.68,-104.1 -183.27,-121.02 -180.99,-37.1 -268.15,212.7 -303.24,515.67 -5.76,49.8 -10.12,100.98 -13.25,152.62 78.22,230.58 121.85,494.19 103.54,741.29 -10.35,139.66 -39.69,196.44 -77.87,191.42 -43.22,-5.67 -86.71,-171.04 -103.95,-398.94 -11.44,-151.29 -15.94,-334.05 -6.65,-513.65 -39.01,-109.54 -86.39,-210.52 -138.6,-296.48 -47.96,-78.96 -99.62,-144.64 -152.12,-191.89 -50.56,-45.5 -101.61,-73.89 -150.34,-80.27 -50.72,-6.65 -100.03,11.06 -144.65,59.02 -214.8,230.88 -77.26,557.97 190.32,998.49 70.53,116.1 148.2,237.13 230.65,365.62l259.01 403.66 -285.07 -275.32c-428.14,-413.49 -548.48,-835.84 -745.74,-1528.18l-0.45 -1.56 101.06 40.29zm941.96 1205.68c8.65,-132.04 -1.77,-269.12 -26.35,-402.38 1.71,72.52 5.25,142.07 10.07,205.83 5.88,77.67 11.51,145.3 16.28,196.55zm12.61 102.83c6.17,0.81 1.33,-6.87 -4.26,-22.87 1.88,14.73 3.33,22.76 4.26,22.87z"/>
   <path class="fil0" d="M4561.19 1799.16c0.36,0 16.33,-0.2 43.95,-2.04 -2.6,-26.07 -4.45,-52.16 -5.54,-78.2 -12.49,-295.88 235.32,-701.18 483.72,-910.85 69.46,-58.62 139.5,-102.67 204.59,-125.66 69.38,-24.5 133.97,-25.24 187.97,5 80.2,44.92 132.87,152.63 138.05,343.99 18.11,669.13 -616.76,828.99 -908.51,867.14 9.16,45.48 21.05,90.16 35.74,133.29 44,129.18 113.32,244.16 209.77,323.82 97.04,80.16 222.23,125.01 377.68,113.39 136.43,-10.19 295.94,-63.8 480.01,-174.76l34.31 101.47c-193.91,116.9 -363.52,173.49 -509.91,184.42 -173.92,13 -315.38,-38.34 -426.23,-129.9 -111.44,-92.06 -191.36,-224.39 -241.91,-372.8 -18.69,-54.86 -33.36,-111.97 -44.1,-170.04 -36.58,2.83 -58.04,3.07 -58.47,3.08l-1.12 -111.35zm127.55 -10.02c266.66,-32.48 857.53,-170.29 841.74,-754.04 -3.82,-141.07 -36.91,-217.26 -86.91,-245.26 -35.82,-20.06 -82.24,-18.31 -134.39,0.1 -56.44,19.94 -118.51,59.27 -181.08,112.07 -227.95,192.4 -455.78,554.66 -444.96,811.05 1.07,25.33 2.93,50.74 5.6,76.08z"/>
   <path class="fil0" d="M5659.25 483.32c-1.4,5.38 -573.09,1807.48 166.67,2083.21 98.87,36.84 181.46,37.98 250.22,12.14 61.29,-23.05 112.39,-68.33 154.83,-129.34 -46.08,-509.19 -0.66,-983.04 54.37,-1258.04 16.22,-81.07 33.58,-146.16 49.97,-190.97 23.9,-65.41 53.16,-97.92 84.14,-91.65 16.97,3.45 30.63,16.28 40.47,38.94 25.73,59.36 62.21,397.21 41.96,754.88 -11.69,206.4 -41.56,422.2 -101.94,599.86 -22.69,66.76 -49.65,128.24 -81.5,182.08 13.11,128.27 170.34,511.27 197.11,640.69l-218.54 -223.57c-21.87,-105.72 -38.87,-211.97 -51.73,-317.33 -42.28,45.82 -90.86,80.71 -146.54,101.64 -82.83,31.14 -180.43,30.48 -295.14,-12.27 -826.61,-308.1 -189.5,-2369.27 -188.02,-2374.96l43.67 184.69zm644.91 1826.39c6.86,-17.12 13.38,-34.77 19.54,-52.9 55.97,-164.71 83.81,-367.46 94.85,-562.4 14.79,-261.06 0.81,-503.18 -16.17,-621.78 -11.72,37.06 -24.09,86.69 -36.18,147.07 -48.61,242.91 -89.46,646.49 -62.04,1090.01z"/>
  </g>
  <path class="fil0" d="M2202.97 2642.87c2,-0.25 961.11,-120.01 1103.17,-41.79l59 164.34c-126.07,-69.41 -1188.05,-26.37 -1190.01,-26.12l27.84 -96.43z"/>
  <path class="fil1" d="M151.58 3102.9c0,54.95 28.18,87.9 64.9,101.64 17.17,6.42 36.39,9.44 56.02,9.23 19.55,-0.21 39.63,-3.91 58.61,-10.88 43.27,-15.9 77.72,-50.37 77.72,-99.99 0,-119.81 76.86,-191.35 177.28,-221.27 35.18,-10.48 73.7,-15.35 112.47,-14.97 38.1,0.39 76.49,5.94 112.1,16.34 108.09,31.55 194.37,106.79 194.37,219.9 0,34.44 31.91,59.04 72.28,71.34 19.86,6.04 41.48,9.19 63.1,9.3 21.31,0.11 42.41,-2.73 61.56,-8.62 36.45,-11.22 64.64,-35.13 64.64,-72.02 0,-114.68 76.64,-182.49 176.91,-210.47 34.61,-9.64 72.3,-14.13 110.05,-13.74 37.27,0.38 74.97,5.53 110.09,15.11 108.29,29.54 194.85,101.17 194.85,209.1 0,31.06 41.73,57.01 93.29,71.41 24.23,6.76 50.01,10.53 75.27,10.93 24.58,0.39 48.5,-2.32 69.7,-8.44l0.29 0c37.78,-10.9 66.34,-34.75 66.34,-73.9 0,-122.32 80.36,-198.23 183.82,-230.35 35.94,-11.16 74.95,-16.65 113.91,-16.53 39.1,0.11 78.24,5.8 114.31,16.94 105.56,32.59 188.53,109.57 188.53,229.94 0,36.73 37.15,61.11 85.58,73.4 26.79,6.8 55.91,9.99 84.99,9.76 29.63,-0.23 59.75,-3.97 87.94,-10.99 57.15,-14.23 102.7,-39.83 102.7,-72.17 0,-112.57 88.87,-188.91 199.55,-220.89 36.29,-10.49 75.23,-16.2 113.76,-16.69 39.26,-0.5 78.28,4.33 113.97,14.91 100.87,29.92 177.62,101.46 177.62,222.67 0,41.17 30.13,66.5 69.8,78.1 21.78,6.37 46.17,9.25 71.1,8.91 24.93,-0.34 50.68,-4.15 75.16,-11.11 51.62,-14.68 93.17,-41.91 93.17,-75.9 0,-111.54 91.05,-182.37 206.25,-211.04 37.09,-9.22 77.44,-14.03 117.8,-14.21 40.69,-0.19 81.06,4.27 117.85,13.52 110.7,27.85 196.25,96.81 196.25,211.73 0,38.92 38.8,67.71 87.52,82.3 23.32,6.99 48.06,10.71 72.22,10.93 24.29,0.23 48.11,-2.84 69.46,-9.35 41.18,-12.56 72.77,-40.06 72.77,-83.88 0,-124.1 86.45,-198.23 198.93,-228.74l0.29 0c38.54,-10.45 80.85,-15.39 123.49,-15.08 42.65,0.32 85.17,5.81 124.19,16.22 119.43,32.02 214.31,109.19 214.31,227.6 0,39.61 44.16,69.44 99.54,84.92 26.3,7.34 54.5,11.27 82.35,11.51 27.14,0.25 54.24,-3.07 79.11,-10.15 46.93,-13.36 82.89,-41.74 82.89,-86.28 0,-127.86 85.15,-216.12 191.37,-254.8 36.91,-13.44 76.84,-20.73 116.62,-21.32 40.08,-0.6 80.24,5.74 117.27,19.56 97.02,36.21 170.97,119.22 170.97,256.56l-150 0c0,-63.58 -31.63,-101.04 -73.11,-116.52 -19.32,-7.21 -41.07,-10.51 -63.37,-10.18 -22.62,0.34 -45.7,4.62 -67.4,12.52 -51.26,18.67 -92.35,58.55 -92.35,114.18 0,124.95 -83.24,199.48 -191.87,230.42 -37.82,10.77 -79.38,15.81 -121.31,15.43 -41.22,-0.36 -82.66,-6.08 -121.01,-16.79 -116.68,-32.61 -209.7,-110.79 -209.7,-229.06 0,-38.59 -45.48,-67.62 -102.69,-82.88l-0.3 0c-27.75,-7.4 -57.23,-11.31 -86.09,-11.52 -28.76,-0.2 -57.52,3.18 -83.96,10.31 -49.84,13.59 -88.17,41.43 -88.17,84.09 0,122.27 -77.87,195.86 -179.41,226.84 -36.04,10.99 -75.08,16.17 -114,15.81 -39.06,-0.37 -78.05,-6.07 -113.82,-16.79 -108.4,-32.47 -194.74,-109.54 -194.74,-225.86 0,-32.3 -36,-54.69 -82.57,-66.41 -25.62,-6.44 -53.34,-9.54 -80.95,-9.42 -27.94,0.13 -56.24,3.55 -82.64,10.11 -51.38,12.78 -91.99,35.82 -91.99,65.72 0,111.86 -90.15,188.19 -202.15,220.04 -36,10.23 -75.18,15.86 -114.42,16.39 -39.25,0.53 -78.45,-4.23 -114.46,-14.77 -101.29,-29.63 -178.2,-100.65 -178.2,-221.66 0,-41.64 -30.17,-67.36 -69.8,-79.11 -21.68,-6.43 -45.68,-9.36 -70.03,-9.05 -25.07,0.32 -50.39,4.03 -73.92,10.83 -50.55,14.6 -91.15,42.17 -91.15,77.33 0,113.47 -96.21,187.43 -216.96,217.49 -38.68,9.63 -80.63,14.77 -122.5,15.09 -42.42,0.34 -84.38,-4.19 -122.49,-13.86 -112.79,-28.62 -199.26,-99.19 -199.26,-218.72 0,-43.12 -36.31,-72.73 -82.47,-86.98 -22.31,-6.89 -46.42,-10.42 -70.37,-10.48 -24.09,-0.07 -48.07,3.27 -69.97,10.07 -43.76,13.59 -77.76,42.75 -77.76,87.39 0,119.19 -75.31,188.5 -175.05,217.38 -35.75,10.41 -74.67,15 -113.62,14.38 -38.27,-0.61 -76.88,-6.19 -112.77,-16.21 -112.46,-31.41 -203.45,-106.85 -203.45,-215.55 0,-29.08 -37.37,-52.21 -84.11,-64.96 -22.83,-6.23 -47.5,-9.58 -72.01,-9.83 -24.02,-0.24 -47.69,2.51 -69.03,8.46 -37.83,10.55 -66.75,32.38 -66.75,66.33 0,114.97 -74.43,185.33 -170.7,214.98 -33.48,10.3 -69.82,15.28 -106.08,15.08 -35.95,-0.18 -72.22,-5.52 -105.88,-15.76 -99.95,-30.45 -178.92,-102.68 -178.92,-214.3 0,-35.52 -38.16,-62.39 -85.97,-76.34 -22.83,-6.67 -47.39,-10.24 -71.68,-10.48 -23.63,-0.23 -47.1,2.74 -68.51,9.11 -39.68,11.82 -70.06,37.3 -70.06,77.71 0,122.19 -78.07,204.56 -176.16,240.61 -34.27,12.58 -71.6,19.28 -108.99,19.68 -37.33,0.4 -74.78,-5.69 -109.34,-18.61 -92.09,-34.45 -162.76,-113.24 -162.76,-241.68l150 0z"/>
 </g>
</svg>
