<?xml version="1.0" encoding="UTF-8"?>
<!DOCTYPE svg PUBLIC "-//W3C//DTD SVG 1.1//EN" "http://www.w3.org/Graphics/SVG/1.1/DTD/svg11.dtd">
<!-- Creator: CorelDRAW 2019 (64-Bit) -->
<svg xmlns="http://www.w3.org/2000/svg" xml:space="preserve" width="100%" height="100%" version="1.1" style="shape-rendering:geometricPrecision; text-rendering:geometricPrecision; image-rendering:optimizeQuality; fill-rule:evenodd; clip-rule:evenodd"
viewBox="0 0 11200 11800"
 xmlns:xlink="http://www.w3.org/1999/xlink">
 <defs>
  <style type="text/css">
   <![CDATA[
    .fil4 {fill:#FEFEFE}
    .fil0 {fill:#2B2A29}
    .fil3 {fill:#FEFEFC}
    .fil8 {fill:#E63C24}
    .fil11 {fill:#D5A438}
    .fil7 {fill:#E9CEC6}
    .fil2 {fill:#E9E9E9}
    .fil20 {fill:#CBCBCB}
    .fil9 {fill:#7D483B}
    .fil6 {fill:#453525}
    .fil1 {fill:#414142}
    .fil10 {fill:#334D31}
    .fil5 {fill:#252424}
    .fil12 {fill:#212229}
    .fil16 {fill:#121111}
    .fil18 {fill:#1A1A1A}
    .fil13 {fill:#212121}
    .fil17 {fill:#2B2A29}
    .fil19 {fill:#2E2C31}
    .fil15 {fill:#CCBF82}
    .fil14 {fill:#2F2651;fill-opacity:0.360784}
    .fil21 {fill:#2F2651;fill-opacity:0.360784}
   ]]>
  </style>
 </defs>
 <g id="Слой_x0020_1">
  <metadata id="CorelCorpID_0Corel-Layer"/>
  <g id="_290424715712">
   <g>
    <path class="fil0" d="M9376.17 -3.09l130.21 200.22 248.05 650.6 81.41 746.81 -19.24 425.09 -130.25 562.18 -168.93 456.37c0,0 -206.12,428.19 -211.03,437.29 -4.91,9.1 -107.92,169.91 -107.92,169.91l139.7 416 334.31 187.56 551.21 351.55 262.8 238.88 289.67 341.47 217.92 343.87c0,0 117.98,291.3 120.2,299.74 2.23,8.43 4.12,182.46 4.12,182.46l-91.01 135.22 -251.31 176.14 -269.24 123.1 -709.17 283.78 -503.1 224.17 -294.88 141.34 -451.19 225.08 -309.74 213.28 -228.58 188.4 -212.46 145.15 -173.64 52.24 -105.49 11.31 -86.99 -175.41 -110.57 -142.99 -107.69 -135.34 -50.3 -29.85 -106.93 -42.55 -55.99 -36.51 -22.77 -120.25 -59.96 -194.52 -67.4 -166.46 -72.74 -69.5 -142.08 -133.56 -53.53 -48.98 -88.75 -40.65 -112.21 -52.84 -119.1 -34.21 -237.83 -49.01 -184.34 7.17 -204.27 78.87 -221 184.83 -154.49 272.18 -88.31 271.74 -26.1 44.2 -119.21 -119.86 -165.83 -233.57 -195.09 -253.85 -143.42 -147.84 -146.8 -141.75 -73.12 -54.35 -163.07 -130.88 -161.29 -131.05 -37.77 -49.74c0,0 -107.71,-93.23 -110.12,-95.89 -2.41,-2.65 -38.53,-38.5 -38.53,-38.5 0,0 -143.84,-137 -144.11,-139.86 -0.27,-2.85 -94.2,-98.81 -95.89,-101.53 -1.7,-2.72 -40.04,-47.01 -40.04,-47.01 0,0 -113.8,-150.61 -114.36,-152.72 -0.56,-2.11 -91.61,-124.97 -91.61,-124.97l-136.73 -372.69 3.19 -142.84 75.47 -124.4 74.67 -102.02c0,0 143.37,-191.23 144.33,-196.36 0.95,-5.13 86.19,-117.49 92.14,-123.09 5.95,-5.6 255.12,-258.56 255.12,-258.56l610.11 -304 50.63 -20.58 32.61 13.86 524.94 408.73 172.59 213.5 173.45 499.2 -3.87 158.73 -117.03 257.16 -41.59 70.84 -18.49 25.49 -0.18 105.85 -21.57 400.12 144.03 185.21 208.4 134.55 193.86 133.03 38.63 -18.01 80.8 -167.38 121.76 -160.41 77.94 -82.52 114.27 -90.6 -16.06 -102.16 -49.23 -210.65 39.02 -67.72 386.27 -280.18 21.37 -63.91 56.04 -108.9 -14.15 -197.37 49.3 -103.96 111.06 -59.34 -81.01 -204.07 -12.03 -36.3 -111.99 -42.79 -46.58 -143.94 -253.79 -265.65 -476.03 -578.86 -743.23 -910.91 12.46 -51.56 143.8 175.2 778.39 924.86 176.14 205.25c0,0 108.76,146.75 120.85,152.82 12.08,6.07 160.13,151.15 160.13,151.15l204.61 150.04 121.56 74.84 54.94 30 46.07 7.86 105.53 9.73 190.87 -19.32c0,0 87.82,4.24 98.23,3.58 10.41,-0.66 101.04,-27.99 101.04,-27.99l64.74 -45.19 47.4 -29.96 -29.86 -142.01 11.63 -194.76 35.59 -60.12 1166.93 -326.42 193.04 -6.08 -3.3 -84.66c0,0 -41.11,-287.99 -43.65,-296 -2.55,-8.01 -68.93,-244.89 -68.93,-244.89l-108.12 -247.61 -107.48 -175.15 -261.36 -351.91 -216.77 -288.55 -93.75 -135.84 -11.93 -162.12c0,0 72.48,-298.51 77.39,-307.61 4.91,-9.1 114.94,-412.26 114.94,-412.26l75.95 -324.77 -4.28 -80.22 -936.7 -288.63 2146.65 0zm-1118.97 6422.15c0,0 95.54,-17.58 110.97,-21.91 15.43,-4.32 263.21,-95.18 263.21,-95.18l240.82 -95.97 334.31 -150.79 281.41 -208.47 112.67 -19.18 31.04 -60.5 57.39 -40.65 -150.74 -95.31 -354.85 -130.21 -41.74 -22.71 -93.93 11.67 -58.29 -30.54 -68.68 -79.97 -161.58 96.48 -208.26 -56.1 -102.82 39.86 -5.36 81.13 2.2 192.72c0,0 -50.95,240.17 -52.69,244.66 -1.74,4.49 -57.88,196.91 -59.62,201.39 -1.74,4.49 -75.46,239.58 -75.46,239.58z"/>
    <path class="fil1" d="M8187.67 265.23l-32.67 248.14 -120.9 354.31 -65.79 434.45 -76.24 145.15 44.29 165.83 435.91 580.29 156.82 214.24 143.31 300.47 112.16 352.32 35.2 299.05 -2.25 37.65 -165.68 -0.98 -84.37 -55.46 -117.71 -119.29 -77.52 -82.01 -2.47 -26.4 -151.22 -8.17c0,0 -151.96,53.1 -157.6,54.35 -5.65,1.24 -153.82,41.03 -153.82,41.03l-36.57 -51.98 -111.41 -144.36 -111.12 35.61c0,0 -235.19,48.63 -240.05,50.53 -4.85,1.89 -262.09,99.41 -262.09,99.41l-24.55 14.52 2.1 61 81.3 168.76 227.78 249.37 32.67 33.66 -31.08 52.58 -28.95 190.6 35.03 166.63 -81.57 51.54 -121.21 50.93 -283.4 17.89 -159.75 -14.75 -125.78 -68.66 -133.14 -91.93 -260.28 -197.24 -354.75 -432.31 -366.48 -439.36 -389.56 -470.34 -157.95 -162.07 -40.28 -478.76 233.59 -396.2 -287.18 -545.15 319.04 -953.21 1113.92 0 -482.66 1760.28 226.15 178.94 497.21 543.76 383.12 432.07 175.85 259.66 222.91 -75.56 141.46 -38.44 -6.47 -19.19 -57.71 -132.09 -31.18 -56.12 -103.85 -9.72 -97.55 -80.86 -58.63 -157.21 -41.36 -203.46 -57.62 -104.01 -52.78 -63.82 -293.21 -425.36 -146.91 -585.18 79.74 -563.21 126.55 -259.34 184.97 -401.14 1098.09 0c63.86,114.39 136.15,268.32 136.15,268.32z"/>
    <path class="fil2" d="M8924.14 3762.2l80.32 504.32 17.81 228.7 0.43 235.37 -32.06 72.83 -118.04 169.42 -139.87 159.23 -80.25 57.9 -88.65 21.98 -189.44 68.12 -82.33 -10.28 -78.92 95.22 -53.09 94.24 -29.28 210.07 -100.74 139.01c0,0 -209.68,113.2 -220.83,117.12 -11.16,3.93 -187.48,73.7 -187.48,73.7l-95.35 -34.26 -35.94 -91.66 24.2 -126.09 62.9 -66.36 169.01 -86.37 11.2 -34.16 -155.73 -140.92 -108.05 -123.78 12.77 -78.94 119.78 -88.95 126.05 -14.67 34.73 -5.77 0.81 -49.03 -33.06 -157.1 -71.03 -154.94 -51.9 -139.12 -20.11 -45.63 -90.78 122.24 -141.2 75.85 -77.74 0.07 -153.24 -83.56 -53.78 -66.96 -26.79 -70.92 49.34 -57.14 127.22 -63.74 107.3 -61.15c0,0 94.97,-108.24 98.18,-120.06 3.22,-11.82 32.24,-78.6 32.24,-78.6l47.46 -139.07 106.62 -168.35 130.87 -24.48 143.73 -25.69 121.33 -34.39 140.67 -50.6 151.97 -76.14c0,0 138.81,-47.55 152.38,-48.81 13.56,-1.27 176.08,12.31 176.08,12.31l181.4 107.56 88.88 52.43z"/>
    <path class="fil2" d="M5264.48 5754.43l114.41 -69.74c0,0 157.14,-59.33 193.22,-58.4 36.09,0.94 144.6,52.7 144.6,52.7 0,0 73.75,111.16 69.91,131.67 -3.84,20.52 -99.65,104.35 -112.5,105.56 -12.85,1.2 -295.91,99.68 -295.91,99.68l-156.06 24.68 -133.13 -99.47 -45.32 -41.84 -61.87 15.87 -63.81 41.25c0,0 -117.32,0.18 -128.83,-7.38 -11.51,-7.57 -127.96,-144.24 -127.96,-144.24l-44.12 -117.54 -123.69 47.57c0,0 -154.93,-63.25 -155.4,-68.24 -0.47,-4.99 -27.22,-60.08 -27.22,-60.08l-22.72 -50.43 -98.57 23.62 -79.56 -50.13 -40.35 -92.68c0,0 6.97,-83.06 6.37,-89.48 -0.6,-6.42 19.61,-167.41 19.61,-167.41l-46.24 -424.72c0,0 60.84,-257.65 64.18,-268.04 3.35,-10.4 56.86,-54.27 56.86,-54.27l164.3 -122.9 173.5 3.6 243.1 64.93 99.64 -58.28 197.49 -12.73 155.64 33.1 161.2 75.47 181.82 142.8 131.62 67.94 145.57 74.59 16.69 78.35 -42.39 70.2 -71.7 49.18 -76 18.63 -161.03 -59.08 -92.22 -69.84 -106.57 -8.02 -133.19 38.39 -0.5 225.38 -16.14 227.55 46.73 99.29 0.01 242.15 -13.29 35.17 36.3 34.03 45.65 33.88 7.87 37.71z"/>
    <polygon class="fil2" points="6884.77,5015.85 6848.46,5366.23 6838.02,5539.26 6817.51,5735.55 6802.05,5970.24 6800.83,6195.69 6814.98,6516.15 6827,6713.72 6834.65,6856.99 6758.08,6784.96 6670.76,6698.11 6537.26,6609.87 6401.97,6546.74 6311.29,6516.78 6157.67,6484.81 6037.34,6456.3 6053.79,6390.17 6115.21,6208.04 6200.1,6015.09 6301.73,5824.16 6410.99,5645.48 6505.34,5499.87 6615.29,5359.28 6791.55,5119.61 "/>
    <path class="fil3" d="M6951.31 9250.49l99.82 5.05 62.12 -13 139.29 11.44 126.03 100.5 65.23 81.72 80.17 179.67 0.65 99.28 -130.54 -41.05 -20.79 39.38 -125.05 -74.68 -9.93 9.21c0,0 5.35,26.49 5.27,29.38 -0.09,2.89 1.08,53.9 1.08,53.9l-5.39 57.74 -22.02 80.17 -46.4 96.49 -81.22 155.18 -102.36 148.53 -117.67 127.28 -88.19 119.12 -98.57 146.73 -27.81 49.04 -11.81 39.26 88.49 30.91 57.24 27.04 25.09 -31.87 58.63 -112.02 33.08 -77.25 41.41 -119.06 35.45 -82.51 36.79 -53.11 87.75 -62.21 137.01 -66.81 98.25 -27.19 25.85 -4.11 13.7 -1.76 91.12 19.9c0,0 60.19,35.4 64.22,36.11 4.02,0.7 98.99,73.16 98.99,73.16l17.64 46.22c0,0 -33.01,70.41 -34.52,73.43 -1.52,3.02 -46.26,63.36 -46.26,63.36l-76.55 97.51 -63.99 81.59 -28.56 44.78 -25.46 50.98c0,0 167.94,-62.56 177.93,-63.5 9.99,-0.93 106.24,-18.58 129.08,-20.72 22.83,-2.13 198.29,-4.16 198.29,-4.16l156.86 29.96 140.58 78.99 99.75 88.93 13.81 30.83c0,0 5.42,13.09 0.11,17.91 -5.31,4.81 -15.1,13.3 -15.1,13.3l-49.93 34.18 -60.52 34.1 -67.84 36.58c0,0 -105.93,41.23 -109.46,41.92 -3.54,0.69 -98.04,40.86 -98.04,40.86 0,0 -173.69,59.45 -181.37,61.97 -7.69,2.52 -88.55,34.56 -88.55,34.56l-126.51 48.2 -81.5 40.74c0,0 -92.62,41.06 -99.52,44.23 -6.91,3.17 -92.53,49.7 -92.53,49.7l-74.83 58.11 -61.89 46.47 -58.68 41.82 -3.17 1.92 -32.13 9.7c0,0 -106.52,23.29 -114.37,24.02 -7.85,0.74 -102.7,10.33 -102.7,10.33 0,0 -86.48,6.65 -88.98,6.89 -2.5,0.23 -30.3,3.19 -30.3,3.19l-11.41 4.85 -32.58 32.75 -56.17 61.41 -54.91 17.02 -45.81 2.84 -118.39 27.28 -68.47 -50.82 -40.14 9.51c0,0 -36.1,18.13 -41.29,16.46 -5.2,-1.67 -31.73,-12.15 -35.02,-16.52 -3.29,-4.37 -117.19,-71.46 -121,-73.62 -3.8,-2.17 -19.04,-22.7 -19.04,-22.7 0,0 4.76,-52.99 3.79,-63.34 -0.97,-10.35 7.57,-69.11 7.57,-69.11 0,0 6.77,-43.1 6.13,-49.88 -0.63,-6.79 -6.57,-43.31 -6.57,-43.31l-13.67 -88.35 -9.53 -32.58 -8.17 -12.96 -14.89 -21.96c0,0 -30.94,-69.09 -33.86,-77.1 -2.91,-8.01 -18.68,-45.77 -19.66,-48.56 -0.98,-2.79 -10.18,-35.76 -10.41,-38.26 -0.24,-2.49 0.02,-49.67 0.02,-49.67l4.1 -33.15 7.74 -28.8 30.62 -53.61 89.31 -87.92 22.96 -31.66 -66.29 -27.63 -61.2 -23.07 -70.92 -57.8c0,0 -82.92,-86.19 -83.55,-89.01 -0.63,-2.82 -5.64,-33.31 -5.64,-33.31l84.72 24.47 18.48 -2.45c0,0 -40.2,-75.79 -42.81,-80.58 -2.62,-4.8 -26.58,-72.39 -26.58,-72.39 0,0 -6.4,-30 7.39,-28.77 13.79,1.23 62.38,20.44 62.38,20.44l4.46 -44.69 -26.34 -8.32c0,0 -15.29,-40.32 -16.28,-47.07 -0.99,-6.75 -30.52,-141.49 -30.52,-141.49l-24.81 -103.5 -16.45 -48.86c0,0 -26.68,-111.97 -27.66,-114.76 -0.98,-2.79 -53.18,-133.61 -53.18,-133.61l-26.45 -51.88 -9.4 -73.66 -39.24 -111.51 -33.26 -76.36 -99.99 -9.07 -73.69 12.65 -23.49 -51.07 39.09 -74.56c0,0 36.43,19.98 38.92,19.75 2.5,-0.23 42.94,-10.49 42.94,-10.49l99.02 -61.11c0,0 45.18,-32.66 47.04,-39.67 1.86,-7.02 9.88,-19.41 9.88,-19.41l33.32 -15.25 125.02 39.37 37.64 2.24 76.6 -89.23 33.67 -24.76 223.72 -9.42 73.86 4.61 28.52 5.47 23.76 -13.23 35.3 -18.07c0,0 134.99,-42.17 137.35,-43.83 2.37,-1.66 68.09,-18.61 68.09,-18.61l33.7 -5.31 30.24 -2.43 70.47 -3.97 20.83 22.53 34.38 38.54 37.78 47.94 18.81 20.19 87.31 25.3 56.04 70.01z"/>
    <path class="fil4" d="M8877.77 3720.36l54.37 -49.72 -42.04 -95.4 -134.68 -81.51 -79.34 -66.91 -208.97 -202.18 -129.29 -113.37 -179.37 14.49c0,0 -274.51,82.92 -282.41,90.86 -7.89,7.93 -140.24,70.71 -140.24,70.71l53.86 190.77 147.06 202.2 96.04 85.15 111.77 -40.21 299.19 -125.76 142.18 -2.75 219.73 95.48 72.14 28.15z"/>
    <path class="fil4" d="M7836.71 3104.36l-7.54 -9.76 -57.9 -75.02 -168.99 29.36 -325.34 90.78 -143.34 56.95 -24.83 81.35 99.62 172.09 210.75 218.33 71.78 77.73 53.72 43.2 85.39 47.08c0,0 108.03,-1.33 121.37,-7.87 13.34,-6.54 137.4,-27.14 137.4,-27.14 0,0 94.67,-26.86 112.06,-37.13 17.4,-10.26 17.71,-26.13 17.71,-26.13l-67.27 -53.45 -92.45 -87.81 -77.59 -148.55 -38.85 -80.26 6.61 -75.5c0,0 89.74,-55.42 94.12,-57.67 4.39,-2.24 37.03,-64.02 37.03,-64.02l-43.46 -66.56z"/>
    <polygon class="fil4" points="8042.99,2595.65 7971.48,2693.05 7832.58,2778.03 7650.64,2833.93 7478.08,2851.53 7310.23,2840.5 7228.62,2772.86 7183.37,2681.04 7124.23,2455.76 7066.12,2111.17 7042.2,1901.76 7035.6,1615.86 7060.02,1476.8 7092.55,1408.97 7189.88,1356.66 7374.44,1313.47 7586.39,1316.67 7860.94,1388.88 7906.01,1462.08 7923.86,1586.59 7909.1,1734.24 7929.95,1910.82 7964.83,2145.12 8001.46,2351.89 "/>
    <polygon class="fil5" points="4849.18,4306.28 4794.19,4218.56 4681.49,4083.69 4579.38,3992.46 4496.74,3909.49 4368.21,3943.84 4243.25,4023.92 4194.23,4184.73 4148.45,4318.59 4113.52,4487.21 4170.38,4432.94 4307.61,4311.62 4457.49,4305.5 4629.73,4346.11 4733.19,4366.81 4801.1,4349.43 "/>
    <path class="fil5" d="M8834.58 3346.58l50.88 -71.71 86.84 -141.3 78.3 -109.56 109.83 -157.13 59.67 -85.5 110.05 -147.08 53.87 -93.59c0,0 113.26,-158.9 116.88,-166.44 3.62,-7.53 57.69,-98.98 57.69,-98.98l94.21 -177.99 48.52 -104.61 20.1 -77.47c0,0 62.02,-129.63 61.48,-135.34 -0.53,-5.71 13.71,-91.99 13.71,-91.99l25.2 -138.41 0.07 -191.51 -13.39 -288.84 -110.01 -421.64 -200.62 -463.45 -121.69 -187.13 -1327.16 0 14.1 21 124.56 247.32 -18.07 83.62 -66.78 317.45 -44.9 189.46 -125.69 431.99 -24.05 203.71 42.54 140.78 269.55 342.86 135.08 197.77 236.8 366.98 89.8 198.29 83.5 260.51 69.13 347.93z"/>
    <path class="fil3" d="M6871.16 6934.54l108.4 298.82 36.01 192.44 -0.68 208.12 -4.74 26.36 -82.94 -55.59 -14.47 184.2 -21.42 94.14 -57.7 -124.17 -45.73 80.58c0,0 4.43,201.15 5.23,209.72 0.8,8.56 62.29,142.47 62.29,142.47l-219.02 -124.92 -190.89 -39.72 -9.01 26.76 64.97 78.86 37.9 97.24 -2.56 65.02 -96.1 -119.14 -122.73 -80.66 -172.33 -41.46 -81.22 9.04 -1.61 28.95 66.66 81.58 42 125.65 -29.99 0.47 -54.25 -54.5 -82.64 -82.96 -46.01 -122.4 11.29 -48.57 -167.84 37.31 -67.13 36.51 -111.61 99.71 -76.2 93.53 27.64 -150.89 17.04 -33.27 -79.08 31.88 -47.38 47.63 -67.36 95.57 -92.49 -80.61c0,0 -71.76,-43.68 -80.59,-45.74 -8.83,-2.05 -156.42,-9.83 -156.42,-9.83l-60.29 -28.91 20.18 -168.9 29.47 -192.81 55.43 -238.43 69.93 -251.75 106.38 -310.43 130.25 -201.82 242.24 -190.47 162.03 -62.56 199.68 -13.1 332.88 78.27 180.63 78.11 159.76 114.37 152.97 158 21.17 52.3z"/>
    <path class="fil6" d="M7082.63 7958.69l131.06 -107.29 -29.15 119.35 -5.72 92.68c0,0 74.26,54.96 80.9,64.42 6.64,9.46 202.53,271.88 202.53,271.88 0,0 71.68,73.9 80.42,90.36 8.74,16.46 101.31,174.81 101.31,174.81l35.7 150.71 36.74 100.23 -99.42 -0.78 -114.23 87 -80.49 139.99 -64.28 82.33 164.12 76.78 -183 -1.59 -61.55 -25.63 -105.03 -26.19 -21.28 -2.1 -52.53 -0.08 -67.9 8.94 -63.44 -3.2c0,0 -69.91,-70.2 -80.12,-73.15 -10.2,-2.96 -98.12,-43.17 -98.12,-43.17l-92.99 -109.01 -72.56 4.55 -28.15 1.85c0,0 -87.49,9.15 -91.31,10.59 -3.82,1.44 -78.86,30.43 -86.32,31.48 -7.47,1.06 -49.63,19.77 -49.63,19.77l-47.18 23.98 -23.76 13.23c0,0 -25.67,3.5 -30.8,2.54 -5.13,-0.96 -60.96,-9.05 -69.17,-8.28 -8.21,0.77 -43.53,4.07 -48.53,4.54 -5,0.47 -106.43,1.32 -111.1,1.4 -4.67,0.08 -80.41,-12.99 -80.41,-12.99 0,0 -17.48,59.21 -23.13,60.45 -5.64,1.25 -65.52,53.65 -71.95,54.25 -6.43,0.6 -162.46,-12.87 -162.46,-12.87l-11.58 -12.7 -23.22 10.63 -21.25 31.4 -63.19 58.13 -87.17 34.6 -37.47 -4.93 21.69 -45.22 -76.46 44.58 -7.55 78.86 4.89 36.75c0,0 67.48,-1.99 76.76,-2.86 9.27,-0.87 88.37,-0.3 88.37,-0.3l21.66 1.97 5.92 21.67 13.32 50.23 62.16 185.69 -53.34 31.61 -79.69 25.46 21.91 -58.2 21.82 -43.8 -79.97 -8.36 -239.35 -34.46 -134.31 -88.94 -23.32 -33.81c0,0 54.95,-5.15 61.31,-6.46 6.35,-1.32 118.53,-33.41 118.53,-33.41l-131.18 -63.31c0,0 -34.5,-37.82 -48.72,-43.68 -14.23,-5.86 -79.08,-37.23 -79.08,-37.23l-153.51 -40.34 -130.75 25.91 19.74 -88.96 58.4 -76.01 75.72 -52.44 17.93 -16.08 -131.96 -86.99 -54.47 -58.98 -56.47 -126.45c0,0 58.78,20.41 67.61,22.47 8.83,2.05 53.23,30.3 58.43,31.97 5.19,1.66 56.46,3.35 56.46,3.35l21.06 -13.49 -97.31 -85.92 -153.07 -66.3 -102.29 -8.42 -16.1 -25.86 62.64 -69.21 103.8 -106.21 62.89 -20.28 -9.18 -36.58 -80.62 -61.58 -108.02 -15.8 -11.68 -47.86 138.23 -92.12 56.12 -31.17 -24.13 -42.38 -22.99 -153.34 14.56 -136.7 84.38 101.53 71.39 55.23 28.95 1.6 -26.17 -79.62 -65.72 -117.67 61.68 12.95 76.12 28.87 17.05 -33.27 33.61 -148.56 37.92 -40.99 35.84 106.07 8.47 76.21 -37.59 282.8 29.77 32.55 68.25 -9.27 131.89 21.78 113.64 79.72 49.87 35.15 63.73 -90.41 104.1 -80.95 3.34 45.5 -25.66 140.1 84.49 -100.94 150.5 -117.96 187.79 -48.16 -11.29 48.57 46.01 122.4 109.77 110.21 21.38 21.48 30.52 5.38 -39.17 -128.64 -51.7 -80.16 -10.97 -27.46c0,0 94.42,3.82 100.13,3.28 5.71,-0.53 155.92,30.78 162.93,35.39 7.01,4.61 98.17,46.73 101.42,50.74 3.24,4.01 108.23,134.55 108.23,134.55l-1.34 -65.9 -72.7 -141.68 -22.09 -38.67c0,0 56.04,-6.27 65.45,-5.71 9.41,0.57 180.57,60.93 180.57,60.93l167.43 103.75c0,0 -27.01,-80.97 -27.88,-90.25 -0.87,-9.27 -44.68,-85.09 -44.68,-85.09l-1.92 -112.84c0,0 19,-127.76 22.95,-131.73 3.94,-3.97 47.32,5.65 47.32,5.65l36.9 88.98 16.08 -76.66 23.17 -182.41 94.87 59.06 51.28 178.75 10.09 105.9z"/>
    <path class="fil7" d="M7322.89 8174.85c0,0 65.05,33.51 77.96,33.02 12.91,-0.49 82.61,-25.01 82.61,-25.01l48.92 -100.32 -8.16 -164.09 -48.11 -106.37 -99.8 -132.86 -109.12 -139.17 -59.97 -62.74 -52.88 -38.24 -117.08 -39.44 -33.26 83.02 17.63 142.33c0,0 30.72,105.11 31.18,110.1 0.47,5 29.82,223.61 29.82,223.61 0,0 41.05,-33.6 48.9,-40.03 7.84,-6.43 97.91,-88.52 97.91,-88.52 0,0 -41.64,127.26 -43.27,133.94 -1.63,6.67 -15.95,92.95 -7.35,99.35 8.59,6.41 144.07,111.42 144.07,111.42z"/>
    <polygon class="fil8" points="5863.38,6995.52 5970.24,7060.39 6048.18,7185.55 6003.02,7333.76 5906.4,7409.03 5737.49,7434.92 5548.38,7429.58 5424.23,7349.05 5359.53,7226.97 5406.34,7065.65 5554.34,6985.57 5780.78,6974.46 "/>
    <path class="fil9" d="M8658.35 7260.93l-71.56 -102.8 -85.77 -39.49 -149.19 21.16 -257.42 126.32 -208.38 171.52c0,0 -194.68,109.59 -212.04,105.39 -17.35,-4.2 -56.78,70.1 -56.78,70.1l27.35 184.61 66.34 90.95c0,0 126.99,-53.56 135.85,-59.62 8.85,-6.05 267.58,-197.5 267.58,-197.5l229.28 -174.75 314.74 -195.89z"/>
    <path class="fil10" d="M4889.99 6563.93l-104.35 -145.73 -161.91 -176.34 -128.21 -139.17 -229.47 -175.06 -24.48 -30.82 -86.19 -51.68 -79.61 80.16 -59.26 66.73 -76.87 57.57 97.9 90.21 152.69 131.94 148.1 116.7 82.73 71.75 124.96 112.91 136.39 154.61 30.67 -23.39c0,0 83.51,-53.88 89.79,-55.92 6.29,-2.03 63.43,-37.61 63.43,-37.61l23.69 -46.86z"/>
    <path class="fil11" d="M10911.3 5366.18l-153.36 115.13 -127.95 202.03c0,0 -49.49,132.78 -52.3,148.87 -2.81,16.1 -10.11,199.64 -10.11,199.64l25.44 194.86 72.63 129.98 196.13 -88.9 195.69 -155.09 76.21 -185.67 -35.89 -144.88 -72.12 -209.27 -114.37 -206.7z"/>
    <polygon class="fil11" points="3415.72,5487.48 3375.25,5301.22 3320.61,5055.81 3290.71,4890.16 3284.25,4658.17 3195.57,4793.82 3169.85,4905.01 3178.91,5064.75 3268.53,5283.85 3379.71,5450.48 "/>
    <path class="fil12" d="M9814.11 1190.25l-257.43 25.23 -226.53 25.52c0,0 -240.85,11.02 -249.68,8.97 -8.84,-2.05 -166.77,2.65 -166.77,2.65 0,0 -4.31,-107.58 -5.38,-119 -1.07,-11.42 -73.71,-387.6 -73.71,-387.6l-120.14 -376.05 -70.05 -133.1 -111.22 -188.26 538.74 -51.7 304.22 0 121.7 187.13 121.63 256.73 123.21 376.2 71.41 373.28z"/>
   </g>
   <g>
    <path class="fil13" d="M6325.84 -3.09c-89.81,253.33 -353.16,952.64 -292.31,1085.31 50.23,-28.75 47.87,-9.25 40.1,-60.08l310.69 -1025.23 -58.48 0z"/>
    <path class="fil13" d="M5189.86 -3.09c-118.46,296.15 -344.64,862.91 -294.33,983.7 51.22,-26.95 48.17,-7.55 42.2,-58.63l316.4 -925.07 -64.27 0z"/>
    <path class="fil14" d="M8294.89 10898.25c0,0 -360.61,135.58 -866.84,226.48 -49.56,11.52 -130.99,30.26 -204.22,50.21 -20.82,5.66 -61.29,13.97 -76.43,18.34 -24.37,7.06 -44.63,17.48 -64.6,26.25 -89.52,39.3 -139.13,88.48 -166.66,106.1 -54.18,34.65 -183.29,101.48 -210.58,86.75 -27.29,-14.73 38.04,-239.67 -0.08,-370.01 -38.11,-130.33 -228.47,-289.63 -278.63,-301.48 -50.16,-11.85 72.95,-173.11 97.25,-313.59 24.28,-140.5 128.4,-453.2 105.28,-487.8 -23.15,-34.6 114.59,189.75 180.75,190.35 66.16,0.6 205.98,-137.34 206.54,-223.77 0.54,-86.45 26.65,-422.91 -82.43,-542.28 -109.07,-119.37 -92.3,-166.92 -154.78,-241.1 -62.47,-74.2 5.99,-102.07 61.68,-245.49 55.67,-143.43 112.3,-546.28 57.09,-629.49 -55.2,-83.21 -127.49,-100.26 -127.49,-100.26 0,0 42.41,-1130.37 -414.12,-1615.7 -2.51,-2.68 -332.87,-78.27 -332.87,-78.27 0,0 997.62,-149.45 1058.61,-205.55 60.99,-56.1 143.38,-215.09 285.54,-333.36 142.16,-118.25 142.16,-187.78 142.16,-187.78l-27.22 124.57 12.71 88.63 89.05 60.22 117.39 -22.5c0,0 279.07,-238.41 291.33,-302.23 12.25,-63.83 67.37,-141.66 67.37,-141.66 0,0 196.34,-255.92 -153.59,-364.27 106.75,-104.96 115.86,-162.02 115.86,-162.02l62.62 22.94 162.36 196.44c0,0 142.05,35.59 205.52,-19.23 63.48,-54.84 11.49,-169.53 11.49,-169.53l107.88 152.59c0,0 158.13,-171.73 45.23,-362.73 -112.9,-191 -271.88,-335.94 -369.48,-286.49 17.68,-22.87 77.7,-61.96 77.7,-61.96l159.14 8.15 117.51 71.07c0,0 293.38,-696.66 -159.22,-959.32 -118.31,39.24 -167.63,74.97 -167.63,74.97l-131.55 50.8 -183.91 54.39 -213.02 50.18 -117.57 6.64c0,0 194.11,-273.19 176.69,-339.32 -17.42,-66.12 98.36,143.69 98.36,143.69 0,0 111.87,8.36 216.95,-11.66 105.08,-20.02 450.24,-91.57 466.29,-155.94 16.05,-64.38 -250.5,-361.96 -250.5,-361.96l-218.58 28.1 -212.12 60.84c0,0 -65.44,-287.38 -137.37,-380.15 -12.96,-18.73 62.83,-42.01 62.83,-42.01l161.56 -115.86c0,0 -83.32,-458.76 -144.31,-556.72 -61,-97.96 -474.37,-770.47 -659.96,-748.8 -5.62,-55.63 58.37,-479.13 58.37,-479.13l259.89 -880.62 1868.04 0 121.69 187.13 200.61 463.45 137.54 651.6 -4.46 389.98 -48.57 536.5 -107.43 385.42 -158.13 427.2 -264.75 522.39 -51.57 92.62 74.49 221.85 62.59 186.33 419 241.59 501.94 329.74 299.4 280.34 296.93 392.9 113.03 163.58 62.61 119.08 82.83 234.74 4.49 183.56 -47.48 93.51 -88.2 73c0,0 -773.49,-899 -1238.23,-973.96 -464.74,-74.97 -735.9,118.03 -807.46,168l0 0 -31.78 18.28 -8.89 -1.77 -13.37 14.57 -121.17 69.7 -49.11 4.76 -89.84 -33.91 -10.71 -2.88c1.89,-4.7 5.88,-10.05 14.29,-11.03 233.16,-27.16 548.23,-453.61 364.18,-621.76 -81.63,149.68 -214.25,267.81 -214.25,267.81l-123.91 118.74 -62.63 15.53 -130.03 52.31c0,0 -85.99,120.52 -67.5,140.22 18.49,19.7 109.45,15.67 109.45,15.67l78.35 16.42 -109.43 -1.14 -35.28 53.7 21.57 107.39 -56.29 350.42 -105.88 358.73 -37.61 119.83 437.56 -142.34 442.59 -190.31 175.32 -109.84 175.25 -129.82 112.66 -19.18 15.6 -50.82 71.56 -49.43 -29.38 -16.8 21.67 10.22 182.94 140.33 147.33 142.02 162.65 96.27 -522.38 -117.52c0,0 -471.25,339.16 -534.59,502.07 -63.33,162.92 -335.97,701.32 -457.63,777.04 -121.65,75.71 -314.74,195.88 -314.74,195.88l-376.01 289.69 -188.79 113.22 -154.73 55.08 -99.86 3.64 4.08 82.05 -4.84 100.33 -20.34 65.25 -72.24 34.22 -69.79 -6.88c0,0 -13.96,64.07 -0.21,70.45 13.76,6.37 132.66,153.62 132.66,153.62l147.9 226.6 88.2 281.13 -89.95 -9.98c0,0 -98.37,60.35 -107.86,50.09 -9.49,-10.25 -79.81,124.97 -79.81,124.97l-61.87 92.92 -21.59 46.1 143.02 71.75 -148.19 -1.29 80.41 136.42 80.21 187.93 0.55 81.91 -55.23 -8.27 -75.25 -23.67 -22.8 38.17 -123.04 -73.48 -4.63 42.92 0.08 60 -1.21 26.02 -7.59 37.25 -20.82 70.84 -32.65 79.96 -27.14 54.21 -80.7 139.98 -72.73 96.07 -86.52 109.97 -92.8 100.84 -80.65 119.27 -67.98 103.93 -24.05 44.98 -5.63 25.8 151.45 50.68 16.56 -21.01 54.44 -102.27 52.39 -126.01 40.41 -109.97 31.37 -66.63 113.74 -111.83 118.63 -49.15 146.04 -42 75.26 15.79 123.52 47.45 91.11 96.57 -71.14 131.87 -122.4 157.04 -46.27 63.19 -39.74 73.37 159.69 -57.92 270.8 -29.43 246.86 37.46 200.89 119.72 38.06 70.5zm-3037.79 -10901.34l1091.61 0 -308.29 1032.74 21.82 878.69 478.58 522.03 383.49 430.96 235.54 322.77 -43.48 35.08 11.3 91.5 105.91 154.6 109.53 124.4 114.43 139.95 -57.63 111.59c0,0 -258.87,-226.56 -395.47,-202.12 -136.59,24.43 -1929.45,-1746.47 -1921.61,-1945.72 5.75,-146.27 97.89,-1164.85 174.27,-1696.47zm3692.87 5407.64l17.34 24.57 -12.18 -9.8 -5.16 -14.77zm83.91 78.03l0.06 0.02 -0.04 -0.01 -0.02 -0.01zm62.38 3.38l26.2 -1.49 10.76 3.48 -36.96 -1.99zm146.19 37.29l16.05 5.18 53.78 22.69 -69.78 -27.85 -0.05 -0.02zm-3890.11 1278.33l141.66 -162.98 191.73 -118.6 73.96 -227.17 -38.63 18.01 -60.46 -46.37 -163.69 -106.21 -151.3 -105.48 -158.91 -21.82 -86.96 -75.37 -79.89 -76.76 -86.27 77.94 -58.56 -0.83 -73.95 -3.99 -85.05 -58.33 -100.66 -198.64 -121.93 39.82 -108.69 -34.78 -63.4 -71.53 -15.49 -33 -11.58 -25.7 -50.11 4.82c0,0 -49.98,8.01 -60.3,1.5 -10.32,-6.49 -63.89,-32.35 -63.89,-32.35l-42.28 -74.88 -2.1 -41.56 -114.42 -103.37 -113.97 -10.22 -271.61 -155.99 -121.37 -105.41c0,0 256.01,508.19 582.46,770.1 326.46,261.9 1251.34,987.88 1268.67,1074.54 18.23,-63.89 46.99,-95.39 46.99,-95.39zm420.29 -969.78c0,0 -106.98,-121.8 -256.84,-123.14 -149.88,-1.35 -238.98,38.26 -238.98,38.26l-69.52 57.86c0,0 -113.84,16.33 -134.32,2.92 -20.49,-13.41 114.97,-194.07 114.97,-194.07 0,0 -176.58,-313.67 -280.27,-273.98 -103.72,39.7 -35.39,108.17 -35.39,108.17l-46.69 116.67 -77.44 59.84c0,0 -39.15,-144.25 -53.22,-148.39 -14.07,-4.14 -100.9,-409.38 -169.98,-420.26 -69.06,-10.89 -77.73,-195.82 -243.17,-132.82 12.63,-22.03 63.3,-46.93 63.3,-46.93 0,0 91.84,4.36 96.32,6.1 4.48,1.73 77.62,75.53 77.62,75.53l9.22 29.37c95.81,-215.77 47.97,-563.49 -194.23,-676.39 -142.82,104.01 -210.71,129.47 -210.71,129.47 0,0 -258.87,-236.79 -178.38,-351.47 80.5,-114.69 209.23,-229.29 209.23,-229.29l269.13 -134.1 66.93 -13.65 288.22 195.26 233.77 205.4 180.62 214.59 198.56 109.91 211.87 160.88c-257.85,-32.59 -483.7,2.23 -469.31,202.98 96.1,21.58 100.26,-3.25 100.26,-3.25l122.03 -18.64 26.95 21.12 -9.55 198.84 -72.49 159.3 -50.68 108.33 -63.94 78.18 16.94 188.47 -19.66 66.98 5.89 55.24 38.29 36.02 42.66 48.2 92.67 -59.77c0,0 176.36,-53.94 185.65,-54.81 9.28,-0.87 125.35,16.35 125.35,16.35l107.63 111.6 -9.31 79.12z"/>
    <path class="fil13" d="M9814.02 1731.24c18.29,130.72 -35.41,421.5 -62.79,542.14 -102.2,450.26 -328.43,965.55 -538.08,1344.79l-43.24 -41.53c-13.43,-15.67 -21.98,-24.36 -40.49,-34.91l-295.72 -150.48c28.79,-106.06 442.2,-648.29 538.2,-785.98 160.64,-230.39 345.58,-530.2 418.63,-810.06l23.49 -63.97zm1329.42 4188.84l0 8.1c-0.09,9.8 -0.57,19.44 -1.49,28.89 -25.62,263.98 -475.53,430.61 -692.94,520.46 -152.62,63.08 -294.26,120.76 -447.9,182.59 -464.52,186.93 -1283.07,548.7 -1665.99,824.94 -210.52,151.86 -457.23,434.5 -788.82,458.69 19.71,135.32 1.67,289.52 -167.45,288.66 17.4,41.17 22.12,32.4 41.08,68.88 1.65,-2.65 4.06,-3.73 4.32,-8.32l9.14 -25.46c7.99,-18.71 -7.22,-4.41 15.6,-23.49 32.7,20.03 21.75,21.39 23.78,73.75 49.94,-25.85 90.32,-67.13 139.38,-100.66 47.35,-32.35 98.77,-57.98 159.02,-79.35 404.86,-143.57 626.77,74.76 -55.96,245.33 45.39,23.85 147.52,33.86 201.78,48.12 66.08,17.36 137.85,29.96 140.46,113.91 -132.26,102.7 -330.26,-4.44 -463.15,-22.28 127.42,246 73.34,209.59 122.8,329.2 17.38,42.06 49.65,50.29 23.2,94.34 -195.03,-83.24 -264.71,169.96 -354.97,269.55 47.5,37.86 157.06,41.47 179.88,101.23 -31.52,29.88 -137.73,2.48 -184.41,-2.28 42.12,88.69 218.97,278.16 158.27,421.59l-103.29 -26.37c-4.87,-11.58 -32.04,31.29 -44.76,32.54 -72.73,-18.46 -86.48,-62.95 -141.42,-84.64 8.82,276.34 -125.62,423.18 -233.58,591.82 -55.9,87.31 -136.98,144.77 -196.82,229.57 -57.59,81.6 -108.26,168.57 -170.35,245.64 35.41,-140.66 249.45,-374.6 349.69,-489.93 87.66,-100.88 150.05,-233.56 202.63,-356.78 42.29,-99.1 49.25,-103.54 31.03,-239.7 -17.22,-128.77 -53.67,-228.57 -133.24,-318.47 -22.06,-24.92 -56.06,-46.19 -71.02,-69.88 35.53,-34.98 86.1,-25.83 125.4,-5.93 -22.24,14.43 -40.66,15.76 -77.77,19.19 16.05,26.57 1.8,8.08 17.67,25.99 100.66,113.62 112.7,127.06 151.54,287.12 18.05,74.38 32.61,60.15 72.1,100 1.75,-2.44 4.12,-3.61 4.69,-7.68l26.87 -28.26c59.46,16.93 95.27,44.05 162.29,52.23 -17.56,-165.77 -90.41,-299.61 -208.94,-386.47 -55.27,-40.49 -69.71,-31.67 -129.25,-58.71 39.25,-21.4 91.65,-1.37 123.99,16.4 35.55,19.56 18.95,20.31 62.46,23.19 25.05,1.66 65.07,1.82 88.21,0.79 -9.81,-7.66 -4.92,-7.21 -26.55,-17.23l-94.88 -37.49c27.89,-27.57 59.13,-52.77 80.39,-90.74 71.16,-127.03 93.76,-237.66 284,-249.15 -23.75,-71.45 -79.27,-120 -127.66,-156.91 -66.28,-50.56 -101.14,-51.81 -171.33,-87.95 138.53,-31.59 178.67,74.89 274.86,125.43 -21.88,-168.93 -197.5,-354.63 -302.01,-407.09 38.09,-11.9 19.31,-8.75 32.49,-21.25 -58.87,-88.62 -145.16,-148.13 -202.41,-234.36l-14.15 20.64c-11.27,16.12 1.13,2.92 -10.69,14.52 -24.72,-139.51 -0.78,-138.22 11.61,-248.57l-66.37 56.21c-27.55,25.87 -25.42,24.98 -45.38,53.71 -15.47,-162.14 -3.25,-288.78 -126.6,-367.86 -3.16,74.26 -5.48,116.27 -18.92,178.01 -22.29,102.48 -18.35,64.43 -0.61,170.34l-81.29 -143.19c-15.75,-29.02 -7.95,-13.36 -15.92,-23.47l-19.22 50.37c-37.5,186.43 64.64,252.17 131.36,400.93l-39.68 -25.31 14.16 71.21c-29.56,-58.65 -127.4,-154.07 -181.33,-184.15 -80.15,-44.71 -167.76,-76.51 -270.56,-87.23 50.97,87.95 121.2,143.71 92.52,296.72 -110.87,-150.06 -205.34,-287.8 -464.92,-263.36 31.61,54.46 119.74,185.03 93.93,275.84 -27.85,-37.38 -35.33,-97.6 -57.21,-144.37 -24.07,-51.44 -53.87,-91.23 -83.99,-125.21l11.66 -41.07c173.23,-30.95 329.61,17.54 430.57,144.95 4.75,6 13.3,19.46 18.3,25.49 19.19,23.11 6.93,10.19 25.24,24.09 -14.5,-107.45 -83.14,-135.36 -116.56,-199.03l17.76 -30.95c65.58,-5.76 150.13,19.11 204.7,38.53 76.45,27.21 125.15,67.26 181.12,89.09 -32.41,-92.01 -62.91,-106 -55.16,-228.54 4.81,-76.18 29.99,-165.59 55.54,-221.69l54.53 21.61 12.04 126.42c9.95,-16.33 2.86,11.75 11.98,-26.48l12.78 -111.09c-1.93,-71.5 -30.23,-94.98 -33.41,-136.28 50.54,-7.28 84.03,47.55 127.26,63.64 -7.44,-205.51 -13.98,-435.56 -116.01,-619.47 -1.34,-2.43 -2.58,-5.28 -4.06,-7.6l-23.69 -25.91c11.83,274.57 -237.19,423.66 -477.01,383.7 -35.06,-5.84 -71.68,-14.81 -106.89,-28.33 -35.53,-13.65 -67.1,-39.06 -102.9,-44.94 -7.91,-21.56 -0.45,-11.26 -16.04,-29.3 -9.31,-10.79 -7.96,-6.47 -22.55,-20.35 -18.46,-17.55 -28.75,-28.55 -42.48,-47.93 -52.1,63.98 -14.49,188.31 -197.43,256.19 -54.56,20.25 -136.74,11.76 -199.86,16.1 -98.62,6.77 -116.1,-14.04 -192.71,-28.11 37.21,455.82 -324.94,788.02 -194.72,129.52 46.33,-234.3 86.84,-162.36 42.25,-325.34 -40.85,15.24 -39.85,26.31 -72.87,37.72 -21.6,7.48 -70.16,-4.42 -86.99,10.23l-28.59 88.37c-9.11,35.23 -15.53,63.51 -24.24,101.28 -16.8,72.87 -30.9,132.95 -45.52,203.51 -14.38,69.42 -82.16,367.54 -57.49,407.52 29.97,29.8 180.06,-23.82 290.46,78.86 12.03,11.19 20.52,21.58 31.02,34.07l37.37 34.27c62.36,-69.43 117.57,-187.29 230.58,-186.05 6.73,48.05 -46.45,60.67 -51,148.38l172.55 -157.59c53.15,-32.82 174.08,-81.58 254.74,-68.13 9.34,44.54 6.17,23.7 -24.47,61.13 10.55,123.13 122.08,185.44 170.84,271.64 -86.16,-19.02 -157.2,-142.97 -189.6,-232.18 -56.66,48.3 -47.74,147.51 -46.23,215.81 -67.12,-134.05 -12.48,-173.83 24.54,-275.29 -207.73,35.12 -301.69,155.15 -379.93,302.65 -98.1,184.98 7.84,-201.35 8.12,-203.41 -124.74,46.57 -151.96,163.17 -171.91,279.01 -19.23,-65.84 -5.05,-76.28 -7.86,-138.52 -145.97,-94.89 -158.48,-157.53 -393.04,-96.11l-56.95 34.59c91.13,39.73 176.61,108.3 206.2,206.08 -18.88,-15.33 -47.8,-46.05 -67.87,-58.66l-183.86 -94.73c-34.54,-21.86 -49.82,-43.3 -83.76,-59.09 4.88,35.94 34.19,148.96 45.67,176.53 24.56,58.99 56.96,84.14 89.21,127.11l-62.27 -32.96c-99.53,4.8 -149.13,13.3 -215.83,64.6 -54.92,42.23 -82.52,93.73 -136.89,130.42 35.64,24.27 138.28,26.67 244.53,90.47 48.1,28.88 158.46,107.38 163.44,174.95 -21.07,-43.39 -57.65,-28.89 -107.19,-38.41 -52.57,-10.11 -82.09,-32.03 -127.6,-44.79 41.34,118.66 145.78,199.91 257.07,232.22l-117.06 84.72c-32.85,33.92 -69.15,78.56 -75.34,132.36 109.08,-38.14 247.96,-8.29 320.7,39.98 98.32,65.25 121.73,117.94 284.23,118.11l12.39 -64.98c-69.42,4.6 -118.7,-9.74 -166.52,-27.2 0.99,-77.02 55.56,-61.16 118.46,-78.96 -52.14,-70.92 -106.7,-65.72 -118.31,-184.42 44.05,-32.54 42.3,-9.45 98.12,11.55 44.21,16.64 76.86,24.81 118.42,41.94 -90.98,13 -107.04,-13.61 -177.83,-26.91 31.2,163.22 132.58,90.89 170.64,152.05 -38.02,37.9 -98.32,33.48 -150.87,55.55 22.13,16.47 36.52,25.63 81.88,19.62 40.12,-5.32 105.7,-46.98 130.83,-65.54 36.25,-26.78 5.77,-35.87 51.49,-48.06 11.19,47.94 -22.24,69.66 -38.45,108.12 60.07,-13.94 133.71,-71.98 172.65,-109.12 -4.15,60.29 -126.1,142.92 -202.64,155.39 -20.8,-20 -10.93,-14.03 -35.3,-28.9l-21.22 92.63c63.1,-4.6 146.92,-17.47 179.44,13.86 -17.05,23.46 -173.18,26.95 -178.12,26.13 -44.13,-7.27 6.28,-3.03 -47.95,-29.06 -101.59,30.1 -81.1,66.81 -217.94,64.48 95.46,145.32 379.67,127.07 457.05,135.91 -4.21,55.97 -30.46,56.52 -47.59,105.7 57.17,-19.49 54.82,-31.06 97.44,-53.92 -16.99,-48.72 -65.23,-185.73 -56.97,-227.57 59.19,6.09 74.76,130.25 91.01,181.57 66.47,209.97 169.36,455.92 185.88,678.94 26.13,-22.29 25.59,-117.75 52.62,-176.99 110.88,-242.98 158.78,-27.86 -14.99,-536.68 -20.49,-60.03 -41.48,-122.22 -59.86,-184.7 -23.34,-79.29 -5.27,-172.57 -111.17,-184.48 -34.08,-3.83 -24.13,1.32 -50.14,-8.35 1.27,-24.88 1.05,-15.37 5.07,-44.42l97.9 -41.27c-56.23,-44.64 -111.73,-65.75 -153.3,-132.49l24.19 -26.43c38.02,12.87 104.91,60.62 131.15,64.14 -40.06,5.9 -55.56,-6.25 -94.89,-9.38 34.48,59.87 77.09,72.3 152.39,88.52 -17.9,42.52 -48.6,40.76 -78.83,72.07l108 -6.36c24.03,-29.89 30.58,-33.33 43.39,-73l-50.1 -32.22c-25.04,-14.37 -27.82,-16.8 -45.52,-35.91l18.71 -30.67c56.14,-6.17 177.38,1.37 225.47,18.82 -7.67,7.35 -26.7,20.96 -55.97,20.64 -33.76,-0.36 -60.66,-1.81 -96.69,-0.24 91,94.94 336.42,-11.45 381.83,57.27 -25.2,16.45 -53.44,12.23 -92.08,14.18l15.44 104.41c9.29,5.39 18.51,10.54 29.38,17.99 -67.34,43.56 -72.95,-83.21 -89.48,-120 -0.65,-1.43 -2.72,-4.75 -4.2,-7.06l-100.78 10.79 -18.56 86.04c56.47,18.93 83.27,35.17 127.66,56.14 -60.71,5.18 -127.4,-16.22 -161.04,-46.9l2.56 -102.14c-49.08,9.26 -39.7,12.07 -64.3,53.59 -20.87,35.23 -27.05,42.18 -38.39,81.93 77.66,19.77 106.65,26.37 176.94,53.39 -7.86,57.72 49.19,167.57 72.22,238.69 85.53,264.11 160.19,587.16 163.18,873.97l-109.89 -529.63c-46.53,31.23 -80.8,105.58 -93.16,159.42 -9.93,43.23 3.19,37.15 -29.06,53.83 -23.11,-30.07 -23.82,-53.72 -29.03,-97.57 -59.71,37.78 -104.65,116.58 -126.36,202.93 -11.74,46.71 -10.23,99.26 -0.75,153.53 9.33,53.39 35.52,82.85 40.72,119.78 -10.27,-20.35 -108.54,-81.67 -138.49,-92.11 11.83,64.76 28.92,89.11 61.01,129.97 57.03,72.61 -9.15,40.66 -67.06,36 27.67,72.18 101.05,117.02 168.12,146.74 109.87,48.67 151.29,-2.02 267.53,17.85 85.96,14.7 201.52,-20.75 294.08,-11.35 217.26,22.06 139.26,31.01 246.04,51.14 22.56,-55.21 61.17,-104.66 88.07,-171.24 50.86,-125.89 67.01,-245.91 178,-334.43 57.88,-53.09 246.53,-108.59 302.69,-108.67 -123.68,33.46 -331.93,94.39 -405.77,276.12 -24.2,66.63 -37.59,126.82 -65.65,186.33 -21.2,44.94 -71.69,133.28 -82.64,177.01 21.69,49.67 55.76,88.81 60.5,159.08 5,74.04 -20.39,120.2 -28.89,182.29 59.65,-31.82 113.93,-95.53 165.09,-142.34 52.44,-47.99 327.89,-434.17 380.99,-514.53 10.41,128.26 -202.48,250.69 -242.1,375.72 66.25,-24.53 104.15,-69.65 173.19,-94.19 65.56,-23.3 69.4,-75.38 115.9,-137.39 217.97,-290.61 265.5,-299.66 83.52,-411.05 -66.05,-40.42 -82.48,-34.61 -154.14,-57.05l12.46 -3.96c84.69,-9.57 285.16,94.21 293.65,166.45 -11.14,48.96 -95.39,158.98 -127.59,202.98 -26.55,36.29 -48.37,63.58 -77.09,97.62 -28.43,33.7 -60.99,62 -77.26,102.01 83.68,-27.9 141.82,-65.86 249.31,-77.42 103.65,-11.15 199.39,-16.18 292.9,-1.67 83.82,13.01 160.53,38.83 218.63,75.04 38.23,23.81 142.32,103.39 141.62,164.56 -12.04,-24.57 -91.27,-96.64 -128.38,-120.26 -294.41,-187.38 -783.62,-68.61 -1037.33,138.81 -25.02,20.45 -243.49,236.98 -265,279.79l73.27 -5.44c0.11,5.54 -1.12,19.19 -0.42,21.77 0.35,1.32 1.59,5.13 2.04,6.42l100.99 -33.44 44.79 35.24c29.44,-26.96 279.58,-92.97 343.2,-96.41 -77.79,44.81 -187.94,46.1 -286.75,70 -72.84,17.62 -161.51,102.76 -225.16,130.9 6.1,-25.24 35.94,-46.88 47.84,-71.3l-84.64 35.49c0.78,-35.5 -2.89,-17.86 18.78,-38.82 27.64,-26.76 18.81,-8.72 30.56,-50.02 -60.9,9.27 -95.33,22.34 -133.23,49.43 -17.78,-95.48 56.49,-186.1 28.99,-318.89 -5.03,-24.29 -7.91,-34.86 -18.38,-53.98 -13.88,-25.36 -17.77,-22.88 -30.42,-37.73 -94.03,-110.44 -258.62,-92.5 -391.98,-67.39l44.86 36.14c-159.4,-5.51 -276.78,-110.11 -411.01,43.65 -37.78,43.26 -104.55,59.11 -97.01,175.29 4.88,75.34 30.58,99.6 53.59,159.09 26.33,68.08 2.83,44.42 -6.76,53.1 5.31,-31.49 -30.56,-79.82 -46.24,-108.6 -35.56,-65.26 -16.73,-193.94 43.83,-251.12l88.41 -90.47c-2.95,-2.48 -6.7,-2.44 -8.89,-7.4 -7.59,-17.15 -8.85,-7.74 -17.02,-11.77l-69.73 -25.62c-78.69,-37.86 -176.16,-99.58 -194.17,-197.71 38.5,-33.5 29.11,-8.23 87.36,5.57 -24.71,-67.52 -58.22,-86.58 -61.03,-180.87 30.93,-14.85 35.4,-5.8 64.63,5.17 -13.78,-67.15 -147.15,-576.76 -204.76,-647.5 -42.46,27.08 -70.89,60.96 -132.23,52.78 -15.52,-58.68 21.03,-57.6 39.32,-109.34 -244.24,18.98 -368.06,-35.86 -483.46,-162.51l24.25 -32.92c68.63,-7.48 80.55,11.21 141.45,-15.73l-57.89 -27.97c-62.41,-28.94 -104.72,-75.29 -166.4,-103.05 -77.3,-34.8 -173.22,-36.41 -257.78,-16.66 -60.54,14.14 -19.36,6.54 -36.8,-3.68 -8.62,-7.05 -30.63,6.63 4.43,-64.39 12.02,-24.34 21.59,-43.27 38.16,-68.32 29.6,-44.74 81.91,-79.09 113.52,-111.39 -46.88,-43.62 -102.92,-65.72 -148.56,-116.46 -47.45,-52.76 -135.34,-224.49 -37.89,-175.22 64.95,32.85 44.71,51.6 156.54,66.23 -34.65,-56.32 -104.02,-87.59 -158.88,-111.66 -90.93,-39.9 -112.72,-33.37 -231.86,-22.81 -10.74,-62.4 66.84,-101.1 109.14,-145.48 45.32,-47.53 77.92,-85.55 149.8,-117.58 -49.5,-66.75 -108.25,-81.29 -209.74,-64.05l-27.31 -44.62c124.4,-157.25 129.64,-104.73 213.08,-176.07 -41.1,-90.3 -72.07,-252.27 -13.5,-348.82 55.69,0.67 46.28,43.04 75.6,87.64 25.22,38.37 48.25,70.02 95.89,84.08 -26.25,-92.91 -60.13,-134.34 -113.25,-190.51l23.97 -31.55 152.17 66.28c3.03,-104.5 31.32,-181.01 86.83,-231.73l51.27 89.83c1.21,-3.01 8.03,-24.18 8.48,-25.93 5.39,-21.03 6.91,-35.15 10.25,-50.91 89.25,-421.05 89.47,-180.43 -115.84,-495.4 -149.99,-230.09 -344.16,-474.48 -541.34,-648.07 -139.24,-122.57 -284.22,-221.66 -426.55,-347.97 -135.08,-119.89 -270.26,-239.47 -397.49,-382.61 -117.77,-132.5 -245.32,-280.62 -337.12,-455.37 -234.65,-446.69 8.72,-568.23 70.23,-690.01 63.62,-125.91 158.91,-216.04 248.61,-337.05 120.68,-162.81 157.46,-174.42 305.26,-279.17 53.53,-37.95 530.82,-280.92 599.32,-278.95 47.37,1.37 455.46,284.31 513.25,351.65l209.04 257.35c49.62,62.71 125.73,69.86 191.02,110.53 176.9,110.21 106.9,135.63 376.06,239.66 200.47,77.48 49.5,300.36 -141.65,276.97 -96.86,-11.86 -139.17,-73.02 -212.77,-98.01 -6.3,177.36 0.8,148.09 -67.1,285.42 -33.83,68.42 -93.08,191.83 -136.38,236.8 1.14,52.95 9.97,104.93 15.06,157.56 7.4,76.41 -10.38,80.32 -21.11,139.26 39.61,25.83 40.18,35.75 70.21,66.95 109.32,-46.07 101.26,-94.61 281.98,-111.95 115.32,-11.07 202.81,47.21 240.66,128.99 73.6,159.01 -82.44,187.71 -133.9,207.37 -83.46,31.89 -217.53,80.03 -307.37,98.62 45.94,65.27 202.96,130.13 276.97,184.45 16.96,12.44 30.09,21.82 42.66,32.47 23.28,19.72 26.69,28.76 54.59,37.22 40.93,-28.79 65.74,-104.24 88.22,-143.42 135.62,-236.4 321.28,-342.87 326.35,-384.85 -8.41,-51.03 -35.87,-126.29 -48.13,-183.74 -19.49,-91.39 -31.73,-120.52 21.99,-178.78 90.5,-98.15 224.42,-195.16 350.59,-262.87 62.96,-33.78 31.39,-13.31 54.6,-67.03 27.15,-62.86 70.02,-86.33 59.16,-174.68 -22.74,-185.06 -69.65,-148.41 123.24,-317.57 -7.08,-108.67 -61.93,-126.28 -77.87,-216.05 -52.05,-8.52 -81.44,-27.06 -110.66,-54.93 -12.99,-99.81 -19.05,-95.76 -75.68,-155.32 -108.09,-113.65 -1378.85,-1637.18 -1465.15,-1775.92 12.24,-5.95 20.28,-11.38 34.01,-9.08 10.81,4.73 1153.71,1414.63 1162.85,1421.54 2.29,1.74 4.34,3.19 6.16,4.4 18.13,61.08 152.35,194.94 197.95,241.08 127.76,129.23 163.71,132.7 176.54,274.58 80.07,42.62 321.59,73.93 410.47,71.63l79.15 -124.84c-304.43,18.98 -455.04,-113.24 -684.85,-307.97l-157 -150.87c-11.71,-7.91 -1181.48,-1422.46 -1191.27,-1429.55l12.63 -42.14c10.58,16.03 1274.13,1520.71 1299.62,1544.83l309.38 245.86c26.7,19.44 54.59,39.03 83.69,57.6l80.43 50.64c19.97,13.66 274.53,-7.72 318.02,-9.79 -17.92,-168.03 -5.49,-496.11 58.2,-595.03 -2.74,44.46 -16.64,82.21 -22.89,131.17 -5.93,46.45 -12.41,100.92 -14.59,148.12 -4.86,104.91 0.3,216.59 -2.38,317.35 227.85,-5.52 197.91,-73.46 300.96,-90.28 -54.68,-154.2 -84.68,-284.19 16.36,-413.02 -62.13,-42.73 -146.65,-141.1 -204.66,-202.08 -2.45,-2.59 -14.65,-15.21 -16.71,-16.76 -15.45,-11.6 -7.6,-5.34 -21.12,-10.78 -8.16,-40.77 -41.06,-66.81 -64.17,-104.21 -24.21,-39.17 -45.64,-71.1 -52.88,-115.96 66.46,-74.3 -10.5,11.84 29.12,-73.74 13.73,-29.68 1.74,15.13 14.55,-29.46l-186.29 -250.84c-12.56,-16.6 -24.88,-31.21 -39.59,-48.7 -30.78,-36.58 -52.14,-62.04 -81.4,-96.48 -55.16,-64.89 -103.21,-119.94 -161.36,-181.43 -35.55,-37.58 -592.66,-627.18 -613.12,-665.6l30.37 -20.55 777.1 851.19c151.54,181.35 174.27,227.39 300.38,411.85 106.52,-41 222.05,-77.23 341.39,-107.81 -20.86,-70.93 -66.22,-121.64 -97.19,-183.97 -182.85,11.15 -216.64,-105.77 -258.25,-268.74 -13.61,-53.35 -32.7,-179.3 -54.75,-225.12l-80.01 -124.4c-19.26,-24.48 -24.94,-6.01 -10.25,-41.55 37.59,17.42 7.96,-1.64 33.85,36.14l38.53 40.68c-0.22,-18.43 -2.87,-36.87 -4.41,-54.13 -18.5,-24.32 -32.35,-205.15 -40.41,-243.98 12.07,-49.76 -17.16,-278.76 -15.1,-333.86 6.34,-168.32 54.54,-307.68 238.59,-340.02 177.66,-19.02 243,-40.86 403.65,-12.66 384.05,67.39 263.29,207.69 286.39,504.75l1.35 -0.08c12.31,73.48 25.1,162.83 36,245.94 10.25,61.75 19.25,124.12 21.9,179.23 39.71,299.22 188.31,408.59 -166.65,564.47 -147.68,64.86 -214.78,58.7 -388.7,81.38 31.59,57.19 70.62,102.38 98.73,163.39l221.35 -48.97c58.16,16.89 118.66,116.7 139.3,188.75 109.86,-15.96 221.59,-83.66 354.34,-96.58 60.02,-5.84 116.72,-2.86 154.15,37.89l80.18 98.57c17.53,14.12 4,4.21 25.87,15.26 -23.28,-258.12 -122.91,-403.44 -225.92,-575.2 -55.36,-92.32 -274.8,-410.45 -280.22,-508.09 5.82,40.35 279.61,446.44 344.82,573.56 114.29,222.84 130.26,286.35 186.58,524.42 17.25,72.94 68.05,84.72 104.75,133.58 74.61,-10.61 79.89,-18.59 160.66,-12.95 -56.87,-669.23 -278.64,-936.15 -649.47,-1437.43 -32.24,-43.59 -202.44,-247.21 -220.69,-290.47l2.11 -59.95c92.52,87.98 538.26,700.67 610.66,823.72 189.33,321.77 245.91,543.44 287.52,916.61 16.02,-13.93 7.9,-1.38 24.74,-25.51l54.79 -95.24c162.87,-267.31 359.77,-507.25 548.15,-814.32 100.49,-163.8 187.45,-321.52 253.96,-515.32 51.74,-150.76 107.12,-469.8 78.87,-667.14 -55.97,-3.63 -124.98,15.74 -184.5,26.34 12.8,37.86 46.42,151.6 29.23,189.36l-68.33 -187.79 -72.54 7.19 27.73 139.81c-45.92,-15.53 -57.76,-78.92 -69.22,-132.5l-175.05 14.51 23.59 188.52c-36.86,-21.33 -41.16,-109.66 -47.1,-141.97 -10.81,-58.78 -1.25,-38.61 -48.08,-41.94l-0.66 97.55c-29.34,-11.27 -27.63,-53.9 -32.9,-94.02l-273.61 16.44c-23.24,-33.32 -26.79,-48.9 -30.4,-101.38 -62.83,25.57 -81.32,68.71 -138.92,92.09l-16.9 -20.41c34.09,-48.92 101.65,-93.18 159.93,-127.93l-11.43 -115.36c-53.93,14.97 -142.55,82.02 -194.25,64.41 27.04,-28 139.63,-89.6 188.11,-105.51 -13.58,-224.94 -119.56,-423.97 -149.82,-547.05 -107.77,23.69 -133.2,59.65 -153.84,2.59l130.14 -43.34 -43.23 -96.74c-45.25,14.11 -74.19,25.19 -107.64,-0.3l85.28 -32.65 -8.78 -30.42 54 -5.05c14.21,31.34 -2.92,25.84 97.68,16.24l-73.4 34.76 44.74 98.65c67.59,-15.8 161.09,-59.71 210.96,-50.64 -50.35,44.15 -132.27,52.4 -192.33,91.81 74.45,167.33 111.33,325.42 150.37,533.16l69.9 -3.91c-9.86,25.77 -36.67,28.21 -60.41,37.14l9.53 113.41c35.5,-15.88 56.14,-32.74 90.53,-47.86 2.51,29.11 -18.9,34.36 -41.24,52.54 -23.29,18.96 -34.38,29.05 -52.18,48.7l6.81 99.64 245.23 -18.68c-4,-54.8 -14.05,-139.21 13.03,-168.74 16.92,28.53 14.16,40.63 17.98,82.51 4.53,49.77 1.21,59.99 21.9,86.39 15.46,-34.2 1.07,-16.09 -0.86,-54.53 -2.19,-43.64 3.14,-35.34 24.31,-47.88 25.83,35.12 23.12,47.48 29.47,100.25l166.67 -14.93 -15.47 -105.95c27.09,13.15 39.99,73.59 51.72,103.55l74.13 -6.09c-8.96,-39.31 -25.3,-55.14 -10.57,-91.73 41.05,13.49 22.77,14.26 48.01,61.35 26.1,48.7 104.24,23.39 192.27,15.73 -14.03,-344.08 -199.28,-816.88 -337.55,-1038.01l58.32 -5.46c24.19,73.97 131.87,261.95 182.23,401.98 58.35,162.27 84.6,299.28 124.42,481.56 143.15,655.18 9.19,1305.82 -223.85,1881.5 -73.33,181.15 -241.9,579.94 -369.69,735.39 18.97,74.51 54.92,153.3 78.9,239.53 69.29,249.13 97.42,175.99 482.12,417.06 257.15,161.15 481.76,295.68 691.22,502.03 181.36,178.68 393.86,455.22 525.56,688.89 55.66,98.75 144.27,281.65 146.07,430.34zm-6670.54 -1985.01c-8.2,19.66 -143.62,4.95 -209.7,115.69 -50.03,83.14 -105.42,270.36 -124.36,362.04 124.71,-59.2 113.34,-147.63 350.1,-132.11 117.97,7.74 247.45,141.75 343.33,19.24 -40.87,-56.24 -78.49,-106.63 -124.75,-161.88 -48.94,-58.46 -187.41,-150.91 -234.62,-202.98zm22.59 -66.19l5.39 3.78c67.45,54.5 319.8,334.32 361.29,430.28 54.67,-3.36 108.72,-16.3 162.9,-11.92 53.22,4.29 88.11,15.44 143.71,18.74l-33.18 -45.71c-68.91,-74.37 -577.33,-497.48 -655.05,-547.26 -7.1,-4.55 -657.03,324.16 -723,377.8 -97.07,78.91 -301.21,357.9 -369.86,458.91 -68.63,100.96 -93.67,162.24 -78.48,323.29 26.07,-13.62 37.92,-25.54 60.56,-36.17 -17.82,59.5 -56.28,29.99 -53.4,111.61 42.28,-18.89 39.95,-33.09 87.56,-43.87 -6.59,50.62 -46.54,49.45 -81.43,85.26 96,466.43 36.22,235.17 196.52,385.86l-98.21 -33.7c16.99,80.92 118.08,92.05 131.44,149.71 -25.27,-4.03 -25.78,-6.95 -50.07,-25.12 -30.07,-22.48 -28.15,-25.97 -63.72,-38.94 11.9,132.38 122.61,229.44 232.4,345.58l215.94 212.62c43.98,42.05 27.54,49.08 94.68,23.38 -18.59,-57.88 -63.5,-59.62 -89.68,-124.36 36.65,15.6 81.45,64.28 101.95,93.25 44.44,-18.5 29.42,-16.86 60.17,-40.26 -10.57,-61.74 -80.85,-131 -62.87,-167.13 23.62,18.7 31.77,29.51 49.77,53.4 10.31,13.67 14.73,22.08 22.69,32.81 15.48,20.86 9.91,15.02 27.6,28.72 22.06,-20.06 32.51,-35.8 59.64,-56.06l65.78 35.48c16.03,-19.29 3.95,6.84 14.19,-23.63l21.36 -62.38c26.6,28.44 17.73,79.3 20.41,129.06 76.56,31.7 291.41,227.37 341.9,304.74l60.61 -12.05c-4.13,25.59 18.19,-27.46 -2.16,11.05 -1.29,2.43 -10.69,17.26 -11.44,18.32 50.72,3.08 16.28,-4.63 39.76,10.87 -17.93,22.91 -11.64,11.28 -14.69,41.8 167.56,175.53 124.6,168.61 245.88,175.11l-60.22 17.31c10.78,30.95 24.54,46.6 33.95,77.21 22.82,74.3 -11.52,17.78 40.47,65.15 -45.24,27.03 -81.56,-26.03 -146.29,62.06 17.44,34.02 81.41,99.26 69.82,128.57l-99.64 -113.64 -62.24 37.74c68.42,89.32 140.43,182.25 209.31,281.79 60.59,87.54 151.35,235.92 229.84,262.78 50.17,-194.43 152.04,-447.85 264.93,-576.11 112.8,-128.14 246.59,-208.66 413.48,-249.58 77.95,-19.12 137.84,-7.3 198.9,-19.89 8.23,-187.52 232.57,-423.75 150.01,-579.28 -25.51,-48.03 -1.85,-17.75 -29.32,-26.62 -32.36,-10.37 -47.97,21.82 -77.59,48.61 -105.09,95.06 -244.35,279.85 -288.85,416.27 -7.35,22.55 -3.98,26.53 -13.13,49.61l-77.16 131.25c1.56,-57.53 31.25,-92.45 39.36,-140.31 -54.58,10.04 -202.64,151.68 -260.42,193.75 -298.09,217.05 -372.58,161.65 -269.21,79.75 69.6,-55.13 154.87,-130.11 243.6,-159.96 -47.4,49.5 -227.35,150.91 -245.96,208.35 157.68,-71.77 325.98,-185.23 463.79,-299.15 78.49,-64.89 -77.02,-125.1 -125.25,-156.56 -54.4,-35.49 -191.02,-139.94 -251.69,-144.65 -54.36,-4.23 -80.08,7.3 -117.33,-16.78 -54.16,-35 -80.87,-107.29 -138.17,-135.88 -68.04,66.82 -130.54,110.83 -261.08,57.65 -71.98,-29.32 -124.99,-143.31 -140.81,-243.84 -85.13,25.32 -83.39,64.76 -199.86,22.82 -69.03,-24.85 -110.82,-52.59 -121.69,-145.67 47.79,23.72 24.01,50.83 73.74,83.5 31.13,20.45 76.65,29.72 114.13,34.65 97.44,12.83 126.14,-70.36 156.83,-145.49 40.91,-100.22 112.95,-377.85 92.42,-508.06 -55.68,-72.68 -87.16,-73.8 -205.04,-57.61 -19.8,130.11 -111.58,344.69 -165.13,458.25 -122.31,259.35 -296.17,126.11 -319.7,-56.03l-113.12 -78.09c-140.68,55.46 -409.97,-162.99 -483.81,-273.29 125.78,72.06 326.63,268.97 473.2,259.07 -3.4,-106.88 -127.57,-319.82 -136.81,-495.03 31.72,40.56 94.28,226.62 115.59,298.24 11.79,39.62 36.5,116.54 52.34,156.18 22.61,56.61 45.42,105.88 99.79,122.26 6.75,-65.26 -4.94,-125.31 4.21,-200.96 9.7,-80.19 10.49,-108.56 1.43,-201.79 -15.03,-154.93 -56.19,-242.81 -11.76,-390.15l141.89 -486.87c56.57,-225.9 259.29,-180.3 306.78,-240.62l-5.39 -3.78zm3455.82 -1694.09l-0.42 -3.24 -47.54 -312.22c-17.67,-150.95 1.68,-278.89 -16.79,-412.45 -59.42,-39.52 -64.32,-52.1 -143.46,-77.92 -185.41,-60.5 -387.62,-47.67 -573.7,20.95 -76.92,28.37 -87.65,59.59 -101.59,134.07 -10.58,56.53 -12.93,119.48 -15.94,185.42l21.28 309.46c0.99,11.47 24.5,161.21 22.98,170.63 0.88,2.32 1.88,4.93 3.02,7.84 3.43,8.77 5.05,40.91 6.53,52.35l65.21 286.97c16.8,63.72 32.35,124.68 54.4,177.46 29.06,69.53 45.92,97.54 125.47,107.39 192.46,23.82 388.54,-10.6 553.09,-112.77 70.22,-43.61 72.25,-57.04 120.73,-109.45 -10.54,-134.79 -56.06,-255.29 -71.04,-406.87l-2.23 -17.62zm950.35 1448.67l-7.17 46.91 -54.7 15.87c-86.3,-77.24 -216.38,-123.99 -384.88,-107.07 -102.64,10.29 -271.74,113.3 -380.38,169.75l-23.63 -12.55c-12.41,-6.62 -10.04,-5.21 -29.39,-14.86 -114.94,-57.36 -321.34,-375.8 -239.07,-430.22 41.31,-27.33 317.25,-124.63 369.47,-138.48 258.94,-68.65 183.29,-7.44 399.27,187.39 106.12,95.72 159.95,126.13 215.72,174.29 18.22,15.74 24.88,26.8 39.28,40.31 44.32,41.6 60.86,29.3 95.48,68.66zm-1769.42 -388.57c115.27,-79.55 612.88,-205.92 639.89,-195.07 37.26,26.05 63.02,96.3 93.3,134.96 -34.1,84.83 -129.78,57.74 -149.67,111.35 3.74,118.18 53.77,198.28 100.47,273.33 35.42,56.92 74.92,106.79 126.34,149.96l52.74 37.39c-31.6,47.33 -73.78,34.6 -159.19,47.07 -230.14,33.61 -193.97,79.05 -386.45,-109.55 -80.31,-78.68 -305.45,-302.63 -317.43,-449.44zm482.42 608.14c-69.71,102.22 -74.96,106.53 -114.95,230.64 -16.05,49.82 -8.85,53.15 -39.29,84.86 -23.49,-230.67 -73.44,-223.61 6.56,-413.34 33.67,14.91 43.07,27.89 73.68,48.4 13.42,9 17.19,10.39 33.19,19.35l40.81 30.09zm-630.2 699.12c-183.32,24.56 -253.29,90.07 -318.74,-163.93l243.65 41.04c50.94,11.01 16.84,-10.41 42.37,25.28 16.94,23.68 31.67,59.84 32.72,97.61zm-5.18 -112.72c47.22,0.23 129,20.21 162.89,-2.55 -22.7,-13.86 -37.4,-18.77 -65.01,-23.91 -35.93,-6.69 -49.86,-1.77 -79.24,-17.65 19.21,-53.17 51.37,-61.08 61.05,-123.72 326.16,-2.32 248.72,-39.7 382.21,-106.72 19.76,103.95 -86.17,191.38 -167.82,236.88 -48.29,26.9 -90.19,39.98 -141.28,64.41 -23.29,11.14 -45.15,22.52 -59.36,39.35 -42.56,50.43 9.06,41.63 -75.97,46.67 19.81,-51.29 -0.47,-66.43 -17.47,-112.76zm761.36 400.52c-45.13,-43.66 -81.88,-213.31 -99.54,-273.55 26.78,-37.66 39.47,-50.34 88.24,-66.32l11.3 339.87zm-802.88 46.92c-105.74,54.6 -284.47,177.72 -393.59,214.73 11.24,-42.98 17.63,-44.91 41.46,-82.28 14.41,-22.59 28.79,-44.62 31.04,-73.49 11.69,-149.93 -136.37,-231.86 211.95,-340.9 40.37,-12.64 69.52,-15.53 114.61,-21.63 -18.02,47.21 -50.66,67.08 -56.77,86.77 -1.56,70.56 29.78,162.18 51.3,216.8zm-3536.62 556.06c-68.8,-38.44 -249.75,-360.39 -206.37,-563.79l50.91 -130.76c13.54,-24.03 10.66,-20.02 29.67,-38.34 2.31,40.78 2.21,97.13 1.27,142.87 -0.4,19.37 -2.55,42.29 -4.33,66.78 -3.41,47.02 -0.07,13.24 5.9,66.05l-36.85 35.24 48.52 -2.68c20.99,97.46 36.42,182.23 70.94,257.06l-30.23 13.84c5.32,6.21 22.23,23.21 24.47,27.58l5.47 35.16c12.09,47.72 31.16,9.98 40.63,90.99zm1955.2 -631.93c1.61,151.92 12.31,160.31 -43.81,290.04l-90.09 206.62c-15.55,31.75 -8.6,15.47 -18.1,25.94 -30.03,-42.3 -7.5,-30.56 -53.85,-71.55 15.46,-88.4 46.3,-346.5 35.38,-423.1 61.13,-14.33 100.97,-32.13 170.47,-27.95zm-1086.6 746.05c-53.76,34.52 -253.11,35.95 -154.42,-309.3 17.56,-61.41 18.72,-42.52 50.56,-89.37 56.27,-82.83 75.64,-188.06 162.15,-238.86 76.18,-44.74 161.94,2.49 171.64,74.01 6.63,48.97 -38.18,156.42 -55.03,203.42 -31.29,87.28 -113.66,320.78 -174.9,360.1zm3731.37 -1240.05c-41.9,19.92 -81.69,47.12 -123.12,72.15 -48.76,29.46 -81.04,39.5 -139.63,66.8 -122.79,57.2 -131.22,110.3 -201.91,192.69 -58.68,68.38 -150.06,147.09 -271.63,96.14 -66.5,-27.86 -198.43,-115.82 -179.81,-207.1 47.16,-86.67 316.84,-75.71 429.21,-389.35 98.64,-275.32 61.76,-272.88 315.02,-307.56 61.26,-8.4 113.09,-29.54 172.69,-44.19 96.29,-23.66 223.74,-70.37 310.98,-117.09 115.05,-61.6 207.19,-66.87 335.38,-35.24 262.87,64.86 259.36,233.75 330.86,516.02 24.41,96.35 18.68,270.36 31.1,388.11 15.72,149.12 0.5,225.99 -66.67,319.55 -53.42,74.39 -124.45,144.61 -188.27,216.88 -215.45,243.97 -173.64,49.75 -471.5,-356.52 -30.67,-41.82 -72.74,-84.58 -38.94,-146.29 53.66,-97.98 205.51,-88.87 291.92,-37.17 87.83,52.53 120.02,155.28 193.98,224.58 9.69,-34.01 -16.86,-70.49 -32,-103.96 40.99,-22.7 90.98,-30.66 149.04,-36.37 -61.57,-51.23 -103.87,-7.66 -192.4,-3.08 -38.19,-108.17 -283.62,-236.57 -415.29,-88.87 -49.67,55.71 -45.99,72.84 -30.58,154.96 -22.49,-8.35 -8.19,-2.78 -25.82,-11.24 -63.73,-30.57 -112.26,-28.84 -168.8,32.02 -49.74,53.53 -75.22,129.7 -38.27,221.67 -51.32,7.16 -89.13,2.86 -124.14,30.57 44.97,27.39 91.98,2.66 137.34,-15.64 4.39,51.57 -5.12,49.17 -12.47,93.1 -8.21,49.13 -20.2,69.95 -55.99,117.27l-62.47 -14.16c-87.89,-55.6 -39.22,-1.5 -56.72,-153.93 -11.94,-104 -72.49,-361.59 -12.11,-485.35 29.13,-59.7 7.13,-36.12 66.35,-67.01 72.24,-37.67 96.27,-76.46 144.67,-122.39zm-3457.49 664.26l-24.99 -35.91c-104.08,-146.81 -244.54,-76.71 -335.58,95.57l-71.85 144.59c-1.44,-2.67 -3.37,-3.48 -4.16,-8.09 -0.81,-4.82 -3.22,-6.35 -3.85,-8.7 -1.81,-6.7 -6.12,-29.31 -6.16,-29.67l-3.63 -163.53c-16.7,-178.27 -60.73,-375.89 108.87,-543.08 258.15,-254.48 483.02,47.31 693.71,21.89 -66.32,-11.24 -86.87,-44.88 -109.13,-71.49 105.63,-76.35 349.62,-60.38 451.88,-2.43 43.58,24.69 78.4,38.17 121.26,60.87 77.47,41.01 131.52,111.71 207.7,162.72 85.29,57.1 151.38,67.99 243.73,117.77 11.37,68.44 15.01,92.7 -28.33,136.71 -126.64,128.61 -313.98,-31.44 -356.92,-58.64 -143.02,-90.58 -231.42,52.97 -414.45,2.66 -49.81,-13.69 -80.24,-35.35 -122.99,-42.99 38.54,44.35 148.24,102.62 221.61,83.29 40.38,81.17 37.8,98.45 32.75,188.26 -3.06,54.45 3.88,165.15 -6.21,210.23 -2.78,1.66 -6.53,7.75 -8.38,4.93l-34.42 5.99c-215.02,-4.77 -201.19,-17.69 -249.8,174.71 -38.62,19.74 -49.09,3.44 -104.35,6.6 43.22,-195.65 108.76,-364.14 -29.22,-451.07 -50.5,-31.82 -102.37,-26.92 -167.09,-1.19zm3958.46 258.03c-52.41,19.29 -125.27,46.43 -176.8,23.24 -55.01,-24.74 -222.15,-225.57 -268.46,-284.8 -181.1,-231.7 87.4,-387.04 224.07,-195.48 111.62,156.45 143.93,244.81 212.95,350.12 22.65,34.54 40.91,46.68 60.77,75.39 -10.83,10.68 0.79,6.46 -27.81,21.81 -11.97,6.42 -11.75,4.94 -24.72,9.72zm-1601.01 -300.72c-13.91,81.27 -293.76,406.52 -350.22,484.22 -58.6,80.64 -112.72,159.25 -168.1,243.41l-131.03 222.73c-18.59,23.42 -4.1,8.84 -34.76,26.31 -28.95,-96.67 -106.08,-350.31 -98.46,-446.44 52.52,-82.37 261.49,-223.58 364.23,-283.99l418.34 -246.24zm1337.46 309.79c0.12,61.63 -16.25,95.69 -47.21,134.55 -22.7,28.47 -50.51,60.61 -80.18,94.54 -66.98,76.62 -133.36,148.39 -219.31,127.41 -110.88,-27.06 -340.98,-227.29 -392.17,-320.39 19.83,-97.64 131.31,-163.09 273.68,-148.13 117.15,12.3 144.12,127.88 232.04,154.97 -28.73,-47.07 -61.21,-63.39 -84.92,-104.26l93.39 -112.45c0.26,-0.25 17.81,-14.31 18.27,-14.68 5.97,-4.66 11.38,-12.37 13.03,-9.73 1.25,1.99 4.43,-3.26 8.95,-7.02l184.43 205.19zm-3311.47 58.51c218.7,-44.54 224.09,0.14 231.22,75.37 13.75,144.81 38.52,175.23 -16.7,272.3 -48.42,85.08 -99.68,176.57 -162.71,248.13 -54.19,61.52 -209.22,81.33 -277.4,-47.06 -25.45,-47.92 -49.03,-88.26 -70.38,-137.47 31.86,-90.63 82.26,-143.14 100.32,-265.91 32.37,13.06 62.56,19.15 110.27,15.27 -6.06,63.78 -6.8,85.43 -54.78,125.55 -46.14,38.59 -50.8,67.5 -70.63,88.15 47.38,-8.66 44.51,-37.8 86.96,-60.03 -0.91,16.27 -3.9,33.84 -3.72,40.8 1.11,41.57 3.37,18.49 8.54,26.64l70.76 -180.62c24.48,-78.05 4.09,-122.91 48.25,-201.12zm280.24 507.9c129.49,-27.61 121.74,-137.01 336.27,-152.56 85.7,-6.22 125.36,2.58 172.11,51.09 171.52,177.97 -161.42,226.71 -357.03,285.7 -56.01,16.89 -142.6,48.86 -191.52,12.18l-122.48 -111.49c20.08,-54.14 101.96,-132.42 132.89,-227.48l70.51 77.38 -40.75 65.18zm2940.92 -331.34c2.91,45.24 -32.55,197.3 -49.11,234.78 -38.67,87.48 -280.69,196.01 -375.12,235.29 -90.76,37.76 -157.75,68.44 -200.71,-29 -41.13,-93.26 -5.03,-175.15 53.07,-216.31 24.76,-17.54 179.82,-92.39 205.16,-100.1 50.26,-15.3 113.86,74.5 210.79,21.57 56.57,-30.88 121.21,-109.8 155.92,-146.23zm-877.11 255.61c-69.53,58.6 -158.42,108.42 -239.4,163.96 -45.68,31.32 -189.67,158.22 -215.17,165.65 -18.74,-118.46 25.95,-455.33 39.39,-582.18 12.6,-118.76 29.61,-313.61 55.16,-428.22 5.9,-26.51 9.28,-40.48 16.69,-67.11 8.11,-29.1 1.59,-12.29 10.39,-31.97 6.12,-13.7 7.37,-12.14 13.03,-19.89 70.98,376.3 273.12,550.86 319.91,799.76zm-1102.13 605.46c30.32,20.55 42.28,43.12 68.24,76.7l60.61 80.38c-73.39,-4.59 -150.59,-35.5 -234.61,-44.17 21.94,-37.78 26.25,-33.26 55.22,-63.52 20.93,-21.87 27,-31.31 50.54,-49.39zm-1396.23 234.18c15.41,31.56 20.9,9.29 34.17,46.96l-41.33 21.3c-50.8,-27.57 -39.22,-43.25 -79.19,-58.35l47.72 78.04 -52.77 52.91c-82.73,-111.43 -240.51,-251.99 -352.53,-341.37l-327.56 -272.64c-30.93,-27.3 -22.41,-9.79 -29.64,-51.09 71.88,-32.06 49.49,-2.96 108.8,29.05l-49.46 -66.89c16.69,-35.47 13.05,-31.12 48.24,-50.36 22.94,31.52 36.06,66.87 69.26,88.07 10.02,-30.03 -31.51,-92.07 -45.92,-123.43l44.3 -60.36c38.93,9.01 4.71,-6.79 45.48,16.15 50.45,28.39 38.1,51.59 59.66,105.53l12.28 -44.87c91.83,27.5 280.61,235.78 323.49,303.49 -13.11,28.69 -4.79,16.83 -26.67,39.2 40.48,15.42 2.96,-0.95 20.52,36.37l67.24 -17.29c33.05,49.1 66.38,65.43 141.21,170.73 14.91,20.96 5.87,4.62 28.33,24.67 26.26,23.46 33.3,42.57 42.87,79.62l-88.5 -5.44zm2258.59 -614.45c40.06,143.18 108.06,233.7 182.99,335.75 147.45,200.82 141.45,168.91 83.98,325 -84.33,228.96 -135.67,520.93 -108.85,829.86l-137.78 -60.18c-62.38,-45.54 -39.41,-109.04 -82.71,-242.8 -22.42,-69.23 -55.95,-128.52 -70.64,-193.72 -85.76,-380.44 -47.83,-327.34 -80.01,-706.85 -6.33,-74.7 -7.53,-68.47 10.81,-114.06 18.71,-46.52 -5,-12.86 23.39,-41.5 31.96,-32.23 131.85,-113.67 178.82,-131.5zm2547.76 -132.24c-95.92,-2.68 -94.07,-2.15 -159.66,55.72 -226.68,200.01 -494.05,295.84 -788.93,404.7 -118.56,43.77 -238.28,78.33 -354.5,121.26 1.31,-8.69 105.25,-276.06 141.27,-439.69 31.4,-142.63 81.43,-346.69 44.97,-484.4l45.18 -46.97c220.84,31.79 190.46,148.06 412.79,-37.74 39.68,31.96 33.16,67.89 96.42,104.46 51.12,29.55 82.59,10.22 146.74,-0.74 92.29,42.95 148.75,69.62 256.61,107.92 96.03,34.08 161.4,76.12 242.1,111.57 -15.28,21.52 -0.03,5.67 -25.45,28.04 -59.83,52.65 -20.57,22.31 -57.54,75.87zm1330.65 -417.07c71.16,116.3 247.85,412.71 190.29,604.89 -34.15,114 -209.2,223.12 -317.23,282.82 -121.02,66.87 -104.89,61.52 -131.76,29.85 13.4,-55.91 35.94,-18.67 53.45,-66.08 -14,0.88 -50.47,10.11 -51.24,10.12 -27.53,0.43 -17.29,-0.47 -32.02,-17.06 14.02,-45.08 -7.75,-4.33 36.64,-37.11 -23.78,-20.77 -9.01,-12.99 -52.58,-15.5l-27.51 -142.2c2.49,-2.12 5.86,-4.6 7.92,-5.79l44.62 -21.16c-20.82,-26.05 -20.45,-15.31 -54.68,-28.28l9.85 -79.93c2.63,-1.91 6.08,-4.22 8.1,-5.41l43.34 -23.86c-48.38,-35.33 -29.92,16.8 -44.09,-48.56 52.44,-31.98 57.12,16.16 68.61,-37.12l-42.44 -18.06c9.73,-93.33 100.73,-209.39 138.21,-280.18l53.37 23.29c-7.19,-57.94 -39.91,-21.39 -4.41,-82.68 49.69,17.5 22.89,14.78 49,35.83 17.61,14.2 13.62,10.78 28.7,-2.23 -29.37,-28.39 -24.34,-60.42 -23.68,-54.62 0.15,1.4 1.45,-4.45 1.16,-11.13l48.38 -9.84zm-4111.66 442.07c-20.09,309.56 -3.15,428.49 -2.16,728.2 -43.99,-61.98 -43.11,-234.52 -110.21,-250.02 -79.61,10.04 -263.67,137.25 -290.7,187.22 126.48,-22.45 176.95,-125.34 296.56,-151.52 37.29,104.35 117.45,331.04 116.22,453.51 -128.09,-93.53 -51.18,-136.46 -429.72,-293.45 -67.06,-27.82 -132.08,-168.77 -191.7,-239.58 -62.67,9.1 -47.04,33.52 -95.7,63.58 18.23,-108.08 109.16,-253.53 149.63,-352.92 70.13,-172.2 269.54,-466.7 382.98,-620.03 39.6,-53.53 173.51,-252.8 228.5,-285.16 -15.37,89.72 -120.7,249.15 -163.87,338.29 -52.16,107.68 -100.53,218.86 -142.88,334.14 -31.58,86.02 -207.07,681.03 -172.99,744.6 23.08,-18.13 15.43,1.82 24.96,-38.67l16.71 -146.4c20.84,-205.7 60.39,-342.42 135.83,-533.2 43.92,-111.07 96.43,-210.55 146.91,-312.05 27.32,-54.94 51.72,-104.72 78.35,-156.31 13.88,-26.87 26.36,-51.19 38.5,-78.56 6.49,-14.65 8.99,-24.24 15.46,-37.24l26.19 -35.23 -56.87 680.8zm-440.61 698.44c-11.71,61.25 -48.19,100.36 -77.07,153.25 -108.42,198.55 -120,399.44 -205.39,465.8 -47.53,-53.09 -67.99,-99.82 -129.73,-146.04 -54.15,-40.52 -110.13,-59.24 -184.75,-69.24 3.25,-87.7 47.28,-176.88 82.62,-258.84 122.4,-283.84 76.9,-250.29 514.32,-144.93zm-649.09 398.43c-192.16,13.66 -212.23,76.19 -284.92,73.97 39.77,-67.95 65.77,-289.93 121.7,-373.88 72.39,-108.66 237.31,-154.06 363.5,-167.49 -12.8,45.68 -38.29,71.58 -62.75,114.06 -77.05,133.82 -80.85,258.84 -137.53,353.34zm-358.55 232.22c-12.26,28.31 -24.26,35.32 -51.67,49.11 -83.74,42.11 -82.72,4.79 -84.69,2.46 -18.3,-44.81 68.04,-236.38 91.14,-288.86 37.42,-85.02 95.15,-195.43 161.64,-240.26l-116.42 477.55zm516.98 229.19c-37.54,13.66 -203.5,25.77 -239.49,23.04 -138.04,-10.52 -283.24,-127.23 -226.09,-278.57 23.93,-63.34 63.76,-98.03 139.77,-127.83 399.01,-156.41 673.57,256.8 325.81,383.36zm547.44 -840.01c209.95,113.77 264.32,59.21 184.87,346.47 -61.24,221.43 -56.84,253.91 -183.21,413.84 -228.75,-47.47 -111.79,-11.85 -280.15,-111.47 7.64,-101.28 18.52,-111.95 51.37,-188.08 62.11,-143.93 131.96,-395.12 227.12,-460.76zm241.38 160.44c48.34,10.55 50.33,21.24 85.66,61.71 77.1,88.32 102.3,152.63 63.79,295.22 -33.92,125.55 -152.83,222.2 -318.87,239.02 4.05,-56.25 0.56,-35.8 26.66,-76.46 71.34,-111.15 148.33,-396.36 142.76,-519.49zm1976.98 512.54c-7.55,32.29 -1.8,23.03 -51.5,49.34 -143.69,76.08 -290.99,182 -413.57,281.62 -109.88,89.31 -222.45,188.8 -349.25,254.95 -16.47,8.59 -50.6,27.9 -69.39,34.39 -38.92,13.45 -38.47,7.39 -63.87,-10.48 35.98,-35.97 43.05,-5.78 74.58,-42.89 -49.78,-31.21 -56.13,3.39 -102.5,-23.45 10.96,-7.56 0.8,-5.63 19.81,-9.54 21.83,-4.5 33.9,5.88 62.57,-9.18l-76.28 -21.43c-49.42,-16.62 -76.5,-125.38 20.55,-166.18 42.72,24.33 29.96,27.81 75.06,70.01 22.28,-33.27 -19.58,-49.99 -38.41,-102.48l92.97 -52.73 42.9 45.78c16.81,-42.3 -8.12,0.32 -12.31,-56.8l5.55 -15.37c30.33,-8.74 47.24,12.77 53.4,33.38l-16.9 -59.54c123.15,-61.53 231.76,-166.8 369.75,-222.4l35.7 28.46c22.67,-53.01 -7.09,-49 59.57,-69.49 2.3,2.45 5.07,5.75 6.39,7.8l13.45 23.82c12.03,24.59 -1.83,3.3 6.79,17.5 33.32,-59.36 -13.5,-59.89 67.52,-81.85 55.79,-15.13 65.22,-8.14 102.53,16.55 -15.32,43.71 -31.92,38.94 -43.78,79.75 49.23,-18.41 19.2,-28.92 83.47,-42.49 -1.17,55.38 7.82,9.09 -19.33,57.82 40.06,-16.57 29.33,-25.72 64.53,-14.87zm-1015.69 541.59c-15.82,52.06 12.86,6.04 -38.11,42.26 54.61,31.81 64.82,-12.68 82.92,70.54l-124.25 12.64c-31.23,-65.53 -50.06,-100.96 -81.02,-159.11 -27.13,-50.97 -34.49,-132.76 -61.14,-183.12l8.79 106.63c-40.19,-32.42 -69.45,-67.98 -107.41,-107.33 -55.65,-57.67 -61.48,-43.32 -71.09,-147.72 -30.39,-330.11 20.18,-600.62 124.88,-834.71 65.88,-147.26 6.15,-167.37 -108.21,-312.74 -60.49,-76.89 -169.9,-220.3 -198.86,-322.25l36.59 -33.73c12.27,-8.38 22.61,-14.17 34.55,-21.53 50.53,-31.12 181.12,-104.42 196.23,-147.37 33.29,-94.61 -249.99,-497.35 -316.15,-783.07 -13.27,-57.3 -36.38,-81.96 -49.29,-135.38 -11.24,-46.49 -20.95,-105.96 -22.15,-161.35 62.29,-62.61 25.9,-95.71 127.62,-123.12 31.72,118.43 143.83,209.51 248.56,235.71 137.94,34.5 262.33,-104.23 300.88,-173.98 31.68,29.08 40.22,81.11 55.56,124.42 43.19,121.92 122.26,229.63 116.17,372.18l-99 9.19c-102.39,9.82 -269.15,124.13 -171.13,227.85 55.93,59.17 178.99,180.87 238.88,210.35 -25.07,74.61 -99.57,79 -161.05,117.36 -54.05,33.73 -93.45,82.63 -105,152.17 -12.8,77.12 24.15,152.12 70.92,183.88 109.8,74.52 474.11,-150.07 541.81,-218.09 68.6,-68.92 73.21,-187.92 83.63,-292.14l32.38 -94.28c43.99,5.84 79.79,20.19 112.66,49.28 -75.48,42.85 -43.23,63.64 -23.27,131.41l-95.01 111.19c21.56,14.5 37.97,-16.65 65.49,-42.41 31.05,-29.1 47.92,-39.71 66.58,-72.25 -14.6,-37.36 -20.4,-26.98 -28.94,-74.38l10.36 -14.06c1.95,-2.18 9.17,-9.47 11.56,-11.73l46.84 -50.91 82.18 -4.8c-27.86,68.17 -44.89,20.49 -23.08,114.95 33.4,144.66 -134.18,848.65 -213.32,891.59 -3.02,1.63 -12.93,5.49 -16.39,6.82 -85.54,32.97 -223.37,78 -311.15,91.22 20.6,-68.02 280.4,-438.45 298.96,-688.82 -23.1,121.68 -157.45,396.43 -214.35,507.66 -43.93,85.89 -70.66,181.83 -171.62,213l-274.51 106.87 212.97 -54.61c-7.85,46.56 -25.23,72.85 -41.27,120.82 -13.85,41.41 -24.7,77.9 -36.87,120.66 -158.72,557.63 165.35,17.79 111.96,-79.38 -32.24,73.1 -50.26,199.3 -115.02,248.27 2.56,-73.94 70.12,-391.82 123.37,-421.24l51.18 -18.64c25.96,-7.76 36.72,-11.04 62.74,-18.95 41.38,-12.58 79.83,-24.11 124.4,-37.76 399.52,-122.29 823.08,-247.93 1190.08,-442.54 224.22,-118.91 200.36,-222.27 385.38,-230.27 11.65,78.49 52.05,182.1 77.27,249.81 21.52,57.8 78.98,174.55 89.76,219.33 -15.42,-150.01 -94.98,-309.22 -130.03,-454.99 -16.85,-70.06 -7.64,-90.27 60.87,-112.23 186.99,84.39 327.22,370.79 562.82,378.54 -114.95,-57.73 -171.49,-76.68 -267.65,-158.11 -81.13,-68.71 -140.25,-137.22 -225.08,-201.44 -306.83,-232.32 -392.39,-184.35 -568.15,-274.97l314.56 -146.81c-212.77,29.26 -488.02,255.1 -562.05,37.13l76.55 -83.73c71.97,-77.06 126.4,-157.04 190.8,-244.31 50.33,-68.23 184.58,-303.44 238.26,-336.06 62.13,202.13 -106.26,369.76 -174.73,476.47 128.72,-71.31 280.96,-354.45 191.45,-496.1 -49.78,2.18 -57.8,23.94 -80.2,56.31l-159.16 231.13c-116.65,158.92 -228.15,312.74 -389.47,423.77 -89.61,61.67 -93.85,63.22 -193.44,26.39 -304.58,-112.69 -320.1,8.69 -412.91,-64.24 7.53,-26.99 -0.16,-17.16 21.84,-43.4 9.29,-11.09 18.94,-19.2 28.81,-31.29 112.83,-2.67 132.28,11.7 234.45,-45.04 127.4,-70.74 113.37,-0.23 185.02,-67 42.61,-39.72 92.02,-102.01 128.93,-144.94 181.57,-211.15 232.1,-228.24 197.84,-568.9 -17.93,-178.33 -21.76,-343.65 -37.31,-514.12 -11.4,-126.38 -7.27,-328.13 -87.4,-402.6 -43.23,-40.19 -78.42,-34.76 -126.24,-54.47 -30.16,-12.44 -73.87,-55.7 -89.26,-86.86 120.04,14.98 83.44,-7.56 203.52,58.32 158.71,87.08 236.89,93.97 295.81,228.91 88.17,201.89 129.59,427.05 210.85,632.4 27.77,70.15 175.95,279.65 226.12,297.79 23.82,-42.51 1.09,-115.48 -16.55,-165.52 -17.63,-50.02 -30.38,-105.47 -69.73,-126.59 4.86,66.08 44.39,154.28 62.77,223.26 -127.91,-58.66 -226.35,-330.28 -245.3,-468.43 81.38,12.01 160.4,77.6 230.46,120.1 207.31,125.76 432.5,259.28 622.96,402.82 199.16,150.1 547.71,508.88 660.25,739.95l-30.2 37.84c-36.7,-14.62 -30.93,-32.25 -72.83,-38.32 12.06,50.3 4.7,9.96 17.41,40.32 8.54,20.44 2.84,-3.79 6.43,22.03 2.91,20.89 2.25,26.35 -26.32,24.31 -39.15,-2.79 -41.67,-53.36 -91.73,-50.23l63.57 86.69c-46.58,105.59 -132.19,156.83 -162.4,299.65 -39.32,3.55 -37.29,-6.68 -58.49,18.37 25.16,19.06 31.24,14.25 44.24,43.04 -19.96,30.06 -48.25,28.03 -82.74,48.67l65.35 14.06 0.02 92.49 -84.93 9.58c26.18,23.33 40.8,24.25 83.62,34.24l31.73 169.77 -86.33 28.12c33.46,6.81 92.87,-9.22 110.39,19.2 28.53,46.28 -21.06,34.99 -44.64,61.11 77.25,5.59 58.52,-24.21 91.06,29.43 -21.92,33.34 -84.52,51.02 -121.02,66.78 -297.21,128.36 -607.69,241.75 -900.39,371.34 -167.27,74.08 -326.79,148.7 -491.41,226.6l-367.45 178.75c-41.81,21.27 -74.04,52.87 -112.99,36.9 1.34,-60.11 52.66,-45.75 67.62,-103.31 -56.68,16.88 -44.96,39.91 -107.57,58.08 10.07,-67.73 34.05,-45.63 101.72,-114.73 -50.08,-19.99 -101.69,46.49 -135.99,66.55 -64.15,-54.41 -71.82,-56.93 -180.49,-23.87l-1.87 -42.38c-58.17,28.04 14.57,42.96 -91.69,70.42 5.2,-42.29 16.68,-33.17 9.24,-72.05 -86.86,5.31 13.13,61.02 -108.26,123.07 -117.54,60.08 -228.22,146.04 -339.71,212.48 -26.81,-14.91 -45.77,-51.24 -79.96,-56.39l49.68 81.06c-54.02,16.22 -8.69,2.52 -64.48,-3.55 -7.82,35.04 19.44,58.24 -82.57,84.55 -43.83,-38.08 -25.65,-37.33 -50.61,-70.15 -34.76,33.17 -2.2,62.44 18.97,103.05 -83.57,53.74 -74.61,74.39 -66.13,194.11 -18.05,-3.02 -99.1,-19.96 -65.2,14.57 20.56,20.96 61.82,17 91.62,32.32zm-530.61 22.35c-11.27,-42.8 -24.63,-73.06 -30.75,-119.89 -8.19,-62.61 -55.87,-209.21 -6.36,-246.69 61.23,-46.34 151.3,47.55 181.67,85.55 43.45,54.4 88.14,100.26 131.7,156.78 79.42,103.06 187.05,264.02 140.43,426.44 -61.11,212.93 -257.57,-7.5 -310.24,-91.98 0.18,-51.02 19.44,-93.17 38.98,-130.93 19.84,-38.33 48.41,-63.71 60.26,-99.27l-14.96 -13.67c-81.71,24.05 -129.8,105.85 -174.93,163.12 -4.74,-56.99 0.21,-68.72 -15.8,-129.46zm-2219.6 386.04c-55.13,-27.96 -21.24,-47.43 -87.12,-34.01 6.89,144.88 10.47,148.47 55.33,256.5l-90.15 19.16c-99.38,-125.85 -141.31,-76 -202.26,-118.93 32.68,-22.27 55.07,-49.29 95.07,-73.74 32.32,-19.75 90.33,-34.45 115.44,-51.53 -32.88,-105.79 -85.99,-16.19 -60.93,-307.08 16.27,12.39 8.35,2.49 26.93,25.12 23.16,28.23 14.55,30.52 59.86,73.32 29.31,27.69 58.32,56.54 98.45,46.79 21.11,-85.76 -37.4,-139.34 -58.54,-198.75 117.25,35.64 87.83,68.05 137.41,72.61 -0.66,-48.56 -11.6,-83 -3.9,-132.48 6.76,-43.38 13.8,-73.31 43.52,-100.96 8.69,79.1 21.16,78.28 31.98,123.01l-22.87 229.39c-9.38,66.01 -28.75,36.57 -11.07,94.2 -33.72,6.32 -89.46,19.56 -111.03,47.73 -25.26,33 25.21,-41.3 -7.89,14.26 -0.92,1.56 -3.64,3.58 -4.03,7.6 -0.39,4.14 -2.62,5.3 -4.2,7.79zm3245.76 -31.37c-53.5,121.22 -416.12,186.28 -600.3,204.16 33.91,-66.98 194.21,-154.43 256.55,-177.96 96.96,-36.59 262.3,-77.65 343.75,-26.2zm-116.93 364.11c-16.88,12.78 3.36,7.79 -34.08,17.03 -49.72,12.27 -185.68,-7.89 -228.86,-17.73 -66.74,-15.21 -164.61,-36.02 -202.94,-95.84 114.89,5.88 157.3,3.05 259.37,25.5 54.34,11.95 167.25,27.05 206.51,71.04zm-1934.1 841.79c-30.17,46.32 -14.01,30.49 -77.19,44.85 -34.85,7.93 -61.54,14.57 -100.36,22.2l-34.95 -130.25c3,1.59 6.72,3.73 8.89,4.96 96.98,55.27 138.77,9.91 203.61,58.24zm-52.02 69.36c-8.48,34.36 -17.92,47.32 -30.95,77.89l-28.33 70.38c-0.43,4.81 -3.45,5.62 -5.22,8.4 -23.59,-31.36 -41.98,-97.31 -47.68,-133.02l112.18 -23.65zm82.05 577.17l-44.38 -27.41c-9.28,-61.54 -22.45,-110.81 -38.03,-163.26 -73.97,-248.98 -57.49,-132.72 53.66,-389l10.15 12.82c16.4,28.2 -5.26,-14.25 7.69,15.22 27.67,63 109.96,385.22 113.19,421.34l-102.28 130.29z"/>
    <path class="fil13" d="M6628.19 9236.43l-62.39 37.49c-11.82,-8.64 -8.86,-4.47 -20.53,-15.38 -6.46,-6.04 -8.98,-8.24 -16.07,-17.64 -17.17,-22.76 -84.72,-137.7 -43.13,-168.5 50.23,-37.2 64.5,34.53 80.81,64.64 19.14,35.31 41.88,61.33 61.31,99.39zm-161.14 56.01c-45.83,-35.59 -102.43,-106.95 -116.87,-176.97 2.37,-1.97 6.6,-1.29 7.73,-5.08l33.53 -15.43c19.79,-6.54 23.81,-6.57 45.75,-11.3 13.74,109.25 54.35,140.03 97.69,202.04l-67.83 6.74zm0 0c10.72,18.45 4.42,9.13 14.04,20.68 19.13,22.95 26.65,35.61 11.33,98.48 -11.14,45.65 -0.79,8.44 -10.71,29.11 -2.15,-2.77 -5.08,-3.21 -6.36,-8.38 -1.25,-5.01 -4.64,-6.11 -5.84,-8.37l-50.34 -143.21c23.23,5.4 21.72,5.13 47.88,11.69zm165.15 699.25c71.76,54.26 182.83,250.4 339.05,139.28 83.44,-59.35 153.32,-243.39 126.22,-384.88 13.85,49.3 -91.28,609.45 -394.99,282.43 -244.36,-263.12 -174.15,-451.12 -165.82,-710 108.75,-30.65 190.36,-137.7 235.29,-151.32 78.5,-23.8 100.6,77.63 223.26,137.28l14.54 -26.15 -66.13 -86.92c-24.14,-28.41 -14.7,-14.19 -30.72,-46.65 86.89,4.38 341.5,67.6 381.9,-40.61 -34.62,-41.61 -184.19,-104.54 -267.02,-94.61 41.67,35.63 142.62,58.18 181.58,79.11 2.48,1.34 5.25,2.92 7.62,4.34l4.08 26.23c-16.34,6 -8.79,5.06 -30.21,9.46l-177 5.84c-37.67,-1.19 -69.61,-0.34 -105.43,-6.57 -64.2,-11.17 -36.87,-23.06 -80.63,-32.28 27.3,77.44 13.8,20.78 -4.92,47.59l-147.09 -140.33c42.3,80.46 72.18,62.94 87.91,133.52 -25,23.42 -76.38,78.73 -117.13,65.15 -43.34,-17.05 -8.53,12 -36.79,-34.66 -53.92,-89 -44.1,-120.55 15.92,-136.99 -124.21,-5.7 -201.75,9.29 -304.68,88.25 10.31,79.46 49.87,81.61 63.62,128.72 11.76,40.24 -6.24,17.74 6.88,66.41 33.12,122.82 107.1,134.37 109,376.31 0.58,72.91 25.89,85.44 48.89,137.87 40.99,93.45 67.87,372.45 122.01,463.32 29.59,-71.24 -35.77,-223.81 -39.21,-299.14z"/>
    <path class="fil13" d="M6168.63 7283.31c-67.39,-0.47 -78.45,30.72 -102.2,95.05 -40.02,108.41 -115.27,472.33 -57.1,535.55 102.21,66.92 168.96,-158.66 187,-235.66 15.21,-64.89 19.55,-125.68 20.03,-193.37 0.76,-106.58 -27.58,-129.61 -47.73,-201.57z"/>
    <path class="fil13" d="M10088.59 5101.22c-2.13,0.8 -5.39,4.61 -6.43,2.28l-19.63 -1.75c-1.64,-0.62 -21.49,-13.21 -27.82,-16.47l-8.8 -124.93c55.36,18.93 87.91,63.68 62.68,140.87zm35.02 -49.91c20.56,12.59 30.76,15.06 37.5,40.72 11.8,45 -15.96,69.99 -16.03,70.08 -31.6,-27.23 -21.06,-50.09 -21.47,-110.8zm-94.05 52.66l57.74 38.53 -3.88 125.19c-20.86,-6.75 -24.11,0.18 -42.57,-20.26 -26.82,-29.69 -12.82,-87.49 -11.29,-143.46zm181.15 23.63c13.16,25.69 22.13,39.71 8.4,71.38 -6.81,15.72 -6.99,9.99 -14.64,19.34 -0.01,-0.01 -34.78,-12.91 -16.63,-61.52 16.62,-44.56 -0.15,-8.54 22.87,-29.2zm-127.34 271.91c-35.46,-9.03 -37.39,-12.94 -66.55,-25.93l-0.69 -104.5c49.09,14.33 19.24,12.13 59.38,28.71l7.86 101.72zm101.15 -169.08c16.58,22.28 26.01,26.75 -4.3,97.62 -14.28,33.38 -5.74,13.48 -18.29,28.78 -17.4,-35.89 4.98,-101.77 22.59,-126.4zm-5.03 189.01c40.71,6.76 20.43,5.09 51.8,23.38 -52.38,-84.27 -40.79,-56.29 9.49,-162.16l17.62 -87.83 88.51 78.59c-17.48,-32.81 -53.18,-64.94 -67.96,-92.15 -26.25,-48.32 12.05,-67.93 -14.35,-115.11 -14.82,16.78 -11.26,34.09 -38.57,59.62 -22.45,-39.17 -23.73,-48.86 -33.01,-108.38 -45.21,12.67 -14.03,40.31 -82.36,-22.37 -23.27,-21.35 -64.07,-53.15 -97.36,-62.36 -34.86,69.46 -10.25,214.6 -17.41,243.21l-10.87 27.36c-1.05,2.41 -2.8,6.27 -4.89,8.95l-37.4 -14.92c-30.58,-119.09 -15.33,-191.43 -86.71,-280.24 -11.06,34.34 93.76,384.72 88.89,430.37l17.93 -130.09c70.24,40.24 47.87,133.57 30.32,156.18 25.37,20.09 50.35,28.76 75.07,50.24 39.07,33.97 8.54,8.84 28.54,36.02 21.94,29.84 -3.7,2.49 10.87,12.46l19.26 58.22c24.76,-45.8 37.63,-41.99 52.59,-108.99z"/>
    <path class="fil13" d="M6645.67 11603.8c105.15,-3.2 311.29,-0.93 379.89,-58.98 -67.08,-21.76 -169.14,13.85 -245.63,21.97 -113.78,12.08 -145.53,30.7 -199.75,93.69 -59.76,-8.38 8.07,4.89 -46.39,-16 -62.7,53.28 -183.88,136.89 -249.95,35.83 -110.64,4.92 -51.87,53.13 -139.62,-5.57 -41,-27.43 -72.27,-30.36 -123.12,-71.98l9.9 -82.85c15.35,-55.55 -2.5,-6.09 18.14,-34.61 34.53,59.08 22.61,65.96 87.18,112.77 24.46,17.74 95.17,68.71 127.38,47.48 -109.76,-58.73 -175.53,-96.1 -215.29,-207.36 51.42,-11.93 54.46,-55.43 40.05,-118.15 -14.05,-61.17 -43.12,-65.2 -96.06,-72.16 -23.92,57.73 -45.6,173.91 25.02,178.48l-16.21 134.22c4.94,63.51 10.3,78.43 44.11,98.95 164.33,99.75 142.67,73.5 223.05,49.48 49.4,58.72 128.3,63.99 208.4,17.44l20.22 30.48c0.67,1.02 2.38,3.83 3.8,5.58 48.9,-6.16 45.28,-37.48 74.47,-75.6 26.28,-34.33 49.02,-44.72 70.41,-83.11z"/>
    <path class="fil13" d="M8860.25 6474.21c-10.37,67.41 -10.58,81.26 -75.06,106.43 -0.3,-48.33 -7.01,-48.77 20.79,-74.42 17.33,-16 29.83,-22.27 54.27,-32.01zm-101.8 78.92c-2.59,27.4 -4.65,37.17 -10.81,65.4l3.15 187.23c1.62,-37.37 14.15,-97.62 18.74,-135.67 8.45,-69.86 23.32,-76.97 77.79,-102.9l0.62 141.43c20.83,-134.94 2.6,-171.08 113.27,-229.04l-3.86 192.14c-22.68,-74.21 153.45,-179.14 252.54,-257.78 -36.23,-15.73 -181.35,144.4 -234.18,169.65 9.28,-132.93 -8.62,-143.17 184.26,-254.27 -64.17,-23.22 -220.92,143.59 -280.31,173.62 5.9,-119.56 85.69,-90.16 99.12,-123.53 35.33,-87.73 -218.79,128.87 -236.96,145.44l-10.6 -27.73c-5.41,-19.07 9.21,-0.25 -5.18,-23.09 -41.9,41.18 -14,65.63 -53.52,113.94 -21.87,26.75 -68.41,58.01 -87.99,87.65 38,-22.61 57.27,-47.77 102.18,-64.87 0.18,57.57 -23.64,197.47 8.63,241.23 9.32,-29.13 12.31,-115.91 15.28,-150.37 10.76,-125 -5.83,-119.68 47.83,-148.48z"/>
    <path class="fil13" d="M6630.72 11304.11c-52.06,-169.78 -227.1,-147.49 -241.83,-72.91 -17.57,88.96 138.4,193.15 241.83,72.91z"/>
    <path class="fil13" d="M8279.9 10929.46c-47.63,11.37 -97.66,45.03 -144.03,68.04 -243.66,120.89 -684.37,230.07 -935.73,402.83 -32.77,22.52 -161.19,138.49 -174.58,144.49 130.59,-78.92 167.07,-124.68 336.39,-204.33 100.06,-47.06 196.03,-91.64 311.39,-134.74 175.74,-65.67 510.8,-165.99 606.56,-276.29z"/>
    <path class="fil13" d="M3810.73 4200.87c-26.46,41.2 -71.9,106.59 -72.93,159.18l52.57 22.37 336.13 -491.01c-54.36,2.58 -132.15,123.41 -181.58,197.13 -34.09,50.84 -95.38,131.61 -111.71,180.77l-15.03 -26.44c-1,-2.61 -1.75,-5.86 -2.54,-8.43 -0.72,-2.39 -0.89,-5.82 -1.41,-8.02l-2.5 -19.81c0.08,1.21 0.05,-4.09 -1,-5.74z"/>
    <path class="fil13" d="M8187.67 265.23l-39.79 3.72c6.68,99.68 -34.92,329.2 -68.74,427.56 -29.08,84.6 -189.99,680.18 -204.27,713.04 31.78,13.16 -6.77,54.91 53.66,56.08 3.6,-25.58 167.49,-666.02 175.22,-706.88 26.68,-140.96 85.35,-365.6 83.92,-493.52z"/>
    <path class="fil13" d="M7202.23 3485.01c-43.33,26.77 -37.5,36.49 -95.37,43.8 -9.77,-14.36 -24.2,-24.82 -36.91,-44.17 -20.92,-31.85 -41.91,-84.07 -66.58,-117.23l0.02 0 -0.05 -0.04c-4.75,-6.39 -9.63,-12.06 -14.68,-16.75l-609.81 -695.17c-41.5,-46.28 -625.34,-633.88 -668.88,-666.4 -3.7,10.47 -0.11,23.22 8.14,37.29 23.2,39.55 603.33,599.57 642.69,638.91 55.55,55.5 104.98,104.3 158.75,161.22 52.15,55.22 318.65,388.64 449.57,529.89l0.01 0.01c21.89,37.89 66.11,85.74 90.39,133.2 65.61,128.27 -115.62,132.12 -277.85,403.79 56.12,-65.6 139.7,-137.72 208.84,-201.11 65.17,-59.74 171.07,-139.31 211.72,-207.24z"/>
    <path class="fil13" d="M6926.74 -3.09c-131.45,274.44 -420.92,869.47 -376.87,998.89 52.9,-23.49 48.57,-4.32 46.01,-55.69l394.53 -943.2 -63.67 0z"/>
    <path class="fil13" d="M8552.24 4316.94c-94.22,-27.59 -128.19,-7.76 -256.33,-72.98 -63.99,-32.58 -156.34,-100.23 -207.6,-143.2 26.5,80.11 321.18,302.01 463.93,216.18z"/>
    <path class="fil13" d="M7882.57 293.78l-40.33 3.77c-24.86,108.63 -166.28,377.48 -165.66,438.62 69.7,-136.27 173.09,-289.41 205.99,-442.39z"/>
    <path class="fil13" d="M7690.98 311.71l-44.95 4.21c-7.1,56.82 -44.66,154.21 -63.92,210.93 -20.15,59.34 -60.12,141.77 -70.27,190.91 65.1,-27.73 146.37,-319.06 179.14,-406.05z"/>
    <path class="fil13" d="M4882.35 4641.16c-34.08,13.63 -46.14,46.05 -72.78,73.68 -57.74,59.89 -108.3,90.69 -182.07,132.52 -31.4,17.82 -75.16,47.75 -94.37,59.05 101.67,9.57 321.46,-136.82 349.22,-265.25z"/>
    <path class="fil13" d="M7513.73 6849.4c-65.21,64.61 -159.58,316.53 -134.55,444.54 -3,-23.71 40.72,-183.34 52.92,-222.8 23.51,-75.96 61.13,-151.62 81.63,-221.74z"/>
    <path class="fil13" d="M6068.46 11025.68c-40.15,-4.96 -46.63,16.71 -24.11,-100.91l71.99 -17.94 8.64 104.91c-19.63,10.78 -25.53,8.61 -34.91,11.75l22.72 15.32c35.05,-20.39 78.92,-42.07 89.93,-80.54 -39.82,7.48 -33.35,12.74 -63.61,28.92 -6.91,-78.15 12.83,-118.98 -69.57,-90.88 -61.93,21.12 -30.18,43.2 -53.87,83.51l-12.21 7.27c14.38,30.12 31.56,35.12 55.41,54.5l9.59 -15.91z"/>
    <path class="fil13" d="M6054.84 11154.38c66.39,-5.09 100.58,-16.61 135.11,-48.46 -23.06,-9.19 -44.05,-32.23 -83.7,-39.36l48.58 36.11c-12.46,15.69 3.37,6.39 -18.05,20.49 -12.65,8.33 -15.68,9.25 -35.55,13.25 -22.7,4.56 -48.25,3.88 -71.15,5.75 24.39,58.5 81.2,128.97 145.26,134.14 -56.96,-37.87 -90.11,-47.41 -120.5,-121.92z"/>
    <path class="fil13" d="M9187.65 4163.51c-49.93,3.14 -81.84,97.58 -89.04,143.72 37.73,-22.21 31.26,-39.18 54.66,-70.74 23.96,-32.31 41.37,-15.2 34.38,-72.98z"/>
    <path class="fil13" d="M9227.54 4183.74c-61.82,73.87 -66.77,159.86 -94.46,205 23.42,-16.92 47.54,-76.01 62.12,-106.45 16.58,-34.59 22.75,-35.82 38.36,-61.1 15.05,-24.41 10.19,-25.98 -6.02,-37.45z"/>
    <path class="fil13" d="M9910.65 5450.55c26.07,30.18 186.63,127.68 227.05,143.6 -24,-41.09 -170.57,-124.16 -227.05,-143.6z"/>
    <path class="fil13" d="M9268.69 4332.88c-38.29,16.59 -95.39,130.46 -115.2,176.43 24.17,-21.08 48.53,-60.88 65.19,-87.16 64.46,-101.76 53.71,-42.27 50.01,-89.27z"/>
    <path class="fil13" d="M7227.35 10295.9c61.92,-11.12 74.2,-8.55 114.97,18.33 42.16,27.77 41.18,28.74 64.75,70.67 8.91,-32.3 -93.62,-165.4 -179.72,-89z"/>
    <path class="fil13" d="M10460.6 5649.75c-26.69,13.07 -27.84,38.61 -37.41,70.9 -9.45,31.86 -16.89,58.88 -23.48,90.62 25.23,-23.38 52.88,-121.19 60.89,-161.52z"/>
    <path class="fil13" d="M9288.11 4420.11c-42.35,67.68 -75.54,116.72 -100.96,206.1 10.5,-43 93.05,-147.82 100.96,-206.1z"/>
    <path class="fil13" d="M10416.6 5636.27c-26.38,9.34 -26.53,18.3 -38.53,47.49 -16.51,40.17 -23.19,49 -12.64,67.57l51.17 -115.06z"/>
    <path class="fil13" d="M6068.46 11025.68l21.61 -2.19 -2.58 -84.34c-30.92,32.16 -15.79,33.22 -19.03,86.53z"/>
    <path class="fil13" d="M10361.13 5604.14c-33.84,22.53 -56.07,100.95 -53.51,147.64 -3.34,-26.77 42.73,-104.41 53.51,-147.64z"/>
   </g>
  </g>
  <g id="_290424712704">
   <g>
    <polygon class="fil15" points="4839.34,2861.62 5074.13,2824.29 6064.26,2586.54 6690.79,2371.18 6970.49,2217.34 7197.05,2021.55 7261.39,1927.86 7244.6,1753.04 7232.01,1643.96 7240.4,1453.76 7215.23,1376.84 7069.79,1264.96 6830.64,1176.86 6483.82,1092.95 6123.01,1028.62 5725.83,979.67 5457.32,950.31 4983.23,926.53 4893.73,915.34 4783.24,813.25 4577.67,435.66 4460.96,-3.09 2932.14,-3.09 2877.1,281.83 2684.11,813.25 2509.3,1018.83 2356.86,1055.19 1933.11,1129.31 1537.33,1211.82 1117.78,1327.9 874.44,1392.23 492.64,1536.27 277.28,1657.94 109.45,1790.8 59.1,1881.7 70.29,2052.32 75.89,2232.73 84.28,2365.58 210.14,2565.57 343.01,2636.89 682.84,2761.36 877.84,2824.24 1479.99,2894.22 1734.52,2927.78 2135.9,2941.76 2548.45,2954.35 "/>
    <path class="fil16" d="M4936.2 1945.24l-447.52 117.48 -165.02 -103.49 -352.42 -53.15 69.92 257.32c0,0 195.79,260.12 215.37,262.92 19.58,2.8 548.21,-89.5 548.21,-89.5l131.46 -391.58z"/>
    <path class="fil17" d="M5714.82 3801.96l-230.49 147.18 -202.77 97.88 -409.77 176.22 -247.53 88.11 -262.92 71.31 -267.12 43.36 -212.57 20.98 -441.93 -22.38 -381.8 -30.77 -199.98 -22.37 -391.59 -54.54c0,0 -289.49,-53.15 -302.08,-53.15 -12.58,0 -411.16,-113.28 -411.16,-113.28l-12.58 -54.54 111.88 -40.55 655.9 -184.6 229.37 -78.31 -19.58 -92.3 -107.68 -156.63 -16.79 -43.36 25.18 -86.7 -5.6 -120.27 -20.97 -176.22 -74.12 -230.75 -64.34 -262.92 -69.93 -279.67 194.39 -125.87 137.05 -67.13 351.03 -190.19 257.67 -151.86 22.93 -21.38 0.5 -63.11 6.99 -89.51 174.82 -16.78 351.02 5.6 215.38 40.55 36.35 26.58 -29.36 111.88 -2.8 97.89 78.32 83.91 4.19 137.05 -2.79 79.72 82.51 61.55 162.22 33.56 100.69 -54.54 41.96 -44.75 159.42 16.78 13.99 -40.55 16.78 -198.59 33.57 -148.24 149.64 48.95 186 83.9 -64.33 269.92 -144.05 392.98 -86.71 264.31 -86.7 325.85 4.19 128.67 79.72 124.46 141.24 104.89 43.36 41.95 348.22 81.13 353.56 108.69z"/>
    <path class="fil18" d="M4811.74 3935.23l-190.2 -39.16 -274.11 -26.57 -290.88 -2.8 -258.73 41.95 -425.14 95.1 -397.18 125.86c0,0 90.91,47.55 99.3,48.95 8.39,1.4 218.17,40.56 230.76,40.56 12.58,0 257.31,-4.2 257.31,-4.2l226.56 2.8c0,0 216.76,-26.57 232.15,-29.37 15.39,-2.79 275.51,-50.35 275.51,-50.35l194.39 -64.32 250.33 -100.69 69.93 -37.76z"/>
    <polygon class="fil19" points="2578.24,2217.82 2203.5,2445.92 1420.35,2890.63 1302.87,2845.89 1256.02,2785.76 1231.54,2692.75 1239.93,2620.03 1290.28,2579.47 1467.89,2484.38 1722.42,2333.33 1999.32,2184.39 2406.31,1939.65 2392.32,2048.74 2438.47,2160.62 "/>
    <polygon class="fil20" points="3347.08,1767.7 3346.92,1787.26 3323.99,1808.64 3258.91,1847 2953.84,2013.1 2585.84,2214.1 2508.36,2189.22 2398.66,2090.02 2383.29,2024.31 2406.31,1939.65 2525.93,1877.47 2635.02,1804.74 2942.69,1604.76 3072.75,1543.23 3179.03,1540.43 3302.1,1593.57 3349.23,1701.12 "/>
    <polygon class="fil20" points="1394.59,2908.15 1140.06,3050.8 878.54,3180.86 800.22,3164.08 689.74,3098.35 644.98,3018.63 675.75,2968.29 789.03,2874.59 966.64,2773.9 1218.37,2631.25 1231.54,2692.75 1274.96,2810.07 "/>
   </g>
   <path class="fil21" d="M4962.32 3600.51l-546.82 -57.33 -348.22 -5.6 -423.72 37.78 -411.16 86.7 -494.72 130.45c0,0 1112.85,-354.2 1098.87,-566.77 -13.98,-212.57 -16.78,-609.72 -100.68,-794.32 -83.91,-184.6 -330.6,-613.27 -388.95,-644.16 -58.34,-30.89 -107.52,-9.62 -107.52,-9.62l-97.89 -29.37 -67.13 -71.32 -15.36 -26.58c0,0 -2233.87,1237.33 -2383.27,1317.92 -149.39,80.58 202.09,-144.05 202.09,-144.05l869.96 -504.55 604.09 -347.3 655.83 -398.4c0,0 132.42,-46.67 140.81,-46.67 8.4,0 120.28,37.77 120.28,37.77l232.84 55.42c0,0 2425.71,125.01 2498.43,130.61 72.72,5.59 561.61,-191.83 561.61,-191.83l-24.61 -31.91c0,0 -362.21,-62.93 -370.6,-67.13 -8.4,-4.2 -434.94,-48.95 -434.94,-48.95l-1611.04 -61.54 -693.07 -393.52 -918.13 62.59c0,0 1102.19,-334.73 1208.47,-608.84 34.7,-89.49 56.3,-244.67 69.64,-413.08l700.66 0 59.9 327.08 161.33 388.08 217.42 207.4 500 29.3 445.91 49 457.72 67.82c0,0 377.56,87.18 415.16,80.01 37.61,-7.17 423.75,183.2 423.75,183.2l66.89 111.97 -3.12 180.17 6.15 163.77c0,0 34.94,99.89 26.57,100.69 -8.37,0.81 -23.37,70.13 -23.37,70.13l-101.09 128.47 -229.35 165.54 -258.95 134.63 -459.89 175.32 -302.07 78.31 -485.28 120.27c0,0 -467.58,87.84 -477.35,89.4 -9.76,1.55 -112.81,64.44 -112.81,64.44l-69.93 461.5 144.05 113.28 82.5 65.73 -9.89 48.09z"/>
   <g>
    <path class="fil13" d="M3333.27 1745.86c-126.2,44.7 -292.47,-36.2 -260.29,-184.18 47.9,-18.17 149.97,-6.29 191.18,24.08 34.16,25.17 70.13,98.17 69.11,160.1zm-433.77 -1748.95l85.96 0c-99.03,438.23 -290.09,953.86 -430.55,1003.06 287.14,-66.65 1376.87,-109.9 1718.97,-114.61 175.08,-2.41 435.38,24.18 594.12,3.92 -185,30.04 -353.26,-457.3 -444.59,-892.37l71.24 0c103.79,438.21 296.63,930.41 493.55,904.23l420.07 27.66c273.63,18.73 548.58,50.6 810.62,93.39 249.39,40.72 519.51,89.6 731.38,171.37 451.52,174.28 248.42,289.65 320.98,569.49 39.47,152.25 -0.66,216.74 -87.86,307.38 -347.14,360.86 -1101.45,549.81 -1593.25,663.44l-730.75 163.67c-27.03,43.12 -99.42,361.73 -93.39,420.65 4.56,44.49 80.78,115.04 110.95,143.14 8.22,7.66 114.98,73.7 123.31,119.9 5.2,28.79 637.16,133.34 763.52,198.8 1.68,87.53 -53.93,91.87 -118.4,120.13 -52.65,23.07 -100.4,52.6 -153.43,77.24 -559.36,260 -1134.65,523.37 -1786.63,482.34 -302.88,-19.06 -558.07,-22.27 -863.37,-69.06 -341.22,-52.32 -642.64,-76.11 -986.47,-176.23 -122.19,-35.59 -150.67,-39.08 -155.5,-105.81 109.96,-88.75 940.56,-281.02 1022.55,-336.46 -13.97,-67.78 -61.9,-117.61 -96.59,-169.63 -83.06,-124.53 -46.27,-113.17 -25.93,-186.76 25.11,-90.86 -46.75,-349.08 -68.38,-437.92 -216.39,-2.45 -485.4,-5.02 -697.65,-26l-413.87 -30.79 -55.32 27.76c-39.36,21.91 -71.84,40.99 -109.68,61.03 -171.08,90.62 -362.94,244.32 -500.33,170.15 -52.81,-28.52 -159.06,-116.14 -125.57,-196.89 45.51,-109.66 125.02,-96.72 194.14,-162.27 -201.18,-46.52 -362.66,-95.87 -526.19,-184.18 -212.97,-115 -244.31,-233.19 -244.36,-450.27 -0.02,-96.04 -34.74,-256.83 -2.31,-332.02 82,-190.18 444.66,-337.94 628.13,-408.52 319.8,-123 728.25,-221.23 1088.08,-302.58 187.08,-42.29 386.89,-84.59 581.56,-113.36 150.07,-22.18 99.55,15.71 169.06,-84.22 120.84,-32.74 285.44,-526.25 382.18,-948.8zm4321.55 1411.52l-9.47 339.11c-51.74,-28.6 -91.68,-58.51 -163.66,-90.44 -345.58,-153.24 -1220.85,-274.41 -1579.02,-288.29 -153.49,-5.94 -331.17,-21.46 -487.52,-33.1 -488.01,-36.32 -1070.14,11.52 -1548.94,21.48 -305.55,6.36 -669.3,55.25 -963.1,98.61 -523.44,77.23 -1216.61,249.86 -1709.1,413.19 -220.13,73.01 -484.28,182.31 -633.61,366.96 -32.44,40.11 -1.81,18.12 -41.61,27.83 77.86,-309.45 -227.91,-385.52 401.98,-693.32 621.31,-303.61 2052.14,-552.27 2762.31,-602.7 357.66,-25.41 723.66,-37.47 1085.56,-37.85 724.43,-0.75 1872.68,66.31 2528.4,277.41 72.28,23.27 134.17,48.97 198.97,81.19 88.11,43.84 98.48,70.57 158.81,119.92zm-4861.39 593.36c2.5,135.59 64.1,183.73 170.69,221.67l-918.56 533.25c-107,64.5 -229.43,159.06 -324.25,37.21 -15.02,-19.29 -31.85,-49.46 -36.15,-74.06 -3.92,-22.38 -3.8,-32.9 3.09,-53.33 1.29,-3.81 7.02,-13.47 8.78,-16.75 27.96,-52.39 80.94,-71.01 161.4,-116.67l620.81 -355.18c68.68,-41.03 252.24,-156.1 314.19,-176.14zm2780.29 -76.26c-55.88,-27.47 -304.73,-121.82 -372.45,-111.57 -41.61,53.16 -44.57,287.66 -42.22,378 -187.39,-16.66 -164.02,-44.02 -229.31,45.76 -55.22,75.93 -241.25,-7.87 -288.63,-34.31 -14.02,-57.92 21.3,-119.52 10.21,-180.63 -9.91,-54.61 -46.92,-98.15 -90.05,-124.78 -0.76,-87.4 47.45,-179.07 27.84,-226.9 -99.65,-95.37 -651.56,-89.25 -810.25,-47.15 -170.44,-287.33 -517.7,48.69 -688.37,152.98 -137.53,84.05 -1190.38,697.38 -1349.78,773.96 -33.77,16.21 -48.43,16.33 -80.5,40.82l-250.92 150.95c-103.7,57.44 -78.89,51.79 -206.83,21.3 -71.64,-17.08 -142.74,-37.32 -209.11,-59.28 -134.72,-44.57 -458.37,-175.37 -443.77,-346.03 5.8,-67.64 65.07,-138.41 100.89,-166.5 455.97,-357.66 1869.77,-661.79 2472.3,-724.34 1204.59,-125.04 2757.64,-172.74 3940.52,107.07 140.93,33.35 286.18,68.96 403.6,121.27 115.71,51.55 293.9,129.46 167.72,294.8 -268.89,352.35 -1019.77,555.44 -1457.28,664.85l-867.18 196.72c-1.73,-107.16 305.42,-796.05 263.57,-926.99zm-3425.11 824.77l655.15 -380.57 147.87 560.48c-229.89,0.33 -810.47,-14.97 -1018.88,-53.07 69.71,-46.79 141.91,-81.8 215.86,-126.84zm-356.04 155.28c-53.73,19.73 -133.7,69.11 -183.73,97.99 -56.35,32.54 -112.07,62.64 -172.72,95.16 -59.51,31.91 -114.36,73.62 -192.13,51.28 -61.34,-17.62 -118.89,-74.43 -134.86,-134.12 45.49,-104.75 165.76,-138.58 256.54,-194.92 62.66,-38.88 216.99,-138.41 283.68,-159.72 -4.55,180.74 79.04,188.67 143.22,244.33zm1410.2 861.28c-44.52,-154.98 -164.86,-214.98 -146.03,-290.66 8.88,-35.71 23.29,-42.04 28.03,-82.2 4.48,-37.98 0.43,-79.08 -6.47,-115.4 -12.43,-65.57 -27.35,-128.33 -41.67,-190.04l-190.29 -738.1c65.87,-63.25 819.57,-443.77 911.42,-541.82 -52.44,14.7 -152.15,72.48 -205.38,101.36 -70.46,38.22 -136.57,71.48 -206.48,110.27 -173.03,96 -314.01,208.33 -427.76,138.18 -45.78,-28.23 -105.28,-132.03 -51.85,-203.31l591.53 -367.41c-8.49,210.78 306.75,255.72 342.66,179.67l5.18 -93.13c288.9,-42.23 463.95,-33.63 741.69,26.47 -29.5,91.76 -68.03,181.44 1.03,254.87 166.76,177.27 -152.32,265.78 240.82,356.89 55.87,12.96 134.74,23.05 173.75,-28.73 19.88,-26.36 6.62,-31.91 40.9,-49.91 65.38,-24.2 113.45,53.64 199.2,-15.5l23.98 -350.31c60.24,6.86 250.58,70.63 296.21,98.79 0.77,163.42 -297.07,811.45 -369.59,1239.06 -18.43,108.63 -20.04,153.37 39.66,214.7 36.89,37.9 101.73,100.45 163.4,119.66 -32.49,43.81 -23.12,33.43 -97.23,20.52 -43.74,-7.61 -93.35,-14.83 -137.35,-19.51 -652.74,-69.35 -1305.34,0.95 -1919.36,225.59zm2916.42 45.44c-178.6,104.99 -619.29,292.68 -824.42,376.46 -306.26,125.1 -580.46,227.79 -977.46,229.43 -597.64,2.47 -1420.31,-87.39 -2006.91,-249.51l-83.25 -27.22c-17.64,-8.57 -16.86,-11.23 -25.6,-18.08 493.13,-150.43 1374.32,-438.93 1857.17,-512.82 688.49,-105.37 1399.56,-3.75 2060.47,201.74z"/>
    <path class="fil13" d="M4778.87 3944.46l-17.95 8.83c-175.26,73.98 -621.89,197.82 -781.23,220.1 -256.03,35.81 -688.27,33.83 -933.03,-29.72 99.98,-61.9 641.39,-185.75 807.45,-218.06 165.64,-32.23 289.24,-49 469.06,-43.52 155.65,4.74 308.87,46.05 455.7,62.37zm251 13.46l-596.93 -113.4c-381.53,-51.81 -872.14,72.77 -1232.49,183.7 -106.3,32.73 -486.7,123.45 -532.66,183.1 86.79,37.9 216.78,-44.99 278.12,-42.95 34.3,1.14 32.63,20.97 124.17,38.94 575.36,112.97 1136.64,26.62 1658.8,-212.59 58.57,-26.84 61.81,-44.65 136.16,-34.9 51.57,6.77 123.38,17.33 164.83,-1.9z"/>
   </g>
  </g>
 </g>
</svg>
