<?xml version="1.0" encoding="UTF-8"?>
<!DOCTYPE svg PUBLIC "-//W3C//DTD SVG 1.1//EN" "http://www.w3.org/Graphics/SVG/1.1/DTD/svg11.dtd">
<!-- Creator: CorelDRAW 2018 -->
<svg xmlns="http://www.w3.org/2000/svg" xml:space="preserve" width="158.745mm" height="59.8952mm" version="1.1" style="shape-rendering:geometricPrecision; text-rendering:geometricPrecision; image-rendering:optimizeQuality; fill-rule:evenodd; clip-rule:evenodd"
viewBox="0 0 16858.45 6360.77"
 xmlns:xlink="http://www.w3.org/1999/xlink">
 <defs>
  <style type="text/css">
   <![CDATA[
    .fil2 {fill:#EBECEC}
    .fil0 {fill:#D9DADA}
    .fil1 {fill:#212129}
   ]]>
  </style>
 </defs>
 <g id="Слой_x0020_1">
  <metadata id="CorelCorpID_0Corel-Layer"/>
  <g id="_594063576">
   <g>
    <path class="fil0" d="M53.18 2920.83c0,0 116.71,-1701.86 77.81,-1828.27 -38.91,-126.41 -9.71,-544.53 87.5,-622.33 97.21,-77.8 282.06,-38.99 291.76,184.71 9.71,223.71 -68.09,573.78 -9.74,612.68 58.35,38.9 301.51,-641.87 739.12,-807.18 437.62,-165.31 632.08,126.49 758.53,379.31 126.45,252.82 126.41,1808.78 48.61,1925.48 -77.8,116.7 -223.66,184.76 -282.01,97.26 -58.36,-87.51 116.74,-1205.95 48.65,-1536.56 -68.11,-330.62 -155.65,-651.53 -359.86,-612.63 -335.55,63.91 -708.82,735.16 -1030.79,1400.36 -68.06,272.18 -68.11,709.97 -87.55,884.98 -19.46,175 -272.27,126.41 -282.02,-77.81z"/>
    <path id="1" class="fil1" d="M0.3 2917.3c0.32,-4.84 115.93,-1692.7 80.08,-1809.18 -23.41,-76.05 -24.97,-243.66 -4.25,-391.11 17.83,-126.82 53.8,-243.58 109.38,-288.06 36.67,-29.35 82.57,-46.12 129.54,-48.15 33.33,-1.44 67.36,4.43 99.22,18.35 31.76,13.87 61.35,35.78 85.87,66.43 35.28,44.08 59.47,105.86 62.99,187.08 4.17,96.4 -7.05,212.96 -17.34,319.83 -7.09,73.64 -13.69,142.03 -16.72,188.81 13.08,-20.83 27.91,-45.47 44.27,-72.7 125.03,-207.9 337.06,-560.41 647.61,-677.73 238.44,-90.07 412.58,-54.25 545.12,39.08 128.37,90.4 213.08,233.59 279.38,366.15 60.98,121.93 93.95,511.47 104.06,911.68 12.24,485.51 -10.65,995.03 -58.57,1066.9l-0.1 -0.06c-30.56,45.82 -70.43,85.19 -112.36,113.14l0 0.2c-34.41,22.94 -71.08,38.65 -106.36,44.58 -40.66,6.85 -79.47,0.99 -112.12,-20.78l0 -0.2c-15.22,-10.15 -28.55,-23.29 -39.43,-39.62l0.14 -0.1c-36.78,-55.47 -14.67,-314.47 11.18,-617.38 30.01,-351.57 65.29,-764.88 29.65,-937.95 -33.36,-161.94 -71.27,-321.08 -124.74,-432.65 -45.3,-94.53 -100.89,-152.33 -173.52,-138.49 -151.87,28.92 -318.43,204.34 -486.47,452.3 -172.55,254.59 -344.35,584.56 -503.85,913.84 -45.3,184.9 -59.41,448.97 -70.12,650.32 -4.82,90.68 -9.01,169.01 -14.96,222.64 -7.96,71.72 -45.48,117.74 -95.11,139.94 -26.66,11.93 -56.43,16.31 -86.53,13.59 -28.63,-2.59 -57.7,-11.67 -84.52,-26.86 -63.88,-36.14 -116.63,-107.3 -121.43,-207.81l-0.16 -3.52 0.16 -2.5zm52.89 3.53c0,0 116.71,-1701.86 77.81,-1828.27 -38.91,-126.41 -9.71,-544.53 87.5,-622.33 97.21,-77.8 282.06,-38.99 291.76,184.71 9.71,223.71 -68.09,573.78 -9.74,612.68 58.35,38.9 301.51,-641.87 739.12,-807.18 437.62,-165.31 632.08,126.49 758.53,379.31 126.45,252.82 126.41,1808.78 48.61,1925.48 -77.8,116.7 -223.66,184.76 -282.01,97.26 -58.36,-87.51 116.74,-1205.95 48.65,-1536.56 -68.11,-330.62 -155.65,-651.53 -359.86,-612.63 -335.55,63.91 -708.82,735.16 -1030.79,1400.36 -68.06,272.18 -68.11,709.97 -87.55,884.98 -19.46,175 -272.27,126.41 -282.02,-77.81zm474.58 -1705.14c0.41,4.5 1.14,7.24 2.2,7.95 10.77,7.18 5.38,1.32 -2.2,-7.95z"/>
   </g>
   <g>
    <path class="fil0" d="M2749.82 1875.35c361.18,-1451.25 1671.13,-1389.78 1487.91,-928.74 -170.08,427.87 -554.32,807.14 -622.38,831.48 -68.06,24.35 -452.22,233.37 -865.54,97.26zm96.77 382.01c15.3,-20.25 130.11,-18.97 207.08,-36.83 447.19,-103.79 825.17,-212.6 1098.9,-598.12 405.64,-571.43 725.49,-1268.22 -350.11,-1307.96 -615.67,-22.72 -1243.34,951.85 -1366.57,1559.36 -9.44,46.53 -186.22,42.56 -189.44,84.19 -3.75,47.9 52.89,142.2 115.55,203.02 42.48,41.19 93.16,51.47 109.3,82.3 144.13,274.6 530.24,546.25 810.93,575.32 656.42,67.97 991.85,-170.16 1079.4,-282.02 87.55,-111.85 92.45,-345.26 -14.56,-369.56 -106.99,-24.3 -192.35,-3.09 -213.96,107.01 -127.19,647.2 -1412.88,150.66 -1286.52,-16.72z"/>
    <path id="1" class="fil1" d="M2749.82 1875.35c361.18,-1451.25 1671.13,-1389.78 1487.91,-928.74 -170.08,427.87 -554.32,807.14 -622.38,831.48 -68.06,24.35 -452.22,233.37 -865.54,97.26zm96.77 382.01c15.3,-20.25 130.11,-18.97 207.08,-36.83 447.19,-103.79 825.17,-212.6 1098.9,-598.12 405.64,-571.43 725.49,-1268.22 -350.11,-1307.96 -615.67,-22.72 -1243.34,951.85 -1366.57,1559.36 -9.44,46.53 -186.22,42.56 -189.44,84.19 -3.75,47.9 52.89,142.2 115.55,203.02 42.48,41.19 93.16,51.47 109.3,82.3 144.13,274.6 530.24,546.25 810.93,575.32 656.42,67.97 991.85,-170.16 1079.4,-282.02 87.55,-111.85 92.45,-345.26 -14.56,-369.56 -106.99,-24.3 -192.35,-3.09 -213.96,107.01 -127.19,647.2 -1412.88,150.66 -1286.52,-16.72zm876.13 -1515.6c-329.57,98.37 -725.77,420.79 -908.7,1097.31 328.75,87.02 633.41,-46.03 744.49,-94.54 17.74,-7.73 31.3,-13.67 39.01,-16.42 35.71,-12.77 181.26,-150.7 331.04,-350.81 98.16,-131.13 195.28,-287.32 260.02,-450.19 25.56,-64.33 12.61,-117.14 -27,-153.15 -36.86,-33.52 -95.45,-55.64 -168.42,-63.08 -77.94,-7.94 -170.75,1.12 -270.44,30.87zm-770.29 1546.82c-36.7,3.89 -58.6,-5.81 -63.53,0.72 -2.21,2.93 18.43,20.68 52.64,46.5 45.99,34.73 113.82,70.94 194.22,103.33 81.73,32.93 176.06,61.69 273.48,80.84 294.75,57.92 616.25,26.65 671.81,-256.07l0.04 0.01c0.47,-2.44 1.07,-5.22 1.77,-8.27l0.04 0.01c15.49,-68.09 51.41,-110.45 101.26,-132.89 45.69,-20.57 100.79,-22.14 160.55,-10.42 2.29,0.45 6.88,1.47 13.97,3.07 19.36,4.4 36.5,12.81 51.5,24.53 36.05,28.22 57.59,74.81 65.94,128.72 7.38,47.77 4.73,102.63 -7.09,154.71 -12.2,53.77 -34.41,105.81 -65.7,145.8 -57.17,73.02 -209.38,195.03 -470.28,263.2 -169.8,44.36 -387.11,66.8 -656.21,38.94 -150.03,-15.53 -326.52,-94.82 -483.47,-206.17 -155.19,-110.1 -293.1,-252.85 -368.94,-397.35 -1.43,-2.75 -13.67,-9.81 -28.08,-18.13 -21.94,-12.65 -46.89,-27.04 -71.27,-50.7 -35.58,-34.53 -69.43,-78.84 -93.4,-120.96 -25.48,-44.74 -40.78,-89.78 -38.11,-123.95 4.61,-59.83 66.78,-73.46 131.23,-87.56 30.11,-6.58 57.15,7.29 59.24,-3.07 69.69,-343.55 296.34,-801.05 590.97,-1137.27 243.7,-278.08 535.75,-475.43 829.32,-464.61 575.12,21.24 777.31,226.75 781.55,506.85 3.98,264.49 -182.08,591.58 -390.15,884.7 -142.61,200.86 -312.39,329.65 -504.74,421.71 -189.64,90.78 -398.98,144.77 -625.49,197.35 -35.12,8.15 -75.92,12.48 -113.06,16.41z"/>
   </g>
   <g>
    <path class="fil0" d="M8080.56 250.41c-123.6,-62.99 -308.64,-26.6 -331,49.83 -22.34,76.43 12.35,1690.48 42.33,1928.17 64.98,514.86 768.4,720.36 1148.24,459.18 93.95,-64.6 213.33,-230.5 238.26,-146.94 24.92,83.57 15.73,291.66 48.89,336.57 33.17,44.9 140.79,41.2 163.52,-41.83 22.74,-83.04 -14.16,-227.4 -24.83,-289.7 -11.11,-64.86 57.29,-1999.63 62.31,-2085.31 5.01,-85.68 70.81,-89.09 32.9,-154.65 -37.9,-65.56 -217.22,-59.41 -251.02,8.67 -33.79,68.07 -10.27,242.75 -11.03,290.94 -2.22,139.31 -48.33,1641.91 -180.97,1768.17 -132.64,126.26 -565.02,174.07 -684.07,69.7 -534,-468.24 -129.93,-2129.83 -253.53,-2192.81z"/>
    <path id="1" class="fil1" d="M8080.56 250.41c-123.6,-62.99 -308.64,-26.6 -331,49.83 -22.34,76.43 12.35,1690.48 42.33,1928.17 64.98,514.86 768.4,720.36 1148.24,459.18 93.95,-64.6 213.33,-230.5 238.26,-146.94 24.92,83.57 15.73,291.66 48.89,336.57 33.17,44.9 140.79,41.2 163.52,-41.83 22.74,-83.04 -14.16,-227.4 -24.83,-289.7 -11.11,-64.86 57.29,-1999.63 62.31,-2085.31 5.01,-85.68 70.81,-89.09 32.9,-154.65 -37.9,-65.56 -217.22,-59.41 -251.02,8.67 -33.79,68.07 -10.27,242.75 -11.03,290.94 -2.22,139.31 -48.33,1641.91 -180.97,1768.17 -132.64,126.26 -565.02,174.07 -684.07,69.7 -534,-468.24 -129.93,-2129.83 -253.53,-2192.81zm-32.96 -69.57c20.19,5.89 39.42,13.32 57.03,22.28 71.42,36.38 55.36,236.96 33.06,515.77 -42.73,534.24 -110.76,1384.6 231.25,1684.5 47.4,41.56 167.91,51.92 293.48,39.13 130.37,-13.29 261.04,-51.97 319.23,-107.38 35.85,-34.12 67.32,-235.74 93.24,-489.05 50.03,-488.82 69.92,-1151.54 71.35,-1241.58l0 0c0.11,-8.56 -1.09,-27.19 -2.55,-49.73 -5.07,-78.08 -12.93,-199.55 18.97,-263.82 11.16,-22.5 29.66,-40.38 52.66,-53.66 32.2,-18.61 75.14,-28.83 117.44,-30.23 42.21,-1.4 85.56,5.92 118.71,22.38 23.69,11.77 43.13,28.24 55.54,49.74 37.4,64.69 18.75,93.53 -6.07,131.95l-0.2 0.21c-8.26,12.79 -18.18,28.13 -19.57,51.93 -3.19,54.68 -31.89,852 -49.56,1443.64 -10.12,339.06 -16.83,609.57 -13.36,629.85 1.62,9.46 4.26,22.72 7.22,37.65 15.12,76.06 38.53,193.9 16.37,274.87 -9.62,35.13 -29.19,61.3 -53.64,79.36l-0.21 0.2c-20.17,14.88 -43.52,23.96 -67.09,27.79 -23.08,3.75 -46.81,2.39 -68.2,-3.45 -27.51,-7.53 -51.86,-22.66 -67.94,-44.44 -27.74,-37.57 -33.63,-120.72 -39.56,-204.87 -2.99,-42.54 -6.03,-85.42 -11.14,-117.67 -17,13.86 -38.89,34.75 -61.6,56.42 -33.27,31.77 -68.09,65.01 -102.26,88.51 -92.24,63.42 -201.58,101.43 -316.35,115.92 -149.12,18.82 -307.94,-1.98 -450.32,-58.15 -143.87,-56.75 -271.86,-149.72 -357.72,-274.59 -55.32,-80.45 -93.09,-173.93 -106.39,-279.28 -15.11,-119.81 -31.3,-578.93 -40.98,-1020.09 -9.89,-450.62 -12.43,-885.86 0.31,-929.45l0 -0.2c1.87,-6.39 4.51,-12.91 7.84,-19.43l-0.16 -0.08c22.92,-45 78.29,-77.51 145.24,-91.85 59.53,-12.75 131.01,-12.09 195.94,6.9z"/>
   </g>
   <g>
    <path class="fil0" d="M10312.59 556.65c-61.91,-6.33 49.5,-244.99 -104.57,-283.48 -154.08,-38.48 -289.49,44.75 -307.31,168.48 -17.84,123.7 15.64,2111.49 -4.3,2290.11 39.93,55.9 177.52,268.87 305.3,189.01 138.75,-86.67 -44.15,-1726.05 66.25,-2003.6 264.86,-135.43 642.72,-228.23 611.12,117.77 -22.58,246.99 -80.5,1633.17 -21.83,1789.88 120.74,63.06 267.52,-153.76 270.22,-222.32 2.7,-68.56 3.39,-1521.63 55.31,-1687.1 407.11,-326.16 692.02,-511.66 719.98,-172.59 40.75,493.11 -10.89,1328.99 -23.24,1642.72 -6.46,164.68 -73.97,234.51 41.94,252.96 117.13,18.65 164.45,-124 168.23,-220.06 3.79,-96.06 82.06,-2056.17 -68.68,-2143.74 -321.44,-186.88 -807.28,292.4 -964.74,381.44 -114.86,-434.36 -143.61,-274.21 -743.68,-99.5z"/>
    <path id="1" class="fil1" d="M9896.41 2731.77c39.93,55.9 177.52,268.87 305.3,189.01 138.75,-86.67 -44.15,-1726.05 66.25,-2003.6 264.86,-135.43 642.72,-228.23 611.12,117.77 -22.58,246.99 -80.5,1633.17 -21.83,1789.88 120.74,63.06 267.52,-153.76 270.22,-222.32 2.7,-68.56 3.39,-1521.63 55.31,-1687.1 407.11,-326.16 692.02,-511.66 719.98,-172.59 40.75,493.11 -10.89,1328.99 -23.24,1642.72 -6.46,164.68 -73.97,234.51 41.94,252.96 117.13,18.65 164.45,-124 168.23,-220.06 3.79,-96.06 82.06,-2056.17 -68.68,-2143.74 -321.44,-186.88 -807.28,292.4 -964.74,381.44 -114.86,-434.36 -143.61,-274.21 -743.68,-99.5 -61.91,-6.33 49.5,-244.99 -104.57,-283.48 -154.08,-38.48 -289.49,44.75 -307.31,168.48 -17.84,123.7 15.64,2111.49 -4.3,2290.11zm449.63 -2259.1c-0.85,15.77 -37.85,25.12 -35.15,29.34 133.65,-39.42 240.16,-78.76 324.48,-109.9 64.75,-23.91 116.65,-43.07 161.62,-54.97 168.83,-44.64 222.91,-0.23 290.89,234.36 21.53,-15.63 46.19,-34.24 73.08,-54.51 226.62,-170.89 601.72,-453.74 886.6,-288.12 177.53,103.14 99.69,2073.24 95.08,2189.98l-0.01 0 -0.05 1.47 0 0.2c-0.62,15.71 -2.25,32.5 -4.97,49.57 -7.9,49.69 -25.31,103.21 -54.43,144.66 -33.87,48.21 -82.21,80.81 -148.19,78.2l0 -0.01c-7.21,-0.27 -14.5,-1.01 -21.82,-2.17 -113.31,-18.05 -122.35,-64.48 -108.14,-153.68 1.9,-11.88 3.86,-22.21 5.96,-33.34 6.17,-32.68 13.81,-72.97 15.65,-120.29 2.09,-53.39 5.1,-116.94 8.54,-190.37 18.03,-384.03 48.63,-1035.2 14.7,-1445.92 -9.87,-119.7 -62.73,-147.66 -147.3,-117.53 -115.79,41.26 -279.42,161.56 -472.87,316.06 -37.59,177.51 -45.03,1142.08 -47.87,1513.06 -0.61,81.09 -1.03,134.5 -1.48,145.82 -0.91,23.23 -11.18,54.54 -28.24,87.21 -22.03,42.16 -57.03,90.66 -98.16,128.25 -45.71,41.77 -100.1,71.2 -156.79,68.97 -21.73,-0.86 -43.35,-6.31 -64.4,-17.3l-17.98 -9.39 -7.12 -19.03c-25.46,-68 -31.41,-323.35 -27.75,-624.02 5.63,-461.93 32.65,-1037.83 46.47,-1189.08 3.54,-38.77 1.17,-70.48 -6.1,-95.96 -11.17,-39.1 -35.73,-62.66 -68.65,-74.5 -39.81,-14.3 -92.48,-14.33 -150.89,-4.8 -93.01,15.17 -197.28,54.25 -289.72,99.79 -41.43,143.27 -27.89,563.02 -14.57,975.87 15.87,491.6 31.43,973.87 -66.76,1035.2 -162.48,101.55 -312.27,-111.94 -368.36,-191.96l-0.1 0.06 -8.2 -11.63 -11.57 -16.39 2.23 -19.91c10.05,-90.03 6.14,-661.01 2.4,-1209.53 -3.56,-519.58 -6.97,-1019.24 2.11,-1082.25 1.16,-8.1 2.77,-16.18 4.76,-24.16l0 -0.21c16.58,-66.4 60.25,-121.66 120.48,-157.11 57.94,-34.11 131.28,-49.66 209.77,-38.35 12.58,1.81 25.18,4.27 37.63,7.37 136.8,34.16 130.16,157.83 125.17,250.94z"/>
   </g>
   <g>
    <path class="fil0" d="M12973.89 1789.19c349.63,-1404.85 1617.68,-1345.33 1440.33,-899.03 -164.64,414.18 -536.6,781.32 -602.47,804.9 -65.89,23.57 -437.76,225.89 -837.85,94.13zm93.67 369.79c14.81,-19.6 125.95,-18.36 200.46,-35.65 432.89,-100.46 798.78,-205.79 1063.75,-578.99 392.68,-553.17 702.3,-1227.66 -338.91,-1266.14 -595.99,-21.98 -1203.58,921.41 -1322.87,1509.5 -9.14,45.04 -180.26,41.19 -183.38,81.51 -3.62,46.37 51.2,137.64 111.87,196.52 41.11,39.88 90.17,49.83 105.79,79.67 139.53,265.83 513.29,528.78 785,556.91 635.44,65.8 960.14,-164.71 1044.89,-272.99 84.75,-108.27 89.49,-334.22 -14.09,-357.74 -103.58,-23.52 -186.2,-2.98 -207.11,103.58 -123.14,626.52 -1367.71,145.85 -1245.39,-16.17z"/>
    <path id="1" class="fil1" d="M12973.89 1789.19c349.63,-1404.85 1617.68,-1345.33 1440.33,-899.03 -164.64,414.18 -536.6,781.32 -602.47,804.9 -65.89,23.57 -437.76,225.89 -837.85,94.13zm93.67 369.79c14.81,-19.6 125.95,-18.36 200.46,-35.65 432.89,-100.46 798.78,-205.79 1063.75,-578.99 392.68,-553.17 702.3,-1227.66 -338.91,-1266.14 -595.99,-21.98 -1203.58,921.41 -1322.87,1509.5 -9.14,45.04 -180.26,41.19 -183.38,81.51 -3.62,46.37 51.2,137.64 111.87,196.52 41.11,39.88 90.17,49.83 105.79,79.67 139.53,265.83 513.29,528.78 785,556.91 635.44,65.8 960.14,-164.71 1044.89,-272.99 84.75,-108.27 89.49,-334.22 -14.09,-357.74 -103.58,-23.52 -186.2,-2.98 -207.11,103.58 -123.14,626.52 -1367.71,145.85 -1245.39,-16.17zm848.6 -1465.52c-318.32,95.03 -700.96,406.31 -878.04,1059.39 317.01,83.2 610.7,-45.04 717.9,-91.84 17.23,-7.53 30.37,-13.26 37.88,-15.95 34.4,-12.31 174.88,-145.58 319.68,-339.03 94.94,-126.83 188.88,-277.88 251.48,-435.38 24.45,-61.53 12.11,-112.01 -25.71,-146.38 -35.37,-32.17 -91.85,-53.44 -162.27,-60.63l0 -0.02c-75.19,-7.63 -164.71,1.14 -260.92,29.84zm-745.96 1497.43c-35.15,3.72 -55.12,-6.88 -60.33,0.03 -1.44,1.92 18.34,18.27 50.64,42.65 44.41,33.52 109.93,68.5 187.6,99.79 79.03,31.85 170.21,59.65 264.42,78.16 284.51,55.91 594.82,25.89 648.36,-246.54 0.27,-1.4 0.89,-4.17 1.77,-8.06l0.04 0.01c15.13,-66.48 50.21,-107.84 98.96,-129.79 44.57,-20.06 98.24,-21.62 156.43,-10.21 2.09,0.4 6.75,1.44 13.58,2.98 18.98,4.3 35.81,12.55 50.52,24.06 35.27,27.6 56.33,73.09 64.45,125.69 7.18,46.45 4.61,99.78 -6.88,150.4 -11.86,52.27 -33.46,102.88 -63.92,141.8 -55.48,70.88 -203.17,189.28 -456.15,255.38 -164.52,42.99 -375.09,64.74 -635.82,37.74 -145.52,-15.06 -316.65,-91.94 -468.81,-199.88 -150.41,-106.71 -284.11,-245.12 -357.67,-385.25 -1.16,-2.22 -12.8,-8.95 -26.52,-16.86 -21.32,-12.29 -45.57,-26.27 -69.33,-49.33 -34.56,-33.53 -67.43,-76.56 -90.71,-117.47 -24.81,-43.58 -39.72,-87.52 -37.12,-120.95 4.58,-59.21 65.37,-72.51 128.37,-86.3 28.61,-6.26 53.8,9.44 56.04,-1.65 67.51,-332.82 287.04,-776 572.45,-1101.68 236.22,-269.54 519.39,-460.84 804.14,-450.33 557.93,20.6 754.08,220.22 758.18,492.33 3.87,256.47 -176.38,573.41 -377.99,857.4 -138.23,194.7 -302.8,319.54 -489.23,408.78 -183.74,87.94 -386.48,140.25 -605.84,191.16 -34.26,7.94 -73.61,12.12 -109.44,15.92l-0.2 0z"/>
   </g>
   <g>
    <path class="fil0" d="M15413.02 176.33c-123.6,-50.13 -308.64,5.5 -331,84.26 -22.34,78.76 12.35,1689.19 42.33,1923.76 64.98,508.11 768.4,640.44 1148.24,339.75 93.95,-74.37 213.33,-252.69 238.26,-171.72 24.92,80.97 15.73,290.03 48.89,331.49 33.17,41.45 140.79,26.56 163.52,-58.84 22.74,-85.4 -14.16,-225.93 -24.83,-287.11 -11.11,-63.71 57.29,-2005.6 62.31,-2091.8 5.01,-86.2 70.81,-96.45 32.91,-158.07 -37.91,-61.61 -217.23,-36.81 -251.03,34.78 -33.79,71.58 -10.27,243.81 -11.03,292.09 -2.22,139.53 -48.33,1646.93 -180.97,1787 -132.64,140.05 -565.02,232.83 -684.07,140.85 -534,-412.7 -129.92,-2116.31 -253.53,-2166.44z"/>
    <path id="1" class="fil1" d="M15413.02 176.33c-123.6,-50.13 -308.64,5.5 -331,84.26 -22.34,78.76 12.35,1689.19 42.33,1923.76 64.98,508.11 768.4,640.44 1148.24,339.75 93.95,-74.37 213.33,-252.69 238.26,-171.72 24.92,80.97 15.73,290.03 48.89,331.49 33.17,41.45 140.79,26.56 163.52,-58.84 22.74,-85.4 -14.16,-225.93 -24.83,-287.11 -11.11,-63.71 57.29,-2005.6 62.31,-2091.8 5.01,-86.2 70.81,-96.45 32.91,-158.07 -37.91,-61.61 -217.23,-36.81 -251.03,34.78 -33.79,71.58 -10.27,243.81 -11.03,292.09 -2.22,139.53 -48.33,1646.93 -180.97,1787 -132.64,140.05 -565.02,232.83 -684.07,140.85 -534,-412.7 -129.92,-2116.31 -253.53,-2166.44zm-9.89 -59.31c10.43,2.95 20.41,6.35 29.8,10.15 75.8,30.74 59.67,234.28 37.22,517.23 -42.68,537.95 -110.63,1394.19 228.75,1656.47 46.11,35.63 165.56,33.07 290.58,7.34 131.36,-27.04 263.38,-80.12 322.76,-142.8 37.14,-39.21 69.08,-245.2 95.1,-502.08 50.02,-494 69.92,-1159.01 71.35,-1249.23l0 0c0.11,-8.57 -1.09,-27.08 -2.55,-49.47 -5.06,-77.39 -12.9,-197.76 18.55,-264.4 11.75,-24.87 32.17,-45.25 57.52,-60.84 32.63,-20.08 75.42,-33.14 117.05,-37.58 43.14,-4.6 86.97,0.06 119.86,15.59 20.94,9.9 38.17,24.05 49.74,42.87 37.94,61.7 19.67,92.03 -4.79,132.37l0.15 0.08c-8.71,14.39 -19.17,31.67 -20.6,56.31 -3.19,55.01 -31.89,855.32 -49.56,1448.8 -10.12,339.98 -16.82,611.09 -13.36,630.98 2.85,16.31 4.81,25.97 7.02,36.86 15.18,74.74 38.68,190.55 16.77,272.86 -9.6,36.09 -29.63,63.91 -54.52,83.82 -21.18,16.94 -45.57,27.85 -69.74,33.04 -24.73,5.32 -50.09,4.84 -72.37,-1.08 -23.66,-6.3 -44.52,-18.86 -59.4,-37.45 -28.91,-36.14 -34.83,-119.21 -40.8,-203.27 -2.76,-38.94 -5.55,-78.15 -9.92,-108.68 -16.9,15.81 -38.41,38.59 -60.73,62.23 -32.94,34.88 -67.4,71.37 -101.64,98.47 -114.44,90.6 -255.75,144.53 -401.19,163.11 -134.01,17.14 -271.98,4.35 -395.97,-37.29 -125.83,-42.27 -237.81,-114.38 -317.68,-215.29 -62.01,-78.33 -104.38,-173.56 -118.64,-285.13 -15.11,-118.23 -31.3,-575.69 -40.98,-1015.86 -9.89,-449.64 -12.5,-884.44 0.1,-928.85l0 -0.2c1.14,-3.97 2.52,-8.01 4.15,-12.02 20.51,-50.61 80.35,-91.61 152.93,-112.84 66.35,-19.41 146.08,-23.77 215.06,-4.19z"/>
   </g>
   <g>
    <path class="fil0" d="M4888.42 2849.25c194.5,9.75 773.13,77.89 962.78,-4.81 189.66,-82.7 1405.22,-116.74 1560.82,-87.55 155.6,29.2 204.29,-213.96 -136.11,-223.65 -340.41,-9.71 -1419.85,-34.06 -1599.76,68.05 -179.9,102.1 -495.97,92.36 -671.03,24.3 -175.06,-68.05 -204.21,155.61 -116.7,223.66z"/>
    <path id="1" class="fil1" d="M4888.42 2849.25c194.5,9.75 773.13,77.89 962.78,-4.81 189.66,-82.7 1405.22,-116.74 1560.82,-87.55 155.6,29.2 204.29,-213.96 -136.11,-223.65 -340.41,-9.71 -1419.85,-34.06 -1599.76,68.05 -179.9,102.1 -495.97,92.36 -671.03,24.3 -175.06,-68.05 -204.21,155.61 -116.7,223.66zm144.04 63.4c-61.13,-4.77 -113.47,-8.87 -146.52,-10.51l-17.02 -0.85 -13.05 -10.14c-46.74,-36.33 -70.17,-101.24 -68.01,-162.66 1.02,-28.63 7.43,-57.01 19.48,-81.89 13.22,-27.31 33.03,-50.67 59.7,-66.38l0.2 0c39.82,-23.46 92.31,-29.12 156.97,-3.98 86.69,33.71 211.54,52.04 335.54,47.56 107.94,-3.91 213.72,-25.11 290.26,-68.54 98.99,-56.19 422.79,-77.22 765,-82.79 336.19,-5.49 691.87,3.05 862.35,7.9 155.86,4.44 243.97,56.06 282.17,114.32 17.71,27.03 25.45,56.03 24.77,83.91 -0.7,28.95 -10.53,56.1 -27.78,78.33 -31.45,40.55 -86.75,64.7 -154.24,52.04 -85.85,-16.1 -516.54,-11.68 -905.8,10.15 -287.7,16.13 -549.47,41.32 -624.12,73.87 -165.72,72.27 -581.78,39.8 -839.9,19.68z"/>
   </g>
  </g>
  <g>
   <g>
    <path class="fil0" d="M1286.16 3964.19c-13.13,-76.41 -200.21,-249.61 -300.48,-259.03 -100.28,-9.42 -325.25,89.28 -340.31,217.23 -15.06,127.95 -8.21,246.78 131.2,372.15 139.41,125.38 656.35,419.16 493.22,703.27 -205.06,357.08 -503.61,87.97 -471.46,41.1 42.54,-61.96 1.7,-121.63 -92.28,-108.14 -93.97,13.5 -197.02,64.54 -151.6,203.42 45.42,138.88 267.48,248.72 339.3,261.69 71.81,12.99 563.17,-91.27 521.59,-511.12 -30.66,-309.73 -230.54,-451.07 -251.2,-463.51 -20.67,-12.46 -427.69,-303.85 -391,-423.51 70.6,-230.21 306.52,-135.49 310.14,-92.01 4.04,48.63 139.42,125.39 202.87,58.46z"/>
    <path id="1" class="fil1" d="M1286.16 3964.19c-13.13,-76.41 -200.21,-249.61 -300.48,-259.03 -100.28,-9.42 -325.25,89.28 -340.31,217.23 -15.06,127.95 -8.21,246.78 131.2,372.15 139.41,125.38 656.35,419.16 493.22,703.27 -205.06,357.08 -503.61,87.97 -471.46,41.1 42.54,-61.96 1.7,-121.63 -92.28,-108.14 -93.97,13.5 -197.02,64.54 -151.6,203.42 45.42,138.88 267.48,248.72 339.3,261.69 71.81,12.99 563.17,-91.27 521.59,-511.12 -30.66,-309.73 -230.54,-451.07 -251.2,-463.51 -20.67,-12.46 -427.69,-303.85 -391,-423.51 70.6,-230.21 306.52,-135.49 310.14,-92.01 4.04,48.63 139.42,125.39 202.87,58.46zm-90.61 -201.39c72.47,62.48 134,140.81 142.88,192.47l4.48 26.06 -18.38 19.37c-25.33,26.71 -56.9,39.43 -90.18,42.18 -30.98,2.58 -63.25,-3.97 -92.21,-15.67 -28.1,-11.34 -53.93,-27.95 -72.8,-45.84 -22.32,-21.17 -36.85,-46.22 -38.93,-71.29 -0.64,-7.74 -2.64,10.75 -8.55,7.82 -14.84,-7.37 -34.33,-13.39 -55.51,-15.28 -20.6,-1.84 -42.73,0.24 -63.41,8.87 -31.69,13.21 -61.3,43.53 -79.17,101.81 -5.9,19.26 27.36,63.88 74.18,114.59 107.9,116.87 280.6,240.11 293.59,247.94 15.14,9.11 115.36,79.14 190.85,218.43 40.16,74.12 74.12,168.63 85.66,285.32 5.03,50.95 2.93,98.07 -4.92,141.52 -28.15,155.7 -128.71,259.96 -238.7,326.78 -106.66,64.79 -223.34,94.07 -288.02,100.47 -21.45,2.11 -39.46,1.85 -51.97,-0.41 -48.31,-8.73 -154.65,-54.59 -241.48,-121.57 -62.23,-47.99 -116.7,-107.96 -138.89,-175.8 -5.45,-16.69 -9.2,-32.6 -11.36,-47.7 -8.54,-59.47 6.68,-105.74 35.67,-141.35 27.24,-33.45 65.64,-55.26 106.77,-68.7 20.75,-6.79 42.37,-11.51 63.45,-14.53 35.46,-5.09 66.33,-2.05 91.32,6.89 25.81,9.22 46.02,24.89 59.66,45 14.33,21.11 20.6,45.94 17.94,72.38 -2.23,21.93 -10.53,44.53 -25.41,66.21 -6.98,10.18 16.61,-12.03 23.98,-4.7 13.13,13.05 30.73,26.42 51.52,37.51 20.62,11.01 44.38,19.71 69.94,23.52 71.8,10.73 159.66,-20.02 236.37,-153.54l-0.16 -0.1c109.44,-190.6 -185.32,-411 -368.86,-548.21 -46.06,-34.43 -85.81,-64.14 -113.78,-89.31 -77.99,-70.14 -119.25,-139.63 -139.08,-210.2 -19.6,-69.74 -17.53,-137.63 -9.33,-207.37 8.79,-74.75 66.81,-138.62 139.06,-184.73 84.51,-53.94 192.92,-85.34 258.71,-79.17 59.83,5.62 138.73,53.1 205.1,110.32z"/>
   </g>
   <g>
    <path class="fil0" d="M5206.68 3834.47c11.19,-26.57 29.66,-120.56 -3.69,-132.33 -33.34,-11.79 -93.56,-33.36 -105.79,-15.32 -12.22,18.03 -12.67,116.28 2.02,144.1 14.7,27.83 -4.75,196.32 -4.75,196.32 0,0 -79.57,58.79 -105.14,47.39 -25.57,-11.41 -99.85,1.91 -99.85,1.91 0,0 -63.23,117.22 -20.18,149.81 43.05,32.59 67.89,25.33 86.85,-0.85 18.96,-26.19 111.01,-69.12 131.81,-71.51 20.79,-2.38 -21.58,1286.6 -21.58,1286.6 0,0 93.17,4.53 115.13,-35.05 21.96,-39.58 19.4,-1300.25 19.4,-1300.25 0,0 167.52,-52.83 219.69,-63.84 52.16,-11.01 59.64,-85.19 59.64,-85.19 0,0 -71.21,-44.14 -139.33,-20.35 -68.13,23.79 -136.66,61.1 -136.66,61.1 0,0 -5.37,-78.19 2.41,-162.54z"/>
    <path id="1" class="fil1" d="M5274.64 3761.59c-1.51,31.5 -9.23,65.95 -15.93,85.13 -1.93,23.31 -2.84,46.03 -3.15,66.4 20.9,-9.29 44.35,-18.95 67.95,-27.19 91.91,-32.09 184.71,25.37 184.97,25.53l27.73 17.51 -3.25 32.48c-0.02,0.31 -11.41,112.85 -101.54,131.87 -34.1,7.19 -125.69,34.99 -177.55,51.02 0.11,214.07 -0.7,1241.18 -26.08,1286.93 -38.08,68.63 -163.11,62.22 -163.45,62.21l-52.47 -2.09 1.66 -52.45c0.06,-2.24 51.35,-506.78 76.59,-869.48 -7.42,375.95 -23.7,871.11 -23.7,871.13 0.01,0 93.17,4.53 115.13,-35.05 21.96,-39.58 19.4,-1300.25 19.4,-1300.25 0,0 167.52,-52.83 219.69,-63.84 52.16,-11.01 59.64,-85.19 59.64,-85.19 0,0 -71.21,-44.14 -139.33,-20.35 -68.13,23.79 -136.66,61.1 -136.66,61.1 0,0 -5.37,-78.19 2.41,-162.54 11.19,-26.57 29.66,-120.56 -3.69,-132.33 -33.34,-11.79 -93.56,-33.36 -105.79,-15.32 -12.22,18.03 -12.67,116.28 2.02,144.1 14.7,27.83 -4.75,196.32 -4.75,196.32 -0.01,0 -79.57,58.79 -105.14,47.39 -25.57,-11.41 -99.85,1.91 -99.85,1.91 0,0.01 -63.23,117.22 -20.18,149.81 43.05,32.59 67.89,25.33 86.85,-0.85 18.96,-26.19 111.01,-69.12 131.81,-71.51 2.55,-0.3 4.15,18.97 4.99,52.85 -7.68,1.66 -32.4,12.96 -57.45,26.53l-0.08 -0.16c-17.85,9.69 -33.14,19 -36.33,23.41 -18.47,25.48 -41.6,41.93 -73.58,44.23 -26.65,1.94 -55.48,-7.47 -88.14,-32.19 -79.74,-60.37 5.01,-216.57 5.25,-217.02l11.81 -22.22 24.69 -4.95c0.25,-0.04 91.9,-15.97 131.79,1.82 1.93,0.86 18.95,-13.13 33.08,-25.19 4.41,-42.25 13.48,-135.8 8.36,-145.5 -11.09,-21.03 -16.58,-60.18 -17.08,-96.69 -0.57,-40.46 5.86,-83.58 18.17,-101.75 35.09,-51.75 118.53,-22.21 166,-5.43l0.21 0 0.17 0.06 1 0.41 0.01 -0.03 -0.92 -0.35 0.22 0.07 0.7 0.28 0.01 -0.02 -0.8 -0.29 0.08 0.03 0.71 0.25 -0.01 0.02 1.04 0.39 1.08 0.41 -1.08 -0.41 -0.03 0.07 1.07 0.45 0.04 -0.11 -0.04 0.11 1.71 0.72c40.74,17.18 52.25,61.43 50.02,107.78zm-52.77 -109.02l-1.04 -0.39 -0.01 0.03 1.02 0.44 0.03 -0.07zm-1.96 -0.74l-0.13 -0.05 0.04 0.02 0.08 0.03z"/>
   </g>
   <g>
    <path class="fil0" d="M3147.5 5347.22c0,0 39.74,-601.03 26.5,-645.66 -13.25,-44.65 -3.29,-192.3 29.8,-219.8 33.1,-27.46 96.05,-13.75 99.34,65.25 3.32,78.99 -23.18,202.64 -3.32,216.37 19.88,13.74 102.68,-226.68 251.71,-285.05 149.04,-58.38 215.25,44.66 258.32,133.96 43.04,89.27 43.03,638.77 16.54,679.99 -26.51,41.22 -76.17,65.26 -96.05,34.32 -19.86,-30.88 39.77,-425.87 16.58,-542.61 -23.19,-116.8 -52.99,-230.08 -122.53,-216.38 -114.26,22.58 -188.46,92.04 -298.12,326.96 -23.15,96.14 -76.1,418.34 -82.72,480.13 -6.62,61.81 -92.72,44.64 -96.04,-27.48z"/>
    <path id="1" class="fil1" d="M3094.61 5343.69c0.11,-1.68 39.27,-591.13 28.57,-627.21 -9.12,-30.73 -10.08,-95.89 -2.46,-152.03 7.05,-52.12 23,-101.53 49.27,-123.35 18.54,-15.4 41.8,-24.16 65.58,-25.14 15.91,-0.67 32.28,2.2 47.81,8.93 15.59,6.75 29.96,17.09 41.69,31.25l-0.13 0.11c17.44,21.05 29.48,50.43 31.08,88.68 0.52,12.53 0.39,25.85 -0.16,39.52 43.81,-62.46 101.75,-126.26 176.37,-155.49 94.63,-37.07 164.98,-21.42 219.3,18.23 50.01,36.52 81.61,91.48 106.01,142.06 22.97,47.63 35.17,190.51 38.7,335.87 4.3,176.77 -5.72,365.33 -25.28,395.76 -13.91,21.64 -32.6,40.14 -52.13,52.7 -15.02,9.65 -31.38,16.25 -47.67,18.79 -21.34,3.35 -42.04,-0.08 -60.25,-11.79 -9.81,-6.31 -18.32,-14.7 -25.18,-25.37 -18.73,-29.14 -10.78,-125.88 -1.47,-239.01 10.04,-121.95 21.85,-265.35 10.58,-322.06 -10.94,-55.09 -23.24,-108.93 -39.95,-145.1 -8.5,-18.39 -15.77,-30.29 -20.36,-29.39 -46.32,9.14 -84.57,27.86 -122.36,68.09 -42.01,44.72 -84.45,115.07 -135.73,224.34 -9.66,41.77 -24.84,124.16 -39.53,209.48 -19.21,111.58 -37.15,225.62 -40.7,258.72 -4.14,38.75 -24.86,64.15 -52.41,76.88l0.04 0.08c-14.73,6.78 -31,9.29 -47.29,7.79 -14.86,-1.36 -29.67,-6.06 -43.12,-13.85 -30.97,-17.95 -56.59,-52.89 -58.83,-101.71l-0.15 -3.46 0.15 -2.35zm52.89 3.53c0,0 39.74,-601.03 26.5,-645.66 -13.25,-44.65 -3.29,-192.3 29.8,-219.8 33.1,-27.46 96.05,-13.75 99.34,65.25 3.32,78.99 -23.18,202.64 -3.32,216.37 19.88,13.74 102.68,-226.68 251.71,-285.05 149.04,-58.38 215.25,44.66 258.32,133.96 43.04,89.27 43.03,638.77 16.54,679.99 -26.51,41.22 -76.17,65.26 -96.05,34.32 -19.86,-30.88 39.77,-425.87 16.58,-542.61 -23.19,-116.8 -52.99,-230.08 -122.53,-216.38 -114.26,22.58 -188.46,92.04 -298.12,326.96 -23.15,96.14 -76.1,418.34 -82.72,480.13 -6.62,61.81 -92.72,44.64 -96.04,-27.48z"/>
   </g>
   <g>
    <path class="fil0" d="M6351.28 5399.79c0,0 -70.17,-503.17 -33.61,-521.16 36.56,-18 356.95,-118.56 391.14,-89.28 34.2,29.27 42.97,545.13 42.97,545.13 0,0 56.19,0.4 63.61,-39.33 7.42,-39.74 -39.1,-513.95 -39.1,-513.95 0,0 39.23,-59.4 10.85,-65.47 -28.39,-6.09 -26.43,-14.06 -26.43,-14.06l-16.56 -195.31 30.57 -45.1c0,0 -47.63,-16.66 -84.39,-2.58 -36.73,14.09 -407.75,84.42 -407.75,84.42 0,0 -76.47,-32.51 -89.53,-12.05 -13.04,20.44 5.08,296.16 5.08,296.16 0,0 -21.12,46.48 -5.97,69.1 15.13,22.62 4.22,374.75 14.03,480.17 10.29,19 133.98,35.78 145.08,23.32zm-37.23 -595.55c0,0 369.28,-105.57 398.03,-91.67 28.77,13.91 -17.15,-159.92 -17.15,-159.92 0,0 -33.91,-23.41 -112.56,-4.74 -78.65,18.66 -261.33,63.46 -274.19,87.84 -12.85,24.37 -5.37,129.93 5.87,168.49z"/>
    <path id="1" class="fil1" d="M6751.77 5334.48c0,0 56.19,0.4 63.61,-39.33 7.42,-39.74 -39.1,-513.95 -39.1,-513.95 0,0 39.23,-59.4 10.85,-65.47 -28.39,-6.09 -26.43,-14.06 -26.43,-14.06l-16.56 -195.31 30.57 -45.1c0,0 -47.63,-16.66 -84.39,-2.58 -36.73,14.09 -407.75,84.42 -407.75,84.42 0,0 -76.47,-32.51 -89.53,-12.05 -13.04,20.44 5.08,296.16 5.08,296.16 0,0 -21.12,46.48 -5.97,69.1 15.13,22.62 4.22,374.75 14.03,480.17 10.29,19 133.98,35.78 145.08,23.32 0,0 -70.17,-503.17 -33.61,-521.16 36.56,-18 356.95,-118.56 391.14,-89.28 34.2,29.27 42.97,545.11 42.97,545.13zm-437.73 -530.24c0,0 369.28,-105.57 398.03,-91.67 28.77,13.91 -17.15,-159.92 -17.15,-159.92 0,0 -33.91,-23.41 -112.56,-4.74 -78.65,18.66 -261.33,63.46 -274.19,87.84 -12.85,24.37 -5.37,129.93 5.87,168.49zm27.06 121.89c-2.33,1.15 62.47,465.07 62.65,466.39l3.41 24.35 -16.68 18.38c-4.55,5.01 -9.81,9.26 -15.78,12.47 -18.64,10.08 -62.38,10.7 -102.43,4.86l-0.21 0c-39.12,-5.72 -81.07,-17.93 -98.76,-33.7l-0.21 -0.2c-5.43,-4.87 -10,-10.55 -13.55,-17.13l-4.97 -9.23 -1.04 -11.1c-4.53,-48.72 -4.83,-145.1 -5.11,-239.77 -0.32,-109.35 0.21,-215.08 -0.21,-215.71 -22.94,-34.24 -11.57,-82.51 -3.63,-106.32 -3.23,-54.08 -15.8,-285.92 3.91,-316.81 28.54,-44.71 104.86,-25.5 138.51,-14.27 67.51,-12.88 355.55,-68.15 384.48,-79.25 55.03,-21.08 118.63,1.49 118.81,1.54l68.37 21.04 -40.16 59.24 -19.9 29.36 12.48 147.23c61.06,21.92 36.25,90.62 19.44,124.49 8.06,83.9 44.65,471.64 36.94,512.9 -15.6,83.51 -115.4,82.68 -115.67,82.68l-52.12 0 -0.76 -52.47c-0.01,-1.39 -7.73,-491.16 -24.51,-505.51 -2.11,-1.82 -35.56,11.19 -85.14,22.5 -101.56,23.17 -227.18,63.72 -248.13,74.04zm362.96 -264.32l-4.16 -49.08c-10.03,-8.64 -20.04,-17.08 -28.8,-24.35l-5.63 8.44c-0.03,-0.02 -14.97,-10.53 -70.88,2.73 -40.1,9.5 -106.12,25.52 -159.28,40.95 -45.2,13.12 -78.67,16.86 -80.28,19.92 -1.32,2.5 -1.23,21.28 -0.42,44.52 0.37,10.76 1.07,21.77 2.03,32.31 92.04,-25.25 270.95,-71.98 347.42,-75.43z"/>
   </g>
   <g>
    <path class="fil0" d="M1838.5 5402.54c-138.38,2.79 -295.48,-246.95 -229.31,-493.9 66.15,-246.93 229.29,-454.19 352.77,-418.91 123.48,35.28 174.2,127.87 231.51,145.51 57.33,17.64 35.29,123.47 26.46,158.75 -8.83,35.28 -11.02,141.15 -19.84,207.27 -8.83,66.12 -64.64,395.26 -361.59,401.28zm61.73 -101.42c-32.57,1.42 -171.98,-92.59 -171.98,-255.76 0,-163.15 96.78,-353.24 185.18,-366.01 88.4,-12.79 272.82,48.05 207.28,291.04 -65.54,242.97 -139.13,327.18 -220.48,330.73z"/>
    <path id="1" class="fil1" d="M1839.54 5455.43c-16.85,0.34 -33.44,-1.76 -49.52,-6.05 -64.92,-17.4 -127.93,-71.8 -174.06,-147.76 -43.54,-71.72 -73.19,-164.19 -75.18,-262.84 -0.95,-47.25 4.3,-95.74 17.17,-143.81l0.05 0.01c2.27,-8.55 3.61,-13.37 4.33,-15.95 36.17,-126.62 96.57,-242.82 164.2,-323.43 76.28,-90.92 165.01,-139.62 247.48,-117.53l0.41 0.2 1.61 0.45 0.41 0c85.12,24.31 138.1,70.49 181.03,107.93 21.27,18.54 39.26,34.23 51.53,38 57.05,17.54 74.48,68.73 75.37,122.54 0.66,39.65 -8.05,79.78 -13.02,99.68 -3.76,15.05 -6.46,53.62 -9.33,94.95 -2.5,35.91 -5.15,73.81 -9.47,106.3 -4.79,35.88 -22.35,143.24 -79.17,242.66 -59.94,104.87 -161.71,201.16 -333.86,204.65zm-1.04 -52.89c-138.38,2.79 -295.48,-246.95 -229.31,-493.9 66.15,-246.93 229.29,-454.19 352.77,-418.91 123.48,35.28 174.2,127.87 231.51,145.51 57.33,17.64 35.29,123.47 26.46,158.75 -8.83,35.28 -11.02,141.15 -19.84,207.27 -8.83,66.12 -64.64,395.26 -361.59,401.28zm61.73 -101.42c-32.57,1.42 -171.98,-92.59 -171.98,-255.76 0,-163.15 96.78,-353.24 185.18,-366.01 88.4,-12.79 272.82,48.05 207.28,291.04 -65.54,242.97 -139.13,327.18 -220.48,330.73zm-56.88 -99.48c27.44,30.2 49.96,46.39 56.14,46.39l0 0.12c23.84,-1.65 48.19,-17.25 73.77,-53.32 33.12,-46.75 65.16,-122.97 96.23,-238.13 11.88,-44.05 14.33,-80.21 10.08,-109.59 -4.79,-33.13 -18.43,-57.61 -36.2,-75.07 -18.26,-17.92 -41.47,-29.29 -64.44,-35.48 -21.68,-5.84 -42.29,-7.01 -58.02,-4.74 -26.07,3.77 -58.26,43.33 -86.11,98.38 -31.69,62.64 -53.44,142.01 -53.44,215.16 0,5.82 0.02,9.04 0.04,10.11l0.01 0c2.73,62.47 30.99,112.11 61.95,146.17z"/>
   </g>
   <g>
    <path class="fil0" d="M2519.86 4525.16c-42.26,-21.54 -105.52,-9.08 -113.16,17.03 -7.63,26.12 -0.18,542.74 10.07,624 22.2,176.03 262.73,246.3 392.62,156.99 32.11,-22.1 72.94,-78.81 81.45,-50.24 8.52,28.56 5.38,99.72 16.73,115.08 11.33,15.35 48.14,14.08 55.89,-14.29 7.78,-28.4 -4.84,-77.76 -8.47,-99.05 -3.8,-22.18 19.57,-683.72 21.3,-713.02 1.72,-29.28 24.21,-30.44 11.26,-52.87 -12.97,-22.41 -74.29,-20.32 -85.84,2.96 -11.57,23.28 -3.5,83 -3.78,99.48 -0.76,47.62 -16.51,561.4 -61.86,604.56 -45.36,43.18 -193.22,59.52 -233.9,23.84 -182.6,-160.08 -40.04,-692.93 -82.29,-714.47z"/>
    <path id="1" class="fil1" d="M2519.86 4525.16c-42.26,-21.54 -105.52,-9.08 -113.16,17.03 -7.63,26.12 -0.18,542.74 10.07,624 22.2,176.03 262.73,246.3 392.62,156.99 32.11,-22.1 72.94,-78.81 81.45,-50.24 8.52,28.56 5.38,99.72 16.73,115.08 11.33,15.35 48.14,14.08 55.89,-14.29 7.78,-28.4 -4.84,-77.76 -8.47,-99.05 -3.8,-22.18 19.57,-683.72 21.3,-713.02 1.72,-29.28 24.21,-30.44 11.26,-52.87 -12.97,-22.41 -74.29,-20.32 -85.84,2.96 -11.57,23.28 -3.5,83 -3.78,99.48 -0.76,47.62 -16.51,561.4 -61.86,604.56 -45.36,43.18 -193.22,59.52 -233.9,23.84 -182.6,-160.08 -40.04,-692.93 -82.29,-714.47zm-1.35 -57.22c9.02,2.64 17.58,5.94 25.41,9.93 45.5,23.19 38.6,97.87 29.02,201.87 -15.24,165.34 -39.56,429.23 64.05,520.06 8.54,7.49 39.5,8.43 74.01,4.92 37.81,-3.86 74.34,-13.78 88.54,-27.3 5.26,-5 13.13,-66.2 21.23,-145.48 17.01,-166.33 23.77,-391.04 24.26,-421.53 0,-0.59 -0.39,-6.86 -0.87,-14.35 -1.96,-30.32 -5.01,-77.44 10.04,-107.74 7.06,-14.26 18.21,-25.23 31.79,-33.08 16.01,-9.26 36.65,-14.32 56.54,-14.98 19.8,-0.66 40.62,3.01 57.12,11.19l0.21 0c13.89,6.91 25.57,17.09 33.52,30.8 23.45,40.6 12.05,58.21 -3.1,81.65 -0.52,0.81 -1.05,-0.01 -1.1,0.88 -1.12,18.97 -10.93,290.73 -16.93,491.82 -3.41,114.1 -5.79,204.46 -4.99,209.17 0.41,2.42 1.33,7.01 2.35,12.16 5.77,29.05 14.67,73.98 4.89,109.71 -5.52,20.25 -16.93,35.44 -31.16,45.96l-0.21 0.2c-11.48,8.45 -24.68,13.63 -37.93,15.78 -12.77,2.07 -26.04,1.29 -38.06,-2 -16.79,-4.58 -31.92,-14.2 -42.28,-28.24l0.03 -0.02c-10.8,-14.78 -15.22,-35.53 -17.7,-58.21 -2.53,1.95 -5.1,3.84 -7.71,5.64 -36.29,24.96 -79.02,39.88 -123.63,45.5 -56.85,7.17 -117.16,-0.68 -171.03,-21.93 -55.36,-21.85 -104.82,-57.9 -138.28,-106.57 -21.95,-31.93 -36.95,-69.08 -42.22,-110.91 -5.24,-41.54 -9.71,-186.64 -11.98,-327.28 -2.42,-150.76 -1.75,-299.81 3.57,-318.09 1.35,-4.65 3.02,-8.87 4.94,-12.67l0 -0.21c12.82,-25.15 40.79,-42.67 73.56,-49.69 25.39,-5.44 56.02,-5.12 83.93,3.05l0.2 0z"/>
   </g>
   <g>
    <path class="fil0" d="M4609.21 4594.83c-207.34,-82.34 -231.14,-109.19 -417.12,-61.09 -185.96,48.1 -245.84,665.4 -141.48,807.35 175.64,100.91 504.94,-31.89 573.25,-122.17 43.89,31.89 7.34,103.55 21.97,114.17 54.86,-5.3 59.78,-37.15 84.16,-106.21 -24.4,-127.47 -28.08,-191.24 -28.08,-244.35 0,-53.12 -46.36,-1298.63 -7.33,-1325.16 39.04,-26.55 -139.03,-13.27 -131.71,55.79 7.32,69.06 53.65,663.91 46.32,881.67zm-4.82 293.43c-10.13,-60.2 -9.93,-129.5 -40.29,-161.35 -108.22,-113.46 -314.76,-51 -322.2,-39.92 -95.32,141.93 -130.17,446.3 -42.46,542.54 59.03,64.77 198.8,34.9 299.85,-27.56 60.12,-37.17 146.65,-66.99 105.09,-313.71z"/>
    <path id="1" class="fil1" d="M4609.21 4594.83c-207.34,-82.34 -231.14,-109.19 -417.12,-61.09 -185.96,48.1 -245.84,665.4 -141.48,807.35 175.64,100.91 504.94,-31.89 573.25,-122.17 43.89,31.89 7.34,103.55 21.97,114.17 54.86,-5.3 59.78,-37.15 84.16,-106.21 -24.4,-127.47 -28.08,-191.24 -28.08,-244.35 0,-53.12 -46.36,-1298.63 -7.33,-1325.16 39.04,-26.55 -139.03,-13.27 -131.71,55.79 7.32,69.06 53.65,663.91 46.32,881.67zm-4.82 293.43c-10.13,-60.2 -9.93,-129.5 -40.29,-161.35 -108.22,-113.46 -314.76,-51 -322.2,-39.92 -95.32,141.93 -130.17,446.3 -42.46,542.54 59.03,64.77 198.8,34.9 299.85,-27.56 60.12,-37.17 146.65,-66.99 105.09,-313.71zm-425.57 -405.74c178.71,-46.22 221.16,-29.95 378.12,34.17 -0.73,-74.45 -4.52,-169.13 -9.67,-267.21 -12.32,-234.53 -32.41,-486.8 -37.04,-530.73l-0.02 0c-6.71,-63.26 44.98,-99.57 100.25,-116.23 22.56,-6.81 46.72,-10.31 65.43,-10.74 49.31,-1.14 80.97,21.1 76.98,63.94l0 0.21c-1.67,17.43 -10.67,33.02 -28.61,45.2 -8.34,5.67 17.61,849.79 27.24,1163.22 2.12,69.19 3.53,114.8 3.53,118.18 0,25.77 0.84,53.66 4.47,88.9 3.79,36.78 10.62,83.05 22.57,145.49l2.71 14.1 -4.78 13.49c-2.43,6.88 -4.64,13.32 -6.7,19.34l0 0.2c-26.48,77.13 -39.02,113.67 -122.47,121.72l-20.01 1.93 -16.09 -11.68c-23.89,-17.35 -27.29,-36.74 -25.73,-59.81 -64.26,40.83 -154.72,79.23 -247.81,99.07 -110.7,23.59 -228.28,22.55 -316.9,-28.37l-9.9 -5.68 -6.49 -8.84c-17.21,-23.44 -30.61,-55.1 -40.27,-92.51 -27.24,-105.33 -27.39,-267.65 -2.88,-415.73 25.42,-153.73 78.83,-296.23 158.45,-354.75 17.13,-12.6 35.67,-21.75 55.63,-26.91zm373.3 414.45c-2.89,-17.19 -4.77,-32.59 -6.62,-47.82 -4.59,-37.76 -9.07,-74.49 -19.77,-85.72 -7.24,-7.58 -15.03,-14.07 -23.15,-19.52 -43.25,-29.02 -100.56,-33.62 -148.32,-29.84 -39,3.08 -65.7,7.71 -73.28,9.94 -41.39,66.04 -69.33,168.28 -76.89,265.04 -6.97,89.11 2.63,169.8 34.55,204.81 15.04,16.5 44.38,21.35 79.06,18.16 49.7,-4.57 106.3,-25.7 153.8,-55.05 10.58,-6.54 11.75,-7.19 14.3,-8.71 44.43,-26.23 98.8,-58.36 66.31,-251.29z"/>
   </g>
   <g>
    <path class="fil0" d="M5571.43 5354.85c-4.11,43.33 -145.18,59.55 -151.81,45.82 -28.63,-59.33 3.11,-114.1 3.11,-154.05 0,-39.95 20.83,-680.14 37.47,-719.13 16.63,-39 101.73,-77.55 155.73,-27.65 13.21,12.2 -12.6,10.2 -9.18,27.77 10.55,54.21 -3.55,124.91 -1.55,154.17 25.05,-17.74 130.54,-190.87 237.91,-194.25 54.15,-1.67 229.65,193.45 229.37,228.09 -0.29,34.64 2.87,60.42 -38.73,50.44 -41.59,-9.95 -163.1,-164.11 -221.33,-157.47 -58.22,6.64 -148.4,110.37 -206.61,213.6 -58.23,103.21 1.66,154.26 -34.38,532.66z"/>
    <path id="1" class="fil1" d="M5624.12 5359.83c-3.16,33.28 -26.14,56.64 -58.1,72.08 -21.41,10.33 -48.14,17.61 -72.96,21.82 -24.57,4.17 -49.06,5.5 -65.54,3.95l-0.21 0c-25.74,-2.42 -45.56,-13.63 -55.39,-33.98 -27.57,-57.16 -16.74,-105.31 -7.44,-146.66 2.68,-11.89 5.16,-22.93 5.16,-30.42 0,-25.39 8.7,-299.29 19.35,-504.06 6.16,-118.25 13.8,-215.48 22.47,-235.81 4.83,-11.31 11.96,-22.03 20.85,-31.65 18.41,-19.92 46.48,-37.19 77.45,-45.75 31.94,-8.83 67.98,-9.06 101.64,5.29 14.33,6.12 27.99,14.73 40.42,26.2l0 0.21c27.03,25 29.85,45.35 19.47,64.86 47.24,-46.87 105.59,-89.07 169.79,-91.25l0.38 -0.01 0 -0.01c-0.13,0 -0.25,0.01 -0.38,0.02l-0.23 0 0.62 -0.02 0 0.01 1.03 -0.01 0.89 -0.01 0.42 0 0.62 0c43.51,0.35 114.2,56.19 172.38,117.05 57.57,60.2 107.63,131.96 108.57,162.06l0.04 1.45 0.17 0 0 0.42 -0.16 0 0.16 4.96 0 -4.96 -501.46 644.21zm-52.69 -4.98c-4.11,43.33 -145.18,59.55 -151.81,45.82 -28.63,-59.33 3.11,-114.1 3.11,-154.05 0,-39.95 20.83,-680.14 37.47,-719.13 16.63,-39 101.73,-77.55 155.73,-27.65 13.21,12.2 -12.6,10.2 -9.18,27.77 10.55,54.21 -3.55,124.91 -1.55,154.17 25.05,-17.74 130.54,-190.87 237.91,-194.25 54.15,-1.67 229.65,193.45 229.37,228.09 -0.29,34.64 2.87,60.42 -38.73,50.44 -41.59,-9.95 -163.1,-164.11 -221.33,-157.47 -58.22,6.64 -148.4,110.37 -206.61,213.6 -58.23,103.21 1.66,154.26 -34.38,532.66zm553.97 -639.65l0.01 0.42 -0.05 0 -0.02 7.24c-0.01,14.47 -0.05,27.44 -3.32,41.13 -10.93,45.56 -35.87,69.01 -100.51,53.51 -30.39,-7.29 -65.39,-39.7 -104.53,-75.94 -40.82,-37.82 -87.97,-81.49 -98.55,-80.29 -14.43,1.65 -38.2,20.43 -65.15,48.3l-0.21 0c-35.95,37.16 -72.6,87.78 -101.21,138.54 -22.86,40.53 -21.32,75.22 -18.24,144.58 3.28,74.16 8.09,182.36 -9.49,367.14l501.29 -644.63z"/>
   </g>
   <g>
    <path class="fil0" d="M7332.66 4557.4c0,0 127.87,74.98 154.34,83.8 26.45,8.81 110.26,-4.43 66.15,-57.35 -44.09,-52.92 -211.83,-147.44 -251.37,-149.91 -421.21,-26.4 -486.93,730.98 -264.56,851.04 333.12,179.84 436.54,57.34 485.06,57.34 48.51,0 35.28,-114.65 35.28,-114.65 0,0 -57.92,3.47 -105.83,30.87 -194.97,111.54 -445.7,-132.97 -405.71,-330.73 38.54,-190.53 74.98,-343.96 286.64,-370.41z"/>
    <path id="1" class="fil1" d="M7470.4 4691.4c-27.49,-9.16 -112.94,-58.15 -148.4,-78.78 -76.79,13.24 -122.65,47.73 -152.58,96.25 -35.66,57.81 -53.3,139.08 -71.55,229.31 -9.74,48.16 3.42,101.38 30.92,149.44 20.37,35.62 48.19,67.81 80.25,92.87 31.42,24.55 66.65,42.28 102.49,49.52 37.96,7.68 77.28,3.39 113.84,-17.52 58.54,-33.47 128.86,-37.7 129.05,-37.71l50.86 -3.18 4.94 51.08c0.04,0.48 21.54,172.73 -87.96,172.73 -0.31,0 -7.27,3.14 -17.16,7.23 -69.97,28.9 -204.78,84.59 -492.99,-70.99 -82.06,-44.31 -131.79,-150.53 -147.49,-276.77 -11.35,-91.24 -5.39,-194.76 18.69,-292.24 24.49,-99.14 68,-192.71 131.48,-262.24 72.04,-78.88 168.41,-126.99 290.29,-119.36l0 0.02c29,1.93 95.42,32.16 156.82,68.78 53.57,31.94 106.97,70.28 131.88,100.18 16.5,19.82 23.96,39.29 24.81,57.77 1.09,24.1 -8.17,43.48 -23.96,58.56l0 -0.01c-11.2,10.66 -25.21,18.15 -39.91,22.93 -27.8,9.05 -64.29,8.79 -84.34,2.11zm-137.74 -134c0,0 127.87,74.98 154.34,83.8 26.45,8.81 110.26,-4.43 66.15,-57.35 -44.09,-52.92 -211.83,-147.44 -251.37,-149.91 -421.21,-26.4 -486.93,730.98 -264.56,851.04 333.12,179.84 436.54,57.34 485.06,57.34 48.51,0 35.28,-114.65 35.28,-114.65 0,0 -57.92,3.47 -105.83,30.87 -194.97,111.54 -445.7,-132.97 -405.71,-330.73 38.54,-190.53 74.98,-343.96 286.64,-370.41z"/>
   </g>
   <g>
    <path class="fil0" d="M7952.6 3918.24c3.53,-92.14 62.34,-160.14 21.96,-182.87 -32.6,-18.36 -158.76,-97.02 -158.76,-26.46 0,70.56 9.56,1167.84 -8.8,1179.61 -18.35,11.76 -152.47,145.76 -110.23,156.54l94.81 24.23 -50.72 350.58c0,0 185.22,-35.26 180.8,-66.14 -4.42,-30.88 28.66,-310.9 28.66,-310.9 29.92,-51.06 48.35,-107.32 81.63,-127.08 203.22,-120.78 358.56,133.89 361.53,473.27 47.98,4.85 48.18,-44.68 90.39,-55.14 6.12,-1.52 -30.38,-467.18 -346.12,-544.6 97.02,-132.28 205.01,-196.23 273.37,-330.73 -4.41,-149.94 -88.17,-8.83 -114.62,0 -26.46,8.81 -127.93,178.57 -304.3,288.84 -66.86,-44.58 -45.65,-670.45 -39.6,-829.15z"/>
    <path id="1" class="fil1" d="M7807 4888.51c-18.35,11.76 -152.47,145.76 -110.23,156.54l94.81 24.23 -50.72 350.58c0,0 185.22,-35.26 180.8,-66.14 -4.42,-30.88 28.66,-310.9 28.66,-310.9 29.92,-51.06 48.35,-107.32 81.63,-127.08 203.22,-120.78 358.56,133.89 361.53,473.27 47.98,4.85 48.18,-44.68 90.39,-55.14 6.12,-1.52 -30.38,-467.18 -346.12,-544.6 97.02,-132.28 205.01,-196.23 273.37,-330.73 -4.41,-149.94 -88.17,-8.83 -114.62,0 -26.46,8.81 -127.93,178.57 -304.3,288.84 -66.86,-44.58 -45.65,-670.45 -39.6,-829.15 3.53,-92.14 62.34,-160.14 21.96,-182.87 -32.6,-18.36 -158.76,-97.02 -158.76,-26.46 0,70.56 9.56,1167.84 -8.8,1179.61zm218.7 -1057.18c-8.59,25.75 -19.01,56.99 -20.22,88.78 -3.02,79.15 -9.81,274.76 -7.54,454.88 1.56,124.32 5.41,239.79 13.6,294.98 88.11,-65.61 153.75,-144.28 195.31,-194.09 29.67,-35.56 49.78,-59.67 72.86,-67.46l-0.02 -0.06c5.54,-1.85 0.9,-4.87 8.25,-12.53 25.3,-26.37 55.33,-57.66 94.09,-58.79 45.82,-1.36 79.28,28.12 81.96,120.07l0.39 13.52 -5.99 11.79c-43.55,85.71 -99.67,143.01 -159.37,204 -24.16,24.68 -48.97,50.02 -73.43,78.06 173.89,81.65 253.68,273.33 288.06,411.87 10.12,40.77 16.35,77.61 19.86,105.16 4.09,32.19 3.86,57.22 2.07,64.5l-0.03 -0.01c-4.85,20.17 -16.79,33.21 -37.8,38.93l-1.27 0.35 0.02 0.06c-2,0.49 -6.84,6.21 -11.47,11.69 -21.76,25.74 -42.43,50.18 -96.75,44.69l-47.29 -4.78 -0.41 -47.49c-1.27,-145 -31.53,-272.45 -81.69,-356.86 -18.74,-31.53 -39.93,-56.3 -62.93,-72.61 -20.15,-14.28 -41.92,-21.99 -64.71,-21.8 -21.82,0.18 -46.03,7.57 -72.35,23.21 -10.03,5.95 -22.78,31.26 -36.94,59.39 -6.18,12.29 -12.6,25 -20.19,38.6 -5.82,49.95 -30.69,265.71 -27.66,286.88 11.94,83.49 -222.24,125.54 -222.9,125.66l-73.58 14.72 10.74 -74.24 43.9 -303.49 -48.59 -12.41c-11.29,-2.87 -20.92,-8.32 -28.95,-16.01 -23.15,-22.18 -24.53,-50.08 -11.1,-80.9 6.12,-14.05 16,-29.54 27.73,-45.06 34.61,-45.8 93.87,-102.18 106.99,-110.59 8.47,-5.44 -13.47,-798.88 -15.05,-1057.24 -0.36,-61.53 -0.63,-48.73 -0.63,-77.78 0,-59.96 32.72,-81.97 81.11,-81.97 48.75,0 115.48,38.49 148.11,57.34l0.04 -0.06 8.92 5.12 -0.02 0.03c60.7,34.41 45.71,79.45 24.83,141.98zm470.8 1553.94l-2.9 0.8 2.92 -0.73 -0.02 -0.06z"/>
   </g>
  </g>
  <g>
   <g>
    <path class="fil2" d="M9292.18 5320.3c-130.09,2.62 -277.78,-232.18 -215.58,-464.33 62.2,-232.15 215.57,-427 331.66,-393.84 116.09,33.17 163.77,120.23 217.65,136.8 53.89,16.59 33.17,116.07 24.87,149.24 -8.28,33.17 -10.35,132.71 -18.65,194.86 -8.29,62.17 -60.77,371.6 -339.95,377.26zm58.05 -95.36c-30.63,1.34 -161.69,-87.05 -161.69,-240.44 0,-153.39 90.99,-332.08 174.09,-344.1 83.11,-12.01 256.49,45.19 194.87,273.62 -61.62,228.42 -130.8,307.58 -207.28,310.93z"/>
    <path id="1" class="fil1" d="M9293.22 5373.19c-16.16,0.33 -32.06,-1.68 -47.43,-5.8 -61.81,-16.56 -121.74,-68.24 -165.53,-140.35 -41.2,-67.86 -69.25,-155.35 -71.13,-248.68 -0.89,-44.72 4.05,-90.6 16.24,-136.07 1.66,-6.17 3.06,-11.24 4.12,-15 34.14,-119.48 91.16,-229.15 155.01,-305.27 72.51,-86.42 157.08,-132.65 235.93,-111.53l0.21 0.2 1.52 0.41 0.62 0c80.69,23.06 130.79,66.74 171.4,102.14 19.72,17.19 36.38,31.73 47.29,35.08 55.34,17.03 72.23,66.35 73.09,118.19 0.63,37.68 -7.61,75.68 -12.33,94.53 -3.46,13.85 -5.98,49.93 -8.68,88.6 -2.35,33.81 -4.84,69.51 -8.94,100.25 -4.51,33.91 -21.12,135.35 -74.82,229.3 -56.81,99.42 -153.31,190.68 -316.57,193.99zm-1.04 -52.89c-130.09,2.62 -277.78,-232.18 -215.58,-464.33 62.2,-232.15 215.57,-427 331.66,-393.84 116.09,33.17 163.77,120.23 217.65,136.8 53.89,16.59 33.17,116.07 24.87,149.24 -8.28,33.17 -10.35,132.71 -18.65,194.86 -8.29,62.17 -60.77,371.6 -339.95,377.26zm58.05 -95.36c-30.63,1.34 -161.69,-87.05 -161.69,-240.44 0,-153.39 90.99,-332.08 174.09,-344.1 83.11,-12.01 256.49,45.19 194.87,273.62 -61.62,228.42 -130.8,307.58 -207.28,310.93zm-51.13 -95.65c25.18,27.71 45.24,42.56 50.43,42.56l0 0.11c21.4,-1.56 43.42,-15.84 66.77,-48.78 30.92,-43.65 60.88,-114.98 89.98,-222.86 11.06,-40.98 13.33,-74.52 9.4,-101.73 -4.4,-30.42 -16.85,-52.82 -33.11,-68.78 -16.74,-16.43 -38.07,-26.87 -59.19,-32.56 -19.94,-5.37 -38.88,-6.47 -53.27,-4.39 -23.43,3.39 -52.83,39.91 -78.58,90.79 -29.58,58.47 -49.88,132.57 -49.88,200.84l0.04 9.37c2.52,57.86 28.73,103.86 57.41,135.42z"/>
   </g>
   <g>
    <path class="fil2" d="M10057.89 5261.28c-20.74,-37.31 -49.75,-335.83 0,-373.14 49.75,-37.3 194.87,-97.39 236.33,-113.97 41.46,-16.59 97.42,-55.98 55.96,-72.57 -41.46,-16.58 -296.41,58.05 -296.41,58.05 0,0 27.45,-865.72 203.1,-907.93 175.65,-42.21 176.99,122.97 244.61,136.83 67.62,13.86 58.04,49.75 74.63,8.29 16.59,-41.46 41.09,-76.11 -24.87,-136.82 -51.04,-46.95 -92.8,-102.66 -146.81,-127.66 -135.7,-62.83 -262.67,-49.73 -346.54,160.85 -32.95,82.82 -113.98,866.44 -138.85,883.02 -24.87,16.59 -37.31,16.61 -37.31,16.61 0,0 -143.64,115.5 -143.01,128.53 0.93,18.72 79.06,27.65 153.35,-4.17 0,0 -53.91,339.98 -8.29,414.58 45.62,74.58 165.82,-20.74 174.11,-70.49z"/>
    <path id="1" class="fil1" d="M10057.89 5261.28c-20.74,-37.31 -49.75,-335.83 0,-373.14 49.75,-37.3 194.87,-97.39 236.33,-113.97 41.46,-16.59 97.42,-55.98 55.96,-72.57 -41.46,-16.58 -296.41,58.05 -296.41,58.05 0,0 27.45,-865.72 203.1,-907.93 175.65,-42.21 176.99,122.97 244.61,136.83 67.62,13.86 58.04,49.75 74.63,8.29 16.59,-41.46 41.09,-76.11 -24.87,-136.82 -51.04,-46.95 -92.8,-102.66 -146.81,-127.66 -135.7,-62.83 -262.67,-49.73 -346.54,160.85 -32.95,82.82 -113.98,866.44 -138.85,883.02 -24.87,16.59 -37.31,16.61 -37.31,16.61 0,0 -143.64,115.5 -143.01,128.53 0.93,18.72 79.06,27.65 153.35,-4.17 0,0 -53.91,339.98 -8.29,414.58 45.62,74.58 165.82,-20.74 174.11,-70.49zm25.63 -232.68c0,89.74 11.41,190.38 20.62,206.96l9.04 16.27 -3.02 18.16c-6.19,37.22 -46.11,86.93 -92.35,115.23 -15.24,9.32 -31.47,16.85 -47.76,21.53 -18.73,5.37 -38.09,7.15 -57.09,3.98 -29.54,-4.93 -55.66,-20.71 -74.4,-51.36 -39.4,-64.43 -23.06,-259.59 -9.76,-370.6 -8.11,1.05 -15.98,1.75 -23.5,2.12 -21.99,1.09 -41.87,-0.55 -57.29,-4.12 -27.88,-6.41 -48.45,-21.22 -57.45,-42.22l0.11 -0.04c-2.88,-6.72 -4.47,-13.61 -4.82,-20.43l0 -0.21c-1.84,-37.71 162.45,-172.13 162.92,-172.5l14.61 -11.62 18.36 0c0,0 -3.35,-0.01 7.86,-7.49l0.2 -0.2c7.53,-5.01 17.69,-186.16 43.77,-383.94 27.72,-210.07 56.35,-427.1 75.17,-474.4 48.21,-121.07 111.78,-186.44 184.73,-213.24 74.23,-27.27 153.24,-13.23 233.16,23.77 46.8,21.65 82.12,57.9 118.98,95.74 13.31,13.65 26.87,27.58 41.51,41.05 87.11,80.16 65.82,130.25 42.65,184.74l-4.5 10.57 0 0.2c-22.31,55.75 -34.58,67.64 -82.83,48.36l-0.2 0c-7.66,-3.08 -12.15,-6.24 -17.94,-10.38 -5.28,-3.76 -14.39,-10.23 -33.39,-14.12 -44.91,-9.21 -66.08,-40.88 -90.13,-76.86 -23.8,-35.61 -53.01,-79.29 -131.66,-60.38 -111.41,26.77 -149.28,584.88 -159.35,786.34 84.83,-21.97 220.58,-52.85 260.12,-37.05 14.35,5.75 25.29,13.82 33.19,23.67 16.68,20.66 18.74,43.05 10.08,66 -4.91,13.04 -13.7,25.01 -24.86,35.63 -19.07,18.13 -49.16,35.5 -74.36,45.58 -25.2,10.07 -89.59,36.61 -146.35,63.97 -32.91,15.88 -62.48,31.55 -77.95,43.15 -4.5,3.37 -6.11,46.13 -6.11,98.15z"/>
   </g>
  </g>
  <g>
   <g>
    <path class="fil2" d="M13917.54 5345.53c11.78,-3.32 199.55,-55.68 283.01,-72.08 47.16,-9.29 13.78,-77.6 18.52,-93.47 7.77,-25.98 -236.66,52.95 -235.4,-21.02 3.48,-199.06 32.51,-1176.96 47.73,-1200.03 15.23,-23.08 33.87,1.88 37.03,-22.98 3.16,-24.87 31.21,-71.37 -20.84,-114 -52.06,-42.71 -126.57,-63.27 -132.14,-38.76 -5.58,24.51 1.65,107.96 1.65,107.96 0,0 -54.82,1357.4 -55.76,1388.94 -0.93,31.55 29.4,70.94 56.21,65.44z"/>
    <path id="1" class="fil1" d="M13917.54 5345.53c11.78,-3.32 199.55,-55.68 283.01,-72.08 47.16,-9.29 13.78,-77.6 18.52,-93.47 7.77,-25.98 -236.66,52.95 -235.4,-21.02 3.48,-199.06 32.51,-1176.96 47.73,-1200.03 15.23,-23.08 33.87,1.88 37.03,-22.98 3.16,-24.87 31.21,-71.37 -20.84,-114 -52.06,-42.71 -126.57,-63.27 -132.14,-38.76 -5.58,24.51 1.65,107.96 1.65,107.96 0,0 -54.82,1357.4 -55.76,1388.94 -0.93,31.55 29.4,70.94 56.21,65.44zm184.08 5.65c-82,20.88 -162.39,43.3 -169.77,45.38l-3.74 0.83c-5.89,1.21 -11.88,1.69 -17.77,1.54l-0.21 0c-26.36,-0.78 -50.61,-14.59 -68.58,-34.71 -14.85,-16.62 -26.39,-38.74 -30.9,-60.78 -1.67,-8.16 -2.45,-16.51 -2.21,-24.81 0.93,-31.3 52.18,-1300.42 55.58,-1385.08 -1.13,-13.99 -7.03,-92.04 -0.22,-121.98 2.24,-9.99 6.66,-18.81 12.9,-26.45l-0.12 -0.1c12.53,-15.29 30.22,-23.4 51.27,-25.06l0 -0.02c11.68,-0.92 25.22,0.38 39.65,3.66 33.94,7.71 78.29,28.48 113.58,57.4l0.1 -0.12c68.52,56.15 53.05,112.53 42.13,152.3 -1.2,4.38 -2.29,8.35 -2.42,9.41 -5.88,46.3 -22.95,56.66 -45.88,58.42 -1.55,39.23 -6.29,163.17 -12.39,316.97 -12.27,308.42 -23.96,720.83 -26.07,841.81 -0.28,16.26 3.42,-21.26 7.49,-21.2 27.45,0.46 66.17,-5.26 98.57,-10.04 37.22,-5.5 67.94,-10.03 88.23,-3.96 35.5,10.58 50.06,32.69 39.29,69.66l1.91 -0.38c0.74,-0.95 1.39,-1.4 1.6,-0.32 9.61,47.97 23.03,115.02 -62.94,131.95 -27.2,5.33 -67.5,15.08 -109.09,25.67zm168.26 -156.05c-1.7,5.68 0.47,0.92 2.17,-1.25l-1.91 0.38c-0.08,0.29 -0.17,0.57 -0.25,0.87z"/>
   </g>
   <g>
    <path class="fil2" d="M14531.3 4502.26c0,0 -17.67,245.9 -23.33,309.25 -5.64,63.34 -20.7,428.81 2.6,490.75 8.52,22.59 135.56,-1.99 149.06,-18.01 15.29,-18.11 14.2,-64.65 -7.98,-194.06 -22.18,-129.41 -2.23,-542.62 -2.23,-542.62 0,0 30.53,-153.08 4.74,-147.17 -25.84,5.93 -133.24,29.23 -122.86,101.85zm77.91 -199.93c0,0 -79.09,-43.05 -85.21,-93.5 -6.15,-50.45 -21.06,-120.38 22.16,-139.59 43.23,-19.24 221.25,82.83 159.05,186.08 -21.77,36.12 -64.55,56.44 -96,47z"/>
    <path id="1" class="fil1" d="M14660.12 4482.57c19.82,-19.88 30.82,-36.25 5.86,-30.52l-1.33 0.31c-0.39,0.08 -0.82,0.19 -1.25,0.29 2.46,-29.89 1.43,-54.69 -9.24,-52.24 -25.84,5.93 -133.24,29.23 -122.86,101.85 0,0 -17.67,245.9 -23.33,309.25 -5.64,63.34 -20.7,428.81 2.6,490.75 8.52,22.59 135.56,-1.99 149.06,-18.01 15.29,-18.11 14.2,-64.65 -7.98,-194.06 -22.18,-129.41 -2.23,-542.62 -2.23,-542.62 0,0 6.23,-31.28 10.69,-65zm-50.91 -180.24c0,0 -79.09,-43.05 -85.21,-93.5 -6.15,-50.45 -21.06,-120.38 22.16,-139.59 43.23,-19.24 221.25,82.83 159.05,186.08 -21.77,36.12 -64.55,56.44 -96,47zm-153.92 504.61c2.02,-22.72 20.01,-266.27 22.77,-303.77 -9.02,-92.8 79.36,-130.86 132.94,-146.47 -5.75,-0.72 -11.41,-1.9 -16.93,-3.56l-6 -1.79 -5.19 -2.97c-0.28,-0.16 -101.88,-54.92 -111.53,-133.12l-0.03 0 -1.98 -16.13c-8.88,-65.82 -19.49,-144.77 55.29,-178.14l-0.03 -0.07c31.53,-14.03 86.96,-2.63 135.23,26.44 19.49,11.73 38.76,26.33 55.35,42.91l0 0.2c17.76,17.77 32.93,38.27 42.96,60.81 18.2,40.89 19.85,86.01 -7.5,131.42 -16.13,26.75 -40.22,47.82 -66.24,60.55 -4.34,2.12 -8.75,4.02 -13.22,5.69 63.96,19.81 35.57,181.39 30.91,205.71 -2.1,46.05 -18.07,410.41 1.84,526.62 11.38,66.45 17.41,112.64 18.66,145.81 1.68,44.88 -6.18,72.06 -22.5,91.39 -8.39,9.95 -21.73,18.1 -37.86,24.17 -21.46,8.09 -55.02,15.86 -84.97,19.46 -38.76,4.65 -77.51,1.38 -98.25,-16.08 -8.22,-6.92 -14.33,-15.31 -18,-25.09 -11.27,-29.94 -15.44,-103.47 -15.88,-186.71 -0.68,-128.83 6.59,-287.18 10.16,-327.28z"/>
   </g>
   <g>
    <path class="fil2" d="M15217.39 5235.59c-20.74,-37.3 -49.74,-335.83 0,-373.13 49.75,-37.31 194.87,-97.41 236.33,-113.98 41.46,-16.59 97.42,-55.98 55.96,-72.55 -41.46,-16.59 -296.4,58.04 -296.4,58.04 0,0 27.44,-865.72 203.09,-907.93 175.65,-42.21 176.99,122.97 244.61,136.83 67.62,13.86 58.04,49.75 74.63,8.29 16.59,-41.46 41.09,-76.11 -24.87,-136.8 -51.03,-46.95 -92.8,-102.66 -146.81,-127.67 -135.7,-62.82 -262.67,-49.73 -346.54,160.86 -32.95,82.82 -113.98,866.43 -138.85,883.02 -24.87,16.58 -37.31,16.6 -37.31,16.6 0,0 -143.64,115.5 -143.01,128.53 0.95,18.73 79.06,27.66 153.35,-4.17 0,0 -53.91,339.98 -8.29,414.58 45.62,74.58 165.82,-20.74 174.11,-70.49z"/>
    <path id="1" class="fil1" d="M15051.57 4891.51c0,0 -53.91,339.98 -8.29,414.58 45.62,74.58 165.82,-20.74 174.11,-70.49 -20.74,-37.3 -49.74,-335.83 0,-373.13 49.75,-37.31 194.87,-97.41 236.33,-113.98 41.46,-16.59 97.42,-55.98 55.96,-72.55 -41.46,-16.59 -296.4,58.04 -296.4,58.04 0,0 27.44,-865.72 203.09,-907.93 175.65,-42.21 176.99,122.97 244.61,136.83 67.62,13.86 58.04,49.75 74.63,8.29 16.59,-41.46 41.09,-76.11 -24.87,-136.8 -51.03,-46.95 -92.8,-102.66 -146.81,-127.67 -135.7,-62.82 -262.67,-49.73 -346.54,160.86 -32.95,82.82 -113.98,866.43 -138.85,883.02 -24.87,16.58 -37.31,16.6 -37.31,16.6 0,0 -143.64,115.5 -143.01,128.53 0.95,18.73 79.06,27.66 153.35,-4.17zm191.44 111.41c0,89.73 11.41,190.38 20.62,206.95l9.04 16.27 -3.02 18.16c-6.19,37.22 -46.11,86.93 -92.35,115.23 -15.24,9.32 -31.47,16.85 -47.76,21.53 -18.73,5.37 -38.09,7.15 -57.09,3.98 -29.54,-4.93 -55.66,-20.71 -74.4,-51.36 -39.4,-64.43 -23.06,-259.57 -9.76,-370.59 -8.07,1.05 -15.9,1.74 -23.38,2.12 -22.01,1.1 -41.92,-0.54 -57.37,-4.11 -27.89,-6.44 -48.49,-21.2 -57.5,-42.25l0.11 -0.04c-2.88,-6.72 -4.47,-13.61 -4.82,-20.43l0 -0.21c-1.84,-37.71 162.45,-172.13 162.92,-172.5l14.61 -11.62 18.36 0c0,0 -3.43,-0.02 8.04,-7.67 7.34,-7.73 17.92,-187.76 43.8,-383.95 27.72,-210.07 56.35,-427.1 75.17,-474.4 48.21,-121.06 111.78,-186.45 184.73,-213.25 74.23,-27.26 153.24,-13.23 233.16,23.77 46.81,21.68 82.13,57.92 119.02,95.77 13.3,13.66 26.87,27.58 41.48,41.02 87.11,80.15 65.82,130.24 42.65,184.73l-4.5 10.57 0 0.2c-22.31,55.75 -34.58,67.64 -82.83,48.36l-0.2 0c-7.66,-3.08 -12.15,-6.24 -17.94,-10.38 -5.28,-3.76 -14.39,-10.23 -33.39,-14.12 -44.91,-9.21 -66.08,-40.88 -90.13,-76.86 -23.8,-35.61 -53.01,-79.29 -131.66,-60.38 -111.41,26.77 -149.27,584.88 -159.34,786.34 84.83,-21.97 220.58,-52.85 260.11,-37.04 14.3,5.72 25.23,13.77 33.2,23.66 16.64,20.67 18.72,43.06 10.07,66 -4.92,13.02 -13.7,25 -24.86,35.62 -19.07,18.15 -49.16,35.51 -74.36,45.59 -25.2,10.07 -89.59,36.61 -146.35,63.98 -32.9,15.86 -62.47,31.54 -77.95,43.15 -4.49,3.38 -6.11,46.13 -6.11,98.15z"/>
   </g>
   <g>
    <path class="fil2" d="M15784.75 4975.96c125.49,-504.21 580.61,-482.85 516.95,-322.67 -59.09,148.66 -192.59,280.43 -216.23,288.88 -23.65,8.46 -157.12,81.08 -300.72,33.79zm33.62 132.72c5.32,-7.03 45.21,-6.58 71.95,-12.8 155.37,-36.05 286.69,-73.86 381.79,-207.8 140.93,-198.54 252.06,-440.62 -121.64,-454.43 -213.9,-7.89 -431.98,330.7 -474.79,541.78 -3.28,16.16 -64.7,14.78 -65.82,29.25 -1.3,16.64 18.37,49.4 40.15,70.54 14.75,14.32 32.36,17.88 37.97,28.59 50.08,95.41 184.22,189.79 281.74,199.89 228.06,23.62 344.6,-59.12 375.02,-97.98 30.42,-38.86 32.13,-119.95 -5.06,-128.39 -37.18,-8.44 -66.83,-1.07 -74.34,37.17 -44.19,224.86 -490.88,52.35 -446.98,-5.81z"/>
    <path id="1" class="fil1" d="M15784.75 4975.96c125.49,-504.21 580.61,-482.85 516.95,-322.67 -59.09,148.66 -192.59,280.43 -216.23,288.88 -23.65,8.46 -157.12,81.08 -300.72,33.79zm33.62 132.72c5.32,-7.03 45.21,-6.58 71.95,-12.8 155.37,-36.05 286.69,-73.86 381.79,-207.8 140.93,-198.54 252.06,-440.62 -121.64,-454.43 -213.9,-7.89 -431.98,330.7 -474.79,541.78 -3.28,16.16 -64.7,14.78 -65.82,29.25 -1.3,16.64 18.37,49.4 40.15,70.54 14.75,14.32 32.36,17.88 37.97,28.59 50.08,95.41 184.22,189.79 281.74,199.89 228.06,23.62 344.6,-59.12 375.02,-97.98 30.42,-38.86 32.13,-119.95 -5.06,-128.39 -37.18,-8.44 -66.83,-1.07 -74.34,37.17 -44.19,224.86 -490.88,52.35 -446.98,-5.81zm314.28 -493.41c-99.55,29.72 -218.47,124.69 -281.69,321.34 89.27,10.99 169.45,-24.01 200.96,-37.76 7.41,-3.24 13.07,-5.72 15.71,-6.66 8.72,-3.11 51.01,-45.79 99.05,-109.97 32.53,-43.46 64.63,-95.03 85.86,-148.42 2.86,-7.19 2.35,-12.26 -0.57,-14.91 -7.34,-6.67 -20.86,-11.28 -38.84,-13.12l0 -0.02c-22.74,-2.27 -50.34,0.54 -80.48,9.53zm-6.02 461.12c-60.29,28.85 -124.76,47.23 -193.68,63.86 26.09,10.42 56.25,19.55 87.55,25.7 85.68,16.83 178.55,10.86 192.79,-61.63l0.2 -0.83 0.49 -2.29 0.21 -0.63c8.07,-35.53 27.47,-57.94 54.68,-70.19 22.98,-10.34 49.16,-11.45 76.63,-6.05l0.83 0.2 4.34 0.92 0.63 0.21c11.9,2.7 22.41,7.88 31.55,15.02 19.93,15.61 31.59,39.61 35.78,66.65l0.2 0c3.16,20.52 2.01,44.16 -3.08,66.61 -5.29,23.34 -15.2,46.28 -29.32,64.32 -22.83,29.18 -82.41,77.62 -181.94,103.63 -62.49,16.32 -142.15,24.62 -240.17,14.47 -58.14,-6.01 -125.42,-35.95 -184.49,-77.85 -55.4,-39.3 -105.23,-90.36 -134.82,-143.03l-0.24 0.44c0,0.01 -0.01,0.01 -0.01,0.01l-0.21 0c-9.24,-5.33 -19.74,-11.38 -31.47,-22.77 -14.62,-14.2 -28.56,-32.42 -38.4,-49.73 -12.04,-21.14 -19.17,-43.76 -17.71,-62.7 3.63,-46.59 37.6,-53.98 72.8,-61.69 0,0 0,0 0,0 30.57,-120.89 108.32,-272.23 207.21,-385.09 90.96,-103.79 201.63,-177.39 315.36,-173.2 224.17,8.27 303.08,93.62 304.82,210.21 1.52,100.95 -66.18,221.14 -141.9,327.81 -53.29,75.06 -116.77,123.21 -188.63,157.61zm-481.72 58.92l-0.22 0.39c0.05,0.13 0.07,0.2 0.08,0.22l0.24 -0.44c-0.03,-0.06 -0.06,-0.13 -0.11,-0.18zm-0.22 0.39l0.22 -0.39c-1.31,-2.35 -2.58,-4.68 -3.81,-7.03 -3.83,-7.31 2.75,5.52 3.59,7.42z"/>
   </g>
  </g>
  <g>
   <g>
    <path class="fil2" d="M11159.89 4467.64c5.69,-82.99 -43.51,-53.68 -135.79,17.89 -36.04,105.59 15.01,590.66 232.3,713.15 81.91,46.16 210.23,-62.76 231.36,-82.79 21.12,-20.01 -53.06,180.06 -53.06,180.06 0,0 -606.84,318.13 -632.21,495.66 -25.37,177.54 114.15,417.64 255.77,480.15 141.62,62.51 213.49,32.49 253.64,-7.51 40.16,-39.96 107.6,-266.45 135.03,-441.5 27.46,-175.05 60.97,-344.47 81.03,-363.99 20.07,-19.55 112.03,-87.1 72.13,-126.45l-65.99 -65.04c0,0 173.03,-786.1 164.6,-828.58 -8.45,-42.49 -38.85,-103.1 -59.94,-103.1 -21.09,0 -69.9,116.96 -55.85,187.55 9.07,45.5 -32.42,270.76 -98.89,431.18 -39.33,94.91 -128.14,79.16 -180.38,80.68 -73.32,2.18 -163.4,-281.43 -143.76,-567.36zm253.87 1002.27c0,0 -463.52,241.43 -469.87,393.97 -6.35,152.56 154.07,342.25 255.5,334.78 101.42,-7.44 212.32,-487.89 214.37,-728.75z"/>
    <path id="1" class="fil1" d="M11115.67 4367.17c69.84,-17.79 103.53,10.21 97.11,103.99 -2.64,38.53 -3.26,76.38 -2.18,112.86 3.36,113.07 22.5,218.98 48.25,297.07 20.23,61.37 37.4,100.42 45.52,100.97l-2.37 0.05 0.2 0c0.71,-0.02 1.43,-0.04 2.17,-0.05l0 0 0 0c6.98,-0.14 14.5,-0.03 22.38,0.06 37.24,0.49 88.01,1.17 108.34,-47.93l0 -0.2c28.71,-69.27 52.64,-151.52 69.52,-225.08 19.78,-86.3 30,-156.65 26.26,-175.4l0 -0.21c-2.43,-12.26 -3.54,-25.01 -3.54,-37.91 0,-40.57 11.19,-86.58 25.17,-122.88l0 -0.21c18.09,-46.94 47.74,-83.23 74.88,-88.63l0.02 0.12c4.29,-0.86 8.11,-1.29 11.37,-1.29 31.2,0 58.65,24.39 78.35,58.3 14.94,25.71 28.1,59.82 33.64,87.73 9.2,46.32 -127.55,678.48 -158.75,821.48l45.21 44.55c55.42,54.65 18.86,114.28 -26.32,160.07 -12.75,12.93 -25.69,24.2 -35.66,32.88l0.08 0.1 -10.44 9.11c-1.31,1.27 -8.83,33.05 -19.77,82.27 -14.98,67.32 -31.31,158.71 -45.91,251.86 -14.33,91.45 -39.26,196.47 -65.68,282.89 -27.28,89.2 -58.23,162.12 -84.28,188.06 -27.3,27.21 -65.29,51.02 -120.1,57.34 -49.16,5.66 -111.81,-3.33 -192.25,-38.84 -83.39,-36.81 -164.75,-124.61 -219.54,-227.48 -51.95,-97.55 -81.34,-210.62 -67.33,-308.68 29.18,-204.26 658.4,-534.12 660.2,-535.07l1.92 3.67c15.27,-13.98 35.33,-32.32 55.91,-51.08 -15.65,46.53 -33.36,94.28 -33.36,94.28 -0.03,0.02 -606.84,318.13 -632.21,495.66 -25.37,177.54 114.15,417.64 255.77,480.15 141.62,62.51 213.49,32.49 253.64,-7.51 40.16,-39.96 107.6,-266.45 135.03,-441.5 27.46,-175.05 60.97,-344.47 81.03,-363.99 20.07,-19.55 112.03,-87.1 72.13,-126.45l-65.99 -65.04c0,0 173.03,-786.1 164.6,-828.58 -8.45,-42.49 -38.85,-103.1 -59.94,-103.1 -21.09,0 -69.9,116.96 -55.85,187.55 9.07,45.5 -32.42,270.76 -98.89,431.18 -39.33,94.91 -128.14,79.16 -180.38,80.68 -73.32,2.18 -163.4,-281.43 -143.76,-567.36 5.69,-82.99 -43.51,-53.68 -135.79,17.89 -36.04,105.59 15.01,590.66 232.3,713.15 81.91,46.16 210.23,-62.76 231.36,-82.79 10.55,-9.99 -2.67,34.88 -18.53,82.31 -26.83,18.78 -60.36,38.79 -95.11,51.22 -47.51,17 -98.27,21.08 -143.64,-4.49 -101.14,-57.02 -169.3,-176.92 -211.66,-306.96 -60.44,-185.54 -68.85,-399.35 -44.91,-469.46l5.12 -15.02 12.72 -9.87c51.43,-39.89 92.01,-68.32 123.92,-76.46zm298.09 1102.73c-0.13,0.06 -463.52,241.45 -469.87,393.97 -6.35,152.56 154.07,342.25 255.5,334.78 101.42,-7.44 212.32,-487.89 214.37,-728.75zm-58.02 92.57c-126.85,72.8 -355.33,215.82 -358.97,303.47 -0.24,5.96 -0.08,12.65 0.45,19.91 4.41,59.91 37.02,125.44 78.99,176.89 39.18,48.03 83.47,81.82 115.8,83.15l0.21 0c0.62,0.02 1.82,-0.03 3.43,-0.14 20.07,-1.48 53.25,-87.17 86.31,-199.55 35.3,-120.03 62.83,-265.49 73.79,-383.75z"/>
   </g>
   <g>
    <path class="fil2" d="M12028.18 5206.65c-130.09,2.62 -277.79,-232.18 -215.59,-464.33 62.2,-232.15 215.57,-427 331.66,-393.84 116.09,33.17 163.77,120.23 217.65,136.8 53.89,16.59 33.17,116.07 24.88,149.24 -8.29,33.17 -10.36,132.71 -18.66,194.86 -8.29,62.16 -60.77,371.6 -339.94,377.26zm58.04 -95.36c-30.63,1.34 -161.68,-87.05 -161.68,-240.44 0,-153.39 90.98,-332.08 174.09,-344.1 83.1,-12.01 256.48,45.19 194.86,273.62 -61.62,228.42 -130.8,307.58 -207.28,310.93z"/>
    <path id="1" class="fil1" d="M12029.22 5259.54c-16.16,0.33 -32.06,-1.68 -47.43,-5.8 -61.82,-16.57 -121.75,-68.24 -165.53,-140.35 -41.22,-67.86 -69.26,-155.35 -71.14,-248.7 -0.89,-44.71 4.06,-90.58 16.24,-136.06 1.66,-6.17 3.06,-11.24 4.12,-15 34.14,-119.48 91.16,-229.15 155.01,-305.27 72.51,-86.42 157.08,-132.65 235.93,-111.53l0.21 0.2 1.52 0.41 0.62 0c80.69,23.06 130.79,66.74 171.4,102.14 19.72,17.19 36.38,31.73 47.29,35.08 55.34,17.03 72.23,66.35 73.09,118.19 0.63,37.67 -7.61,75.68 -12.32,94.53 -3.47,13.87 -5.99,49.98 -8.69,88.67 -2.35,33.78 -4.85,69.45 -8.94,100.19 -4.51,33.9 -21.12,135.34 -74.82,229.3 -56.81,99.42 -153.31,190.68 -316.56,193.99zm-1.04 -52.89c-130.09,2.62 -277.79,-232.18 -215.59,-464.33 62.2,-232.15 215.57,-427 331.66,-393.84 116.09,33.17 163.77,120.23 217.65,136.8 53.89,16.59 33.17,116.07 24.88,149.24 -8.29,33.17 -10.36,132.71 -18.66,194.86 -8.29,62.16 -60.77,371.6 -339.94,377.26zm58.04 -95.36c-30.63,1.34 -161.68,-87.05 -161.68,-240.44 0,-153.39 90.98,-332.08 174.09,-344.1 83.1,-12.01 256.48,45.19 194.86,273.62 -61.62,228.42 -130.8,307.58 -207.28,310.93zm-51.13 -95.65c25.18,27.71 45.24,42.56 50.43,42.56l0 0.11c21.4,-1.56 43.42,-15.84 66.77,-48.78 30.92,-43.65 60.88,-114.98 89.98,-222.86 11.06,-40.98 13.33,-74.53 9.4,-101.74 -4.4,-30.4 -16.85,-52.81 -33.11,-68.77 -16.74,-16.43 -38.07,-26.87 -59.19,-32.56 -19.94,-5.37 -38.88,-6.47 -53.26,-4.39 -23.44,3.39 -52.83,39.9 -78.58,90.78 -29.58,58.47 -49.88,132.56 -49.88,200.85l0.04 9.37c2.52,57.85 28.73,103.86 57.4,135.42z"/>
   </g>
   <g>
    <path class="fil2" d="M12677.13 5136.95c-3.87,40.74 -136.5,55.99 -142.72,43.08 -26.92,-55.78 2.92,-107.27 2.92,-144.83 0,-37.56 19.57,-639.42 35.23,-676.08 15.63,-36.66 95.63,-72.91 146.39,-26 12.43,11.47 -11.83,9.58 -8.62,26.1 9.92,50.96 -3.33,117.43 -1.45,144.94 23.55,-16.67 122.73,-179.44 223.66,-182.61 50.91,-1.58 215.9,181.86 215.64,214.43 -0.27,32.57 2.7,56.79 -36.4,47.43 -39.1,-9.36 -153.34,-154.28 -208.09,-148.05 -54.72,6.24 -139.51,103.78 -194.24,200.82 -54.75,97.03 1.56,145.02 -32.32,500.77z"/>
    <path id="1" class="fil1" d="M12729.82 5141.93c-3.08,32.63 -25.41,55.38 -56.46,70.35 -20.42,9.86 -45.85,16.78 -69.43,20.78 -23.38,3.97 -46.79,5.21 -62.58,3.73 -25.33,-2.41 -44.84,-13.4 -54.64,-33.73 -26.4,-54.7 -16.09,-100.56 -7.23,-139.95 2.46,-10.99 4.76,-21.17 4.76,-27.91 0,-23.85 8.17,-281.39 18.2,-474.06 5.81,-111.49 13.06,-203.26 21.38,-222.76 4.67,-10.99 11.6,-21.37 20.19,-30.67 17.69,-19.16 44.62,-35.7 74.3,-43.9 30.66,-8.49 65.26,-8.7 97.63,5.11 13.5,5.73 26.59,14.06 38.8,25.33l0.11 -0.12c20.91,19.3 27.24,35.83 24.17,51.37 43.03,-40.47 94.95,-75.04 151.87,-76.82l1.03 0 0.84 -0.01 1.04 0c41.85,0.34 109.15,53.29 164.33,111.02 54.56,57.07 102.04,125.39 102.94,154.45l0.21 1.45 0 0.39 -0.21 0 -0.02 6.81c-0.01,13.81 -0.03,26.15 -3.21,39.4 -10.7,44.71 -35.13,67.79 -98.3,52.66 -29.36,-7.03 -62.57,-37.79 -99.7,-72.16 -37.62,-34.84 -81.03,-75.04 -90.14,-74.66l0 0.01c-12.79,1.45 -34.47,18.77 -59.32,44.47 -33.93,35.08 -68.29,82.43 -94.88,129.59 -21.05,37.31 -19.61,69.63 -16.75,134.22 3.1,69.79 7.63,171.67 -8.93,345.6zm-52.69 -4.98c-3.87,40.74 -136.5,55.99 -142.72,43.08 -26.92,-55.78 2.92,-107.27 2.92,-144.83 0,-37.56 19.57,-639.42 35.23,-676.08 15.63,-36.66 95.63,-72.91 146.39,-26 12.43,11.47 -11.83,9.58 -8.62,26.1 9.92,50.96 -3.33,117.43 -1.45,144.94 23.55,-16.67 122.73,-179.44 223.66,-182.61 50.91,-1.58 215.9,181.86 215.64,214.43 -0.27,32.57 2.7,56.79 -36.4,47.43 -39.1,-9.36 -153.34,-154.28 -208.09,-148.05 -54.72,6.24 -139.51,103.78 -194.24,200.82 -54.75,97.03 1.56,145.02 -32.32,500.77z"/>
   </g>
  </g>
 </g>
</svg>
