<?xml version="1.0" encoding="UTF-8"?>
<!DOCTYPE svg PUBLIC "-//W3C//DTD SVG 1.1//EN" "http://www.w3.org/Graphics/SVG/1.1/DTD/svg11.dtd">
<!-- Creator: CorelDRAW 2019 (64-Bit) -->
<svg xmlns="http://www.w3.org/2000/svg" xml:space="preserve" width="57.4623mm" height="56.3335mm" version="1.1" style="shape-rendering:geometricPrecision; text-rendering:geometricPrecision; image-rendering:optimizeQuality; fill-rule:evenodd; clip-rule:evenodd"
viewBox="0 0 5722.08 5609.68"
 xmlns:xlink="http://www.w3.org/1999/xlink">
 <defs>
  <style type="text/css">
   <![CDATA[
    .fil0 {fill:#E8BA03}
   ]]>
  </style>
 </defs>
 <g id="Слой_x0020_2">
  <metadata id="CorelCorpID_0Corel-Layer"/>
  <path class="fil0" d="M1186.01 1750.52l-235.13 135.84c0,0 -57.12,93.6 137.72,149.57 -73.75,18.1 -188.2,-28.33 -257.4,-47.84 -33.88,-9.54 -49.08,-7.42 -58.59,4.01 33.17,70.47 142.71,193.91 316.83,152.45 174.12,-41.46 218.67,-185 185.49,-284.5 -33.17,-99.51 -70.29,-109.02 -88.91,-109.53zm-957.82 265.99c0,0 149.48,23.16 156.76,109.2 7.29,86.05 -25.52,708.19 -91.15,767.77 -65.61,59.57 503.1,13.23 605.18,-95.97 102.09,-109.21 -83.85,-589.07 -83.85,-589.07 0,0 672.54,68.71 475.68,-467.4 182.28,-129.06 276.71,-206.15 276.71,-206.15l-135.08 -168.46 134.89 -62.87 -137.95 -219.19c0,0 1055.26,-680.54 1105.83,-721.49 174.85,-141.53 -65.14,-360 -228.47,-237.13l-156.76 -125.76 -80.2 278 -1708.53 1167.65c0,0 -2.07,64.95 -22.62,176.39 -5.59,30.28 -329.77,-41.83 -338.41,-5.04 -3.55,15.12 33.2,107.51 128.34,155.27 103.54,52 167.78,33.35 162.5,52.03 -16.66,58.92 -37.35,123.36 -62.88,192.21z"/>
  <path class="fil0" d="M1126.07 3813.95c0,0 -696.46,-259.48 -857.19,137.08 -160.74,396.58 -62.51,1155.43 674.15,1395.33 736.65,239.91 1234.41,-283.18 1334.91,-646.25 100.49,-363.08 62.9,-1029.44 -410.33,-1019.64 -233.69,4.84 -257.67,78.37 -416.29,115.28 -4.1,0.96 546.36,-365.34 513.43,-413.29 -23.59,-34.35 -631.34,256.7 -641.8,214.59 -38.46,-154.59 -94.26,-236.33 -102.12,-375.78 -27.06,-11.82 -86.7,450.54 -115.86,437.6 -109.64,-48.62 -142.79,-123.99 -254.04,-153.81 -212.05,-17.33 -422.05,-35.9 -461.49,-36.07 -28.68,-0.14 770.52,346.59 736.64,344.94z"/>
  <path class="fil0" d="M5125.21 3498.78l-1749.39 1604.75 -125.41 -38.17c0,0 -96.77,170.02 -253.33,197.26 -156.55,27.23 101.59,366.59 258.16,346.17 156.56,-20.42 130.78,-258.51 253.31,-258.51 122.53,0 -3.4,-131.03 -3.4,-131.03l1756.2 -1538.38c0,0 88.5,-6.82 129.33,13.6 40.84,20.42 150.72,-252.84 293.67,-280.08 142.95,-27.23 -158.27,-352.26 -273.99,-338.65 -115.72,13.62 -123.5,164.37 -211.99,205.2 -88.49,40.85 -161.66,136.15 -73.17,217.83z"/>
  <path class="fil0" d="M4047.94 72.55c0,0 -961.73,156.18 -935.41,821.49 7.48,189.1 311.8,131.91 521.67,215.86 -157.45,612.8 71.26,425.85 -6.8,764.33 -63.91,277.13 -150.58,526.66 -191.07,542.85 -89.95,35.98 -173.89,-77.95 -329.79,59.97 -155.91,137.92 215.85,155.9 377.76,143.91 161.91,-11.99 -74.95,170.9 -35.97,227.86 38.98,56.96 360.84,10.74 402.8,-115.16 41.97,-125.92 16.93,-508.45 16.93,-508.45 0,0 9,335.8 242.86,359.78 233.85,23.98 -98.95,50.96 -179.89,203.87 -80.95,152.9 576.85,-5.09 757.03,-53.96 88.45,-23.99 372.7,-83.56 290.64,-151.04 -58.37,-48.01 46.57,-153.12 154.59,-190.75 165.08,-57.5 216.82,-478.44 176.35,-500.93 -40.47,-22.49 -230.33,147.14 -302.27,87.18 -71.95,-59.97 -221.86,-743.53 -425.73,-755.53 -203.87,-11.99 -383.76,-269.83 -353.78,-323.79 29.98,-53.97 161.9,-0.01 167.89,-173.9 5.99,-173.89 761.95,448.15 917.43,491.69 125.18,35.06 131.92,5.99 173.9,-5.99 41.97,-12 -671.59,-698.57 -983.39,-893.45 395.75,104.94 1021.2,766.37 1163.28,740.53 22.11,-4.01 -542.66,-1028.36 -1619,-986.38z"/>
 </g>
</svg>
